# Pride Court deterministic low-poly character model
mtllib Charlotte_Dragon_Model_v1.mtl
s off

o Torso
g Torso
usemtl Charlotte_Navy
v -0.34 1.4 -0.2
v 0.34 1.4 -0.2
v 0.34 2.12 -0.2
v -0.34 2.12 -0.2
v -0.34 1.4 0.2
v 0.34 1.4 0.2
v 0.34 2.12 0.2
v -0.34 2.12 0.2
f 1 4 3 2
f 5 6 7 8
f 1 2 6 5
f 4 8 7 3
f 2 3 7 6
f 1 5 8 4

o Chest_Accent
g Chest_Accent
usemtl Charlotte_Crimson
v -0.12 1.53 0.1975
v 0.12 1.53 0.1975
v 0.12 2.11 0.1975
v -0.12 2.11 0.1975
v -0.12 1.53 0.2325
v 0.12 1.53 0.2325
v 0.12 2.11 0.2325
v -0.12 2.11 0.2325
f 9 12 11 10
f 13 14 15 16
f 9 10 14 13
f 12 16 15 11
f 10 11 15 14
f 9 13 16 12

o Shorts
g Shorts
usemtl Charlotte_Navy
v -0.38 1.14 -0.22
v 0.38 1.14 -0.22
v 0.38 1.46 -0.22
v -0.38 1.46 -0.22
v -0.38 1.14 0.22
v 0.38 1.14 0.22
v 0.38 1.46 0.22
v -0.38 1.46 0.22
f 17 20 19 18
f 21 22 23 24
f 17 18 22 21
f 20 24 23 19
f 18 19 23 22
f 17 21 24 20

o Waist_Dark
g Waist_Dark
usemtl Charlotte_Crimson
v -0.39 1.41 -0.23
v 0.39 1.41 -0.23
v 0.39 1.53 -0.23
v -0.39 1.53 -0.23
v -0.39 1.41 0.23
v 0.39 1.41 0.23
v 0.39 1.53 0.23
v -0.39 1.53 0.23
f 25 28 27 26
f 29 30 31 32
f 25 26 30 29
f 28 32 31 27
f 26 27 31 30
f 25 29 32 28

o Head
g Head
usemtl Charlotte_Skin
v 0 2.69 0
v 0 2.69 0
v 0 2.69 0
v 0 2.69 0
v 0 2.69 0
v 0 2.69 0
v 0 2.69 0
v 0 2.69 0
v 0 2.69 0
v 0 2.69 0
v 0.188091 2.619336 0
v 0.152169 2.619336 0.103647
v 0.058123 2.619336 0.167705
v -0.058123 2.619336 0.167705
v -0.152169 2.619336 0.103647
v -0.188091 2.619336 -0
v -0.152169 2.619336 -0.103648
v -0.058123 2.619336 -0.167705
v 0.058123 2.619336 -0.167705
v 0.152169 2.619336 -0.103648
v 0.304338 2.434336 0
v 0.246215 2.434336 0.167705
v 0.094046 2.434336 0.271353
v -0.094046 2.434336 0.271353
v -0.246215 2.434336 0.167705
v -0.304338 2.434336 -0
v -0.246215 2.434336 -0.167705
v -0.094046 2.434336 -0.271353
v 0.094046 2.434336 -0.271353
v 0.246215 2.434336 -0.167705
v 0.304338 2.205664 0
v 0.246215 2.205664 0.167705
v 0.094046 2.205664 0.271353
v -0.094046 2.205664 0.271353
v -0.246215 2.205664 0.167705
v -0.304338 2.205664 -0
v -0.246215 2.205664 -0.167705
v -0.094046 2.205664 -0.271353
v 0.094046 2.205664 -0.271353
v 0.246215 2.205664 -0.167705
v 0.188091 2.020664 0
v 0.152169 2.020664 0.103647
v 0.058123 2.020664 0.167705
v -0.058123 2.020664 0.167705
v -0.152169 2.020664 0.103647
v -0.188091 2.020664 -0
v -0.152169 2.020664 -0.103648
v -0.058123 2.020664 -0.167705
v 0.058123 2.020664 -0.167705
v 0.152169 2.020664 -0.103647
v -0 1.95 0
v -0 1.95 -0
v -0 1.95 -0
v 0 1.95 -0
v 0 1.95 -0
v 0 1.95 0
v 0 1.95 0
v 0 1.95 0
v -0 1.95 0
v -0 1.95 0
f 33 43 44 34
f 34 44 45 35
f 35 45 46 36
f 36 46 47 37
f 37 47 48 38
f 38 48 49 39
f 39 49 50 40
f 40 50 51 41
f 41 51 52 42
f 42 52 43 33
f 43 53 54 44
f 44 54 55 45
f 45 55 56 46
f 46 56 57 47
f 47 57 58 48
f 48 58 59 49
f 49 59 60 50
f 50 60 61 51
f 51 61 62 52
f 52 62 53 43
f 53 63 64 54
f 54 64 65 55
f 55 65 66 56
f 56 66 67 57
f 57 67 68 58
f 58 68 69 59
f 59 69 70 60
f 60 70 71 61
f 61 71 72 62
f 62 72 63 53
f 63 73 74 64
f 64 74 75 65
f 65 75 76 66
f 66 76 77 67
f 67 77 78 68
f 68 78 79 69
f 69 79 80 70
f 70 80 81 71
f 71 81 82 72
f 72 82 73 63
f 73 83 84 74
f 74 84 85 75
f 75 85 86 76
f 76 86 87 77
f 77 87 88 78
f 78 88 89 79
f 79 89 90 80
f 80 90 91 81
f 81 91 92 82
f 82 92 83 73

o Hair_Tuft_0
g Hair_Tuft_0
usemtl Charlotte_Red
v 0 2.72 -0.055
v 0 2.72 -0.055
v 0 2.72 -0.055
v 0 2.72 -0.055
v 0 2.72 -0.055
v 0 2.72 -0.055
v 0 2.72 -0.055
v 0 2.72 -0.055
v 0 2.72 -0.055
v 0 2.72 -0.055
v 0.217481 2.666525 -0.055
v 0.175946 2.666525 0.052102
v 0.067205 2.666525 0.118295
v -0.067205 2.666525 0.118295
v -0.175946 2.666525 0.052102
v -0.217481 2.666525 -0.055
v -0.175945 2.666525 -0.162102
v -0.067205 2.666525 -0.228295
v 0.067205 2.666525 -0.228295
v 0.175945 2.666525 -0.162102
v 0.351891 2.526525 -0.055
v 0.284686 2.526525 0.118295
v 0.10874 2.526525 0.225398
v -0.10874 2.526525 0.225398
v -0.284686 2.526525 0.118295
v -0.351891 2.526525 -0.055
v -0.284686 2.526525 -0.228295
v -0.10874 2.526525 -0.335398
v 0.10874 2.526525 -0.335398
v 0.284686 2.526525 -0.228295
v 0.351891 2.353475 -0.055
v 0.284686 2.353475 0.118295
v 0.10874 2.353475 0.225398
v -0.10874 2.353475 0.225398
v -0.284686 2.353475 0.118295
v -0.351891 2.353475 -0.055
v -0.284686 2.353475 -0.228295
v -0.10874 2.353475 -0.335398
v 0.10874 2.353475 -0.335398
v 0.284686 2.353475 -0.228295
v 0.217481 2.213475 -0.055
v 0.175945 2.213475 0.052102
v 0.067205 2.213475 0.118295
v -0.067205 2.213475 0.118295
v -0.175946 2.213475 0.052102
v -0.217481 2.213475 -0.055
v -0.175945 2.213475 -0.162102
v -0.067205 2.213475 -0.228295
v 0.067205 2.213475 -0.228295
v 0.175945 2.213475 -0.162102
v -0 2.16 -0.055
v -0 2.16 -0.055
v -0 2.16 -0.055
v 0 2.16 -0.055
v 0 2.16 -0.055
v 0 2.16 -0.055
v 0 2.16 -0.055
v 0 2.16 -0.055
v -0 2.16 -0.055
v -0 2.16 -0.055
f 93 103 104 94
f 94 104 105 95
f 95 105 106 96
f 96 106 107 97
f 97 107 108 98
f 98 108 109 99
f 99 109 110 100
f 100 110 111 101
f 101 111 112 102
f 102 112 103 93
f 103 113 114 104
f 104 114 115 105
f 105 115 116 106
f 106 116 117 107
f 107 117 118 108
f 108 118 119 109
f 109 119 120 110
f 110 120 121 111
f 111 121 122 112
f 112 122 113 103
f 113 123 124 114
f 114 124 125 115
f 115 125 126 116
f 116 126 127 117
f 117 127 128 118
f 118 128 129 119
f 119 129 130 120
f 120 130 131 121
f 121 131 132 122
f 122 132 123 113
f 123 133 134 124
f 124 134 135 125
f 125 135 136 126
f 126 136 137 127
f 127 137 138 128
f 128 138 139 129
f 129 139 140 130
f 130 140 141 131
f 131 141 142 132
f 132 142 133 123
f 133 143 144 134
f 134 144 145 135
f 135 145 146 136
f 136 146 147 137
f 137 147 148 138
f 138 148 149 139
f 139 149 150 140
f 140 150 151 141
f 141 151 152 142
f 142 152 143 133

o Left_Eye
g Left_Eye
usemtl Eye_Cyan
v -0.1 2.405 0.29
v -0.1 2.405 0.29
v -0.1 2.405 0.29
v -0.1 2.405 0.29
v -0.1 2.405 0.29
v -0.1 2.405 0.29
v -0.1 2.405 0.29
v -0.1 2.405 0.29
v -0.1 2.405 0.29
v -0.1 2.405 0.29
v -0.07355 2.392586 0.29
v -0.078601 2.392586 0.298637
v -0.091826 2.392586 0.303975
v -0.108174 2.392586 0.303975
v -0.121399 2.392586 0.298637
v -0.12645 2.392586 0.29
v -0.121399 2.392586 0.281363
v -0.108174 2.392586 0.276025
v -0.091826 2.392586 0.276025
v -0.078601 2.392586 0.281363
v -0.057202 2.360086 0.29
v -0.065376 2.360086 0.303975
v -0.086775 2.360086 0.312613
v -0.113225 2.360086 0.312613
v -0.134624 2.360086 0.303975
v -0.142798 2.360086 0.29
v -0.134624 2.360086 0.276025
v -0.113225 2.360086 0.267387
v -0.086775 2.360086 0.267387
v -0.065376 2.360086 0.276025
v -0.057202 2.319914 0.29
v -0.065376 2.319914 0.303975
v -0.086775 2.319914 0.312613
v -0.113225 2.319914 0.312613
v -0.134624 2.319914 0.303975
v -0.142798 2.319914 0.29
v -0.134624 2.319914 0.276025
v -0.113225 2.319914 0.267387
v -0.086775 2.319914 0.267387
v -0.065376 2.319914 0.276025
v -0.07355 2.287414 0.29
v -0.078601 2.287414 0.298637
v -0.091826 2.287414 0.303975
v -0.108174 2.287414 0.303975
v -0.121399 2.287414 0.298637
v -0.12645 2.287414 0.29
v -0.121399 2.287414 0.281363
v -0.108174 2.287414 0.276025
v -0.091826 2.287414 0.276025
v -0.078601 2.287414 0.281363
v -0.1 2.275 0.29
v -0.1 2.275 0.29
v -0.1 2.275 0.29
v -0.1 2.275 0.29
v -0.1 2.275 0.29
v -0.1 2.275 0.29
v -0.1 2.275 0.29
v -0.1 2.275 0.29
v -0.1 2.275 0.29
v -0.1 2.275 0.29
f 153 163 164 154
f 154 164 165 155
f 155 165 166 156
f 156 166 167 157
f 157 167 168 158
f 158 168 169 159
f 159 169 170 160
f 160 170 171 161
f 161 171 172 162
f 162 172 163 153
f 163 173 174 164
f 164 174 175 165
f 165 175 176 166
f 166 176 177 167
f 167 177 178 168
f 168 178 179 169
f 169 179 180 170
f 170 180 181 171
f 171 181 182 172
f 172 182 173 163
f 173 183 184 174
f 174 184 185 175
f 175 185 186 176
f 176 186 187 177
f 177 187 188 178
f 178 188 189 179
f 179 189 190 180
f 180 190 191 181
f 181 191 192 182
f 182 192 183 173
f 183 193 194 184
f 184 194 195 185
f 185 195 196 186
f 186 196 197 187
f 187 197 198 188
f 188 198 199 189
f 189 199 200 190
f 190 200 201 191
f 191 201 202 192
f 192 202 193 183
f 193 203 204 194
f 194 204 205 195
f 195 205 206 196
f 196 206 207 197
f 197 207 208 198
f 198 208 209 199
f 199 209 210 200
f 200 210 211 201
f 201 211 212 202
f 202 212 203 193

o Right_Eye
g Right_Eye
usemtl Eye_Cyan
v 0.1 2.405 0.29
v 0.1 2.405 0.29
v 0.1 2.405 0.29
v 0.1 2.405 0.29
v 0.1 2.405 0.29
v 0.1 2.405 0.29
v 0.1 2.405 0.29
v 0.1 2.405 0.29
v 0.1 2.405 0.29
v 0.1 2.405 0.29
v 0.12645 2.392586 0.29
v 0.121399 2.392586 0.298637
v 0.108174 2.392586 0.303975
v 0.091826 2.392586 0.303975
v 0.078601 2.392586 0.298637
v 0.07355 2.392586 0.29
v 0.078601 2.392586 0.281363
v 0.091826 2.392586 0.276025
v 0.108174 2.392586 0.276025
v 0.121399 2.392586 0.281363
v 0.142798 2.360086 0.29
v 0.134624 2.360086 0.303975
v 0.113225 2.360086 0.312613
v 0.086775 2.360086 0.312613
v 0.065376 2.360086 0.303975
v 0.057202 2.360086 0.29
v 0.065376 2.360086 0.276025
v 0.086775 2.360086 0.267387
v 0.113225 2.360086 0.267387
v 0.134624 2.360086 0.276025
v 0.142798 2.319914 0.29
v 0.134624 2.319914 0.303975
v 0.113225 2.319914 0.312613
v 0.086775 2.319914 0.312613
v 0.065376 2.319914 0.303975
v 0.057202 2.319914 0.29
v 0.065376 2.319914 0.276025
v 0.086775 2.319914 0.267387
v 0.113225 2.319914 0.267387
v 0.134624 2.319914 0.276025
v 0.12645 2.287414 0.29
v 0.121399 2.287414 0.298637
v 0.108174 2.287414 0.303975
v 0.091826 2.287414 0.303975
v 0.078601 2.287414 0.298637
v 0.07355 2.287414 0.29
v 0.078601 2.287414 0.281363
v 0.091826 2.287414 0.276025
v 0.108174 2.287414 0.276025
v 0.121399 2.287414 0.281363
v 0.1 2.275 0.29
v 0.1 2.275 0.29
v 0.1 2.275 0.29
v 0.1 2.275 0.29
v 0.1 2.275 0.29
v 0.1 2.275 0.29
v 0.1 2.275 0.29
v 0.1 2.275 0.29
v 0.1 2.275 0.29
v 0.1 2.275 0.29
f 213 223 224 214
f 214 224 225 215
f 215 225 226 216
f 216 226 227 217
f 217 227 228 218
f 218 228 229 219
f 219 229 230 220
f 220 230 231 221
f 221 231 232 222
f 222 232 223 213
f 223 233 234 224
f 224 234 235 225
f 225 235 236 226
f 226 236 237 227
f 227 237 238 228
f 228 238 239 229
f 229 239 240 230
f 230 240 241 231
f 231 241 242 232
f 232 242 233 223
f 233 243 244 234
f 234 244 245 235
f 235 245 246 236
f 236 246 247 237
f 237 247 248 238
f 238 248 249 239
f 239 249 250 240
f 240 250 251 241
f 241 251 252 242
f 242 252 243 233
f 243 253 254 244
f 244 254 255 245
f 245 255 256 246
f 246 256 257 247
f 247 257 258 248
f 248 258 259 249
f 249 259 260 250
f 250 260 261 251
f 251 261 262 252
f 252 262 253 243
f 253 263 264 254
f 254 264 265 255
f 255 265 266 256
f 256 266 267 257
f 257 267 268 258
f 258 268 269 259
f 259 269 270 260
f 260 270 271 261
f 261 271 272 262
f 262 272 263 253

o L_Upper_Arm
g L_Upper_Arm
usemtl Charlotte_Skin
v -0.46 1.96 -0.13
v -0.377781 1.91889 -0.091924
v -0.343725 1.901862 0
v -0.377781 1.91889 0.091924
v -0.46 1.96 0.13
v -0.542219 2.00111 0.091924
v -0.576276 2.018138 -0
v -0.542219 2.00111 -0.091924
v -0.65 1.58 -0.13
v -0.567781 1.53889 -0.091924
v -0.533724 1.521862 0
v -0.567781 1.53889 0.091924
v -0.65 1.58 0.13
v -0.732219 1.621109 0.091924
v -0.766276 1.638138 -0
v -0.732219 1.621109 -0.091924
f 280 279 278 277 276 275 274 273
f 281 282 283 284 285 286 287 288
f 273 274 282 281
f 274 275 283 282
f 275 276 284 283
f 276 277 285 284
f 277 278 286 285
f 278 279 287 286
f 279 280 288 287
f 280 273 281 288

o R_Upper_Arm
g R_Upper_Arm
usemtl Charlotte_Skin
v 0.46 1.96 0.13
v 0.377781 1.91889 0.091924
v 0.343725 1.901862 -0
v 0.377781 1.91889 -0.091924
v 0.46 1.96 -0.13
v 0.542219 2.00111 -0.091924
v 0.576276 2.018138 0
v 0.542219 2.00111 0.091924
v 0.65 1.58 0.13
v 0.567781 1.53889 0.091924
v 0.533724 1.521862 -0
v 0.567781 1.53889 -0.091924
v 0.65 1.58 -0.13
v 0.732219 1.621109 -0.091924
v 0.766276 1.638138 0
v 0.732219 1.621109 0.091924
f 296 295 294 293 292 291 290 289
f 297 298 299 300 301 302 303 304
f 289 290 298 297
f 290 291 299 298
f 291 292 300 299
f 292 293 301 300
f 293 294 302 301
f 294 295 303 302
f 295 296 304 303
f 296 289 297 304

o L_Forearm
g L_Forearm
usemtl Charlotte_Skin
v -0.65 1.58589 0.114849
v -0.728271 1.606183 0.080081
v -0.760692 1.611139 -0.001597
v -0.728271 1.597854 -0.08234
v -0.65 1.57411 -0.114849
v -0.571729 1.553817 -0.080081
v -0.539308 1.548861 0.001597
v -0.571729 1.562146 0.08234
v -0.76 1.19589 0.134849
v -0.838271 1.216183 0.100081
v -0.870692 1.221139 0.018403
v -0.838271 1.207854 -0.06234
v -0.76 1.18411 -0.094849
v -0.681729 1.163817 -0.060081
v -0.649308 1.158861 0.021597
v -0.681729 1.172146 0.10234
f 312 311 310 309 308 307 306 305
f 313 314 315 316 317 318 319 320
f 305 306 314 313
f 306 307 315 314
f 307 308 316 315
f 308 309 317 316
f 309 310 318 317
f 310 311 319 318
f 311 312 320 319
f 312 305 313 320

o R_Forearm
g R_Forearm
usemtl Charlotte_Skin
v 0.65 1.58589 0.114849
v 0.571729 1.562146 0.08234
v 0.539308 1.548861 0.001597
v 0.571729 1.553817 -0.080081
v 0.65 1.57411 -0.114849
v 0.728271 1.597854 -0.08234
v 0.760692 1.611139 -0.001597
v 0.728271 1.606183 0.080081
v 0.76 1.19589 0.134849
v 0.681729 1.172146 0.10234
v 0.649308 1.158861 0.021597
v 0.681729 1.163817 -0.060081
v 0.76 1.18411 -0.094849
v 0.838271 1.207854 -0.06234
v 0.870692 1.221139 0.018403
v 0.838271 1.216183 0.100081
f 328 327 326 325 324 323 322 321
f 329 330 331 332 333 334 335 336
f 321 322 330 329
f 322 323 331 330
f 323 324 332 331
f 324 325 333 332
f 325 326 334 333
f 326 327 335 334
f 327 328 336 335
f 328 321 329 336

o L_Glove
g L_Glove
usemtl Charlotte_Crimson
v -0.76 1.36 0.02
v -0.76 1.36 0.02
v -0.76 1.36 0.02
v -0.76 1.36 0.02
v -0.76 1.36 0.02
v -0.76 1.36 0.02
v -0.76 1.36 0.02
v -0.76 1.36 0.02
v -0.76 1.36 0.02
v -0.76 1.36 0.02
v -0.67771 1.327533 0.02
v -0.693426 1.327533 0.064914
v -0.734571 1.327533 0.092672
v -0.785429 1.327533 0.092672
v -0.826574 1.327533 0.064914
v -0.84229 1.327533 0.02
v -0.826574 1.327533 -0.024914
v -0.785429 1.327533 -0.052672
v -0.734571 1.327533 -0.052672
v -0.693426 1.327533 -0.024914
v -0.626852 1.242533 0.02
v -0.652281 1.242533 0.092672
v -0.718855 1.242533 0.137586
v -0.801145 1.242533 0.137586
v -0.867719 1.242533 0.092672
v -0.893148 1.242533 0.02
v -0.867719 1.242533 -0.052672
v -0.801145 1.242533 -0.097586
v -0.718855 1.242533 -0.097586
v -0.652281 1.242533 -0.052672
v -0.626852 1.137467 0.02
v -0.652281 1.137467 0.092672
v -0.718855 1.137467 0.137586
v -0.801145 1.137467 0.137586
v -0.867719 1.137467 0.092672
v -0.893148 1.137467 0.02
v -0.867719 1.137467 -0.052672
v -0.801145 1.137467 -0.097586
v -0.718855 1.137467 -0.097586
v -0.652281 1.137467 -0.052672
v -0.67771 1.052467 0.02
v -0.693426 1.052467 0.064914
v -0.734571 1.052467 0.092672
v -0.785429 1.052467 0.092672
v -0.826574 1.052467 0.064914
v -0.84229 1.052467 0.02
v -0.826574 1.052467 -0.024914
v -0.785429 1.052467 -0.052672
v -0.734571 1.052467 -0.052672
v -0.693426 1.052467 -0.024914
v -0.76 1.02 0.02
v -0.76 1.02 0.02
v -0.76 1.02 0.02
v -0.76 1.02 0.02
v -0.76 1.02 0.02
v -0.76 1.02 0.02
v -0.76 1.02 0.02
v -0.76 1.02 0.02
v -0.76 1.02 0.02
v -0.76 1.02 0.02
f 337 347 348 338
f 338 348 349 339
f 339 349 350 340
f 340 350 351 341
f 341 351 352 342
f 342 352 353 343
f 343 353 354 344
f 344 354 355 345
f 345 355 356 346
f 346 356 347 337
f 347 357 358 348
f 348 358 359 349
f 349 359 360 350
f 350 360 361 351
f 351 361 362 352
f 352 362 363 353
f 353 363 364 354
f 354 364 365 355
f 355 365 366 356
f 356 366 357 347
f 357 367 368 358
f 358 368 369 359
f 359 369 370 360
f 360 370 371 361
f 361 371 372 362
f 362 372 373 363
f 363 373 374 364
f 364 374 375 365
f 365 375 376 366
f 366 376 367 357
f 367 377 378 368
f 368 378 379 369
f 369 379 380 370
f 370 380 381 371
f 371 381 382 372
f 372 382 383 373
f 373 383 384 374
f 374 384 385 375
f 375 385 386 376
f 376 386 377 367
f 377 387 388 378
f 378 388 389 379
f 379 389 390 380
f 380 390 391 381
f 381 391 392 382
f 382 392 393 383
f 383 393 394 384
f 384 394 395 385
f 385 395 396 386
f 386 396 387 377

o R_Glove
g R_Glove
usemtl Charlotte_Crimson
v 0.76 1.36 0.02
v 0.76 1.36 0.02
v 0.76 1.36 0.02
v 0.76 1.36 0.02
v 0.76 1.36 0.02
v 0.76 1.36 0.02
v 0.76 1.36 0.02
v 0.76 1.36 0.02
v 0.76 1.36 0.02
v 0.76 1.36 0.02
v 0.84229 1.327533 0.02
v 0.826574 1.327533 0.064914
v 0.785429 1.327533 0.092672
v 0.734571 1.327533 0.092672
v 0.693426 1.327533 0.064914
v 0.67771 1.327533 0.02
v 0.693426 1.327533 -0.024914
v 0.734571 1.327533 -0.052672
v 0.785429 1.327533 -0.052672
v 0.826574 1.327533 -0.024914
v 0.893148 1.242533 0.02
v 0.867719 1.242533 0.092672
v 0.801145 1.242533 0.137586
v 0.718855 1.242533 0.137586
v 0.652281 1.242533 0.092672
v 0.626852 1.242533 0.02
v 0.652281 1.242533 -0.052672
v 0.718855 1.242533 -0.097586
v 0.801145 1.242533 -0.097586
v 0.867719 1.242533 -0.052672
v 0.893148 1.137467 0.02
v 0.867719 1.137467 0.092672
v 0.801145 1.137467 0.137586
v 0.718855 1.137467 0.137586
v 0.652281 1.137467 0.092672
v 0.626852 1.137467 0.02
v 0.652281 1.137467 -0.052672
v 0.718855 1.137467 -0.097586
v 0.801145 1.137467 -0.097586
v 0.867719 1.137467 -0.052672
v 0.84229 1.052467 0.02
v 0.826574 1.052467 0.064914
v 0.785429 1.052467 0.092672
v 0.734571 1.052467 0.092672
v 0.693426 1.052467 0.064914
v 0.67771 1.052467 0.02
v 0.693426 1.052467 -0.024914
v 0.734571 1.052467 -0.052672
v 0.785429 1.052467 -0.052672
v 0.826574 1.052467 -0.024914
v 0.76 1.02 0.02
v 0.76 1.02 0.02
v 0.76 1.02 0.02
v 0.76 1.02 0.02
v 0.76 1.02 0.02
v 0.76 1.02 0.02
v 0.76 1.02 0.02
v 0.76 1.02 0.02
v 0.76 1.02 0.02
v 0.76 1.02 0.02
f 397 407 408 398
f 398 408 409 399
f 399 409 410 400
f 400 410 411 401
f 401 411 412 402
f 402 412 413 403
f 403 413 414 404
f 404 414 415 405
f 405 415 416 406
f 406 416 407 397
f 407 417 418 408
f 408 418 419 409
f 409 419 420 410
f 410 420 421 411
f 411 421 422 412
f 412 422 423 413
f 413 423 424 414
f 414 424 425 415
f 415 425 426 416
f 416 426 417 407
f 417 427 428 418
f 418 428 429 419
f 419 429 430 420
f 420 430 431 421
f 421 431 432 422
f 422 432 433 423
f 423 433 434 424
f 424 434 435 425
f 425 435 436 426
f 426 436 427 417
f 427 437 438 428
f 428 438 439 429
f 429 439 440 430
f 430 440 441 431
f 431 441 442 432
f 432 442 443 433
f 433 443 444 434
f 434 444 445 435
f 435 445 446 436
f 436 446 437 427
f 437 447 448 438
f 438 448 449 439
f 439 449 450 440
f 440 450 451 441
f 441 451 452 442
f 442 452 453 443
f 443 453 454 444
f 444 454 455 445
f 445 455 456 446
f 446 456 447 437

o L_Thigh
g L_Thigh
usemtl Charlotte_Skin
v -0.22 1.24 0.18
v -0.347182 1.244987 0.127279
v -0.399862 1.247053 -0
v -0.347182 1.244987 -0.127279
v -0.22 1.24 -0.18
v -0.092819 1.235013 -0.127279
v -0.040138 1.232947 0
v -0.092819 1.235013 0.127279
v -0.24 0.73 0.18
v -0.367182 0.734988 0.127279
v -0.419862 0.737053 -0
v -0.367182 0.734988 -0.127279
v -0.24 0.73 -0.18
v -0.112819 0.725013 -0.127279
v -0.060138 0.722947 0
v -0.112819 0.725013 0.127279
f 464 463 462 461 460 459 458 457
f 465 466 467 468 469 470 471 472
f 457 458 466 465
f 458 459 467 466
f 459 460 468 467
f 460 461 469 468
f 461 462 470 469
f 462 463 471 470
f 463 464 472 471
f 464 457 465 472

o R_Thigh
g R_Thigh
usemtl Charlotte_Skin
v 0.22 1.24 0.18
v 0.092819 1.235013 0.127279
v 0.040138 1.232947 -0
v 0.092819 1.235013 -0.127279
v 0.22 1.24 -0.18
v 0.347182 1.244987 -0.127279
v 0.399862 1.247053 0
v 0.347181 1.244987 0.127279
v 0.24 0.73 0.18
v 0.112819 0.725013 0.127279
v 0.060138 0.722947 -0
v 0.112819 0.725013 -0.127279
v 0.24 0.73 -0.18
v 0.367182 0.734988 -0.127279
v 0.419862 0.737053 0
v 0.367181 0.734988 0.127279
f 480 479 478 477 476 475 474 473
f 481 482 483 484 485 486 487 488
f 473 474 482 481
f 474 475 483 482
f 475 476 484 483
f 476 477 485 484
f 477 478 486 485
f 478 479 487 486
f 479 480 488 487
f 480 473 481 488

o L_Shin
g L_Shin
usemtl Charlotte_Skin
v -0.24 0.73 0.145
v -0.342531 0.73 0.102531
v -0.385 0.73 -0
v -0.342531 0.73 -0.102531
v -0.24 0.73 -0.145
v -0.13747 0.73 -0.102531
v -0.095 0.73 0
v -0.13747 0.73 0.102531
v -0.24 0.24 0.145
v -0.342531 0.24 0.102531
v -0.385 0.24 -0
v -0.342531 0.24 -0.102531
v -0.24 0.24 -0.145
v -0.13747 0.24 -0.102531
v -0.095 0.24 0
v -0.13747 0.24 0.102531
f 496 495 494 493 492 491 490 489
f 497 498 499 500 501 502 503 504
f 489 490 498 497
f 490 491 499 498
f 491 492 500 499
f 492 493 501 500
f 493 494 502 501
f 494 495 503 502
f 495 496 504 503
f 496 489 497 504

o R_Shin
g R_Shin
usemtl Charlotte_Skin
v 0.24 0.73 0.145
v 0.13747 0.73 0.102531
v 0.095 0.73 -0
v 0.13747 0.73 -0.102531
v 0.24 0.73 -0.145
v 0.342531 0.73 -0.102531
v 0.385 0.73 0
v 0.34253 0.73 0.102531
v 0.24 0.24 0.145
v 0.13747 0.24 0.102531
v 0.095 0.24 -0
v 0.13747 0.24 -0.102531
v 0.24 0.24 -0.145
v 0.342531 0.24 -0.102531
v 0.385 0.24 0
v 0.34253 0.24 0.102531
f 512 511 510 509 508 507 506 505
f 513 514 515 516 517 518 519 520
f 505 506 514 513
f 506 507 515 514
f 507 508 516 515
f 508 509 517 516
f 509 510 518 517
f 510 511 519 518
f 511 512 520 519
f 512 505 513 520

o L_Shoe
g L_Shoe
usemtl Charlotte_Navy
v -0.41 0.03 -0.13
v -0.07 0.03 -0.13
v -0.07 0.21 -0.13
v -0.41 0.21 -0.13
v -0.41 0.03 0.41
v -0.07 0.03 0.41
v -0.07 0.21 0.41
v -0.41 0.21 0.41
f 521 524 523 522
f 525 526 527 528
f 521 522 526 525
f 524 528 527 523
f 522 523 527 526
f 521 525 528 524

o R_Shoe
g R_Shoe
usemtl Charlotte_Navy
v 0.07 0.03 -0.13
v 0.41 0.03 -0.13
v 0.41 0.21 -0.13
v 0.07 0.21 -0.13
v 0.07 0.03 0.41
v 0.41 0.03 0.41
v 0.41 0.21 0.41
v 0.07 0.21 0.41
f 529 532 531 530
f 533 534 535 536
f 529 530 534 533
f 532 536 535 531
f 530 531 535 534
f 529 533 536 532

o Left_Horn
g Left_Horn
usemtl Charlotte_Gold
v -0.17 2.525333 -0.088446
v -0.21673 2.513672 -0.064979
v -0.236086 2.517434 -0.015164
v -0.21673 2.534415 0.031818
v -0.17 2.554667 0.048446
v -0.12327 2.566328 0.024979
v -0.103914 2.562566 -0.024836
v -0.12327 2.545585 -0.071818
v -0.27 2.805333 -0.148446
v -0.31673 2.793672 -0.12498
v -0.336086 2.797434 -0.075164
v -0.31673 2.814415 -0.028182
v -0.27 2.834667 -0.011554
v -0.22327 2.846328 -0.035021
v -0.203914 2.842566 -0.084836
v -0.22327 2.825585 -0.131818
f 544 543 542 541 540 539 538 537
f 545 546 547 548 549 550 551 552
f 537 538 546 545
f 538 539 547 546
f 539 540 548 547
f 540 541 549 548
f 541 542 550 549
f 542 543 551 550
f 543 544 552 551
f 544 537 545 552

o Right_Horn
g Right_Horn
usemtl Charlotte_Gold
v 0.17 2.525333 -0.088446
v 0.12327 2.545585 -0.071818
v 0.103914 2.562566 -0.024836
v 0.12327 2.566328 0.024979
v 0.17 2.554667 0.048446
v 0.21673 2.534415 0.031818
v 0.236086 2.517434 -0.015164
v 0.21673 2.513672 -0.064979
v 0.27 2.805333 -0.148446
v 0.22327 2.825585 -0.131818
v 0.203914 2.842566 -0.084836
v 0.22327 2.846328 -0.035021
v 0.27 2.834667 -0.011554
v 0.31673 2.814415 -0.028182
v 0.336086 2.797434 -0.075164
v 0.31673 2.793672 -0.12498
f 560 559 558 557 556 555 554 553
f 561 562 563 564 565 566 567 568
f 553 554 562 561
f 554 555 563 562
f 555 556 564 563
f 556 557 565 564
f 557 558 566 565
f 558 559 567 566
f 559 560 568 567
f 560 553 561 568

o Hair_Tuft_1
g Hair_Tuft_1
usemtl Charlotte_Red
v 0 2.97 -0.34
v 0 2.97 -0.34
v 0 2.97 -0.34
v 0 2.97 -0.34
v 0 2.97 -0.34
v 0 2.97 -0.34
v 0 2.97 -0.34
v 0 2.97 -0.34
v 0 2.97 -0.34
v 0 2.97 -0.34
v 0.141069 2.870689 -0.34
v 0.114127 2.870689 -0.277812
v 0.043593 2.870689 -0.239377
v -0.043593 2.870689 -0.239377
v -0.114127 2.870689 -0.277812
v -0.141069 2.870689 -0.34
v -0.114127 2.870689 -0.402189
v -0.043593 2.870689 -0.440623
v 0.043593 2.870689 -0.440623
v 0.114127 2.870689 -0.402189
v 0.228254 2.610689 -0.34
v 0.184661 2.610689 -0.239377
v 0.070534 2.610689 -0.177189
v -0.070534 2.610689 -0.177189
v -0.184661 2.610689 -0.239377
v -0.228254 2.610689 -0.34
v -0.184661 2.610689 -0.440623
v -0.070534 2.610689 -0.502812
v 0.070534 2.610689 -0.502812
v 0.184661 2.610689 -0.440623
v 0.228254 2.289311 -0.34
v 0.184661 2.289311 -0.239377
v 0.070534 2.289311 -0.177189
v -0.070534 2.289311 -0.177189
v -0.184661 2.289311 -0.239377
v -0.228254 2.289311 -0.34
v -0.184661 2.289311 -0.440623
v -0.070534 2.289311 -0.502812
v 0.070534 2.289311 -0.502812
v 0.184661 2.289311 -0.440623
v 0.141068 2.029311 -0.34
v 0.114127 2.029311 -0.277812
v 0.043593 2.029311 -0.239377
v -0.043593 2.029311 -0.239377
v -0.114127 2.029311 -0.277812
v -0.141068 2.029311 -0.34
v -0.114127 2.029311 -0.402189
v -0.043593 2.029311 -0.440623
v 0.043593 2.029311 -0.440623
v 0.114127 2.029311 -0.402189
v -0 1.93 -0.34
v -0 1.93 -0.34
v -0 1.93 -0.34
v 0 1.93 -0.34
v 0 1.93 -0.34
v 0 1.93 -0.34
v 0 1.93 -0.34
v 0 1.93 -0.34
v -0 1.93 -0.34
v -0 1.93 -0.34
f 569 579 580 570
f 570 580 581 571
f 571 581 582 572
f 572 582 583 573
f 573 583 584 574
f 574 584 585 575
f 575 585 586 576
f 576 586 587 577
f 577 587 588 578
f 578 588 579 569
f 579 589 590 580
f 580 590 591 581
f 581 591 592 582
f 582 592 593 583
f 583 593 594 584
f 584 594 595 585
f 585 595 596 586
f 586 596 597 587
f 587 597 598 588
f 588 598 589 579
f 589 599 600 590
f 590 600 601 591
f 591 601 602 592
f 592 602 603 593
f 593 603 604 594
f 594 604 605 595
f 595 605 606 596
f 596 606 607 597
f 597 607 608 598
f 598 608 599 589
f 599 609 610 600
f 600 610 611 601
f 601 611 612 602
f 602 612 613 603
f 603 613 614 604
f 604 614 615 605
f 605 615 616 606
f 606 616 617 607
f 607 617 618 608
f 608 618 609 599
f 609 619 620 610
f 610 620 621 611
f 611 621 622 612
f 612 622 623 613
f 613 623 624 614
f 614 624 625 615
f 615 625 626 616
f 616 626 627 617
f 617 627 628 618
f 618 628 619 609

o L_Shoulder_Armor
g L_Shoulder_Armor
usemtl Charlotte_Gold
v -0.649592 1.873591 -0.19
v -0.356148 1.811217 -0.19
v -0.310408 2.02641 -0.19
v -0.603852 2.088783 -0.19
v -0.649592 1.873591 0.19
v -0.356148 1.811217 0.19
v -0.310408 2.02641 0.19
v -0.603852 2.088783 0.19
f 629 632 631 630
f 633 634 635 636
f 629 630 634 633
f 632 636 635 631
f 630 631 635 634
f 629 633 636 632

o R_Shoulder_Armor
g R_Shoulder_Armor
usemtl Charlotte_Gold
v 0.356148 1.811217 -0.19
v 0.649592 1.873591 -0.19
v 0.603852 2.088783 -0.19
v 0.310408 2.02641 -0.19
v 0.356148 1.811217 0.19
v 0.649592 1.873591 0.19
v 0.603852 2.088783 0.19
v 0.310408 2.02641 0.19
f 637 640 639 638
f 641 642 643 644
f 637 638 642 641
f 640 644 643 639
f 638 639 643 642
f 637 641 644 640

o Tail_0
g Tail_0
usemtl Charlotte_Crimson
v 0.130736 1.32 -0.086461
v 0.065717 1.229017 -0.060484
v -0.037799 1.191331 -0.092802
v -0.119172 1.229017 -0.164484
v -0.130736 1.32 -0.233539
v -0.065717 1.410983 -0.259516
v 0.037799 1.448669 -0.227198
v 0.119172 1.410983 -0.155516
v 0.310736 1.1 -0.406461
v 0.245717 1.009017 -0.380484
v 0.142201 0.971331 -0.412802
v 0.060828 1.009017 -0.484484
v 0.049264 1.1 -0.553539
v 0.114283 1.190983 -0.579516
v 0.217799 1.228669 -0.547198
v 0.299172 1.190983 -0.475516
f 652 651 650 649 648 647 646 645
f 653 654 655 656 657 658 659 660
f 645 646 654 653
f 646 647 655 654
f 647 648 656 655
f 648 649 657 656
f 649 650 658 657
f 650 651 659 658
f 651 652 660 659
f 652 645 653 660

o Tail_1
g Tail_1
usemtl Charlotte_Gold
v 0.2824 1.1 -0.4032
v 0.218483 1.029324 -0.380462
v 0.132023 1.000049 -0.416031
v 0.073668 1.029324 -0.489073
v 0.0776 1.1 -0.5568
v 0.141517 1.170676 -0.579539
v 0.227977 1.199951 -0.543969
v 0.286332 1.170676 -0.470927
v 0.4624 0.86 -0.6432
v 0.398483 0.789324 -0.620462
v 0.312023 0.760049 -0.656031
v 0.253668 0.789324 -0.729073
v 0.2576 0.86 -0.7968
v 0.321517 0.930676 -0.819539
v 0.407977 0.959951 -0.783969
v 0.466332 0.930676 -0.710927
f 668 667 666 665 664 663 662 661
f 669 670 671 672 673 674 675 676
f 661 662 670 669
f 662 663 671 670
f 663 664 672 671
f 664 665 673 672
f 665 666 674 673
f 666 667 675 674
f 667 668 676 675
f 668 661 669 676

o Tail_2
g Tail_2
usemtl Charlotte_Crimson
v 0.425489 0.86 -0.63665
v 0.356574 0.819781 -0.621986
v 0.289666 0.803122 -0.664737
v 0.263958 0.819781 -0.739861
v 0.294511 0.86 -0.80335
v 0.363426 0.900219 -0.818014
v 0.430335 0.916878 -0.775263
v 0.456042 0.900219 -0.70014
v 0.565489 0.58 -0.74665
v 0.496574 0.539781 -0.731986
v 0.429665 0.523122 -0.774737
v 0.403958 0.539781 -0.84986
v 0.434511 0.58 -0.91335
v 0.503426 0.620219 -0.928014
v 0.570335 0.636878 -0.885263
v 0.596042 0.620219 -0.81014
f 684 683 682 681 680 679 678 677
f 685 686 687 688 689 690 691 692
f 677 678 686 685
f 678 679 687 686
f 679 680 688 687
f 680 681 689 688
f 681 682 690 689
f 682 683 691 690
f 683 684 692 691
f 684 677 685 692

o Tail_3
g Tail_3
usemtl Charlotte_Gold
v 0.421599 0.58 -0.799846
v 0.425767 0.551952 -0.857545
v 0.47342 0.540334 -0.899109
v 0.536643 0.551952 -0.90019
v 0.578401 0.58 -0.860154
v 0.574233 0.608048 -0.802455
v 0.526581 0.619666 -0.760891
v 0.463357 0.608048 -0.75981
v 0.471599 0.32 -0.669846
v 0.475767 0.291952 -0.727545
v 0.52342 0.280334 -0.769109
v 0.586643 0.291952 -0.77019
v 0.628401 0.32 -0.730154
v 0.624233 0.348048 -0.672455
v 0.576581 0.359666 -0.630891
v 0.513357 0.348048 -0.62981
f 700 699 698 697 696 695 694 693
f 701 702 703 704 705 706 707 708
f 693 694 702 701
f 694 695 703 702
f 695 696 704 703
f 696 697 705 704
f 697 698 706 705
f 698 699 707 706
f 699 700 708 707
f 700 693 701 708

o Racket_Handle
g Racket_Handle
usemtl Charlotte_Gold
v 1.04 0.58 0.065
v 1.001109 0.58 0.081109
v 0.985 0.58 0.12
v 1.001109 0.58 0.158891
v 1.04 0.58 0.175
v 1.078891 0.58 0.158891
v 1.095 0.58 0.12
v 1.078891 0.58 0.081109
v 1.04 1.2 0.065
v 1.001109 1.2 0.081109
v 0.985 1.2 0.12
v 1.001109 1.2 0.158891
v 1.04 1.2 0.175
v 1.078891 1.2 0.158891
v 1.095 1.2 0.12
v 1.078891 1.2 0.081109
f 716 715 714 713 712 711 710 709
f 717 718 719 720 721 722 723 724
f 709 710 718 717
f 710 711 719 718
f 711 712 720 719
f 712 713 721 720
f 713 714 722 721
f 714 715 723 722
f 715 716 724 723
f 716 709 717 724

o Racket_Frame
g Racket_Frame
usemtl Charlotte_Crimson
v 1.385 1.57 0.12
v 1.35 1.57 0.155
v 1.315 1.57 0.12
v 1.35 1.57 0.085
v 1.350834 1.767417 0.12
v 1.3193 1.752231 0.155
v 1.287766 1.737045 0.12
v 1.3193 1.752231 0.085
v 1.255104 1.925733 0.12
v 1.233282 1.898369 0.155
v 1.21146 1.871005 0.12
v 1.233282 1.898369 0.085
v 1.11677 2.013592 0.12
v 1.108981 1.97947 0.155
v 1.101193 1.945347 0.12
v 1.108981 1.97947 0.085
v 0.96323 2.013592 0.12
v 0.971019 1.97947 0.155
v 0.978807 1.945347 0.12
v 0.971019 1.97947 0.085
v 0.824896 1.925733 0.12
v 0.846718 1.898369 0.155
v 0.86854 1.871005 0.12
v 0.846718 1.898369 0.085
v 0.729166 1.767417 0.12
v 0.7607 1.752231 0.155
v 0.792234 1.737045 0.12
v 0.7607 1.752231 0.085
v 0.695 1.57 0.12
v 0.73 1.57 0.155
v 0.765 1.57 0.12
v 0.73 1.57 0.085
v 0.729166 1.372583 0.12
v 0.7607 1.387769 0.155
v 0.792234 1.402955 0.12
v 0.7607 1.387769 0.085
v 0.824896 1.214267 0.12
v 0.846718 1.241631 0.155
v 0.86854 1.268995 0.12
v 0.846718 1.241631 0.085
v 0.96323 1.126408 0.12
v 0.971019 1.16053 0.155
v 0.978807 1.194653 0.12
v 0.971019 1.16053 0.085
v 1.11677 1.126408 0.12
v 1.108982 1.16053 0.155
v 1.101193 1.194653 0.12
v 1.108982 1.16053 0.085
v 1.255104 1.214267 0.12
v 1.233282 1.241631 0.155
v 1.21146 1.268995 0.12
v 1.233282 1.241631 0.085
v 1.350834 1.372583 0.12
v 1.3193 1.387769 0.155
v 1.287766 1.402955 0.12
v 1.3193 1.387769 0.085
f 725 729 730 726
f 726 730 731 727
f 727 731 732 728
f 728 732 729 725
f 729 733 734 730
f 730 734 735 731
f 731 735 736 732
f 732 736 733 729
f 733 737 738 734
f 734 738 739 735
f 735 739 740 736
f 736 740 737 733
f 737 741 742 738
f 738 742 743 739
f 739 743 744 740
f 740 744 741 737
f 741 745 746 742
f 742 746 747 743
f 743 747 748 744
f 744 748 745 741
f 745 749 750 746
f 746 750 751 747
f 747 751 752 748
f 748 752 749 745
f 749 753 754 750
f 750 754 755 751
f 751 755 756 752
f 752 756 753 749
f 753 757 758 754
f 754 758 759 755
f 755 759 760 756
f 756 760 757 753
f 757 761 762 758
f 758 762 763 759
f 759 763 764 760
f 760 764 761 757
f 761 765 766 762
f 762 766 767 763
f 763 767 768 764
f 764 768 765 761
f 765 769 770 766
f 766 770 771 767
f 767 771 772 768
f 768 772 769 765
f 769 773 774 770
f 770 774 775 771
f 771 775 776 772
f 772 776 773 769
f 773 777 778 774
f 774 778 779 775
f 775 779 780 776
f 776 780 777 773
f 777 725 726 778
f 778 726 727 779
f 779 727 728 780
f 780 728 725 777

o Racket_Strings_H
g Racket_Strings_H
usemtl Paper
v 0.775 1.5575 0.1075
v 1.305 1.5575 0.1075
v 1.305 1.5825 0.1075
v 0.775 1.5825 0.1075
v 0.775 1.5575 0.1325
v 1.305 1.5575 0.1325
v 1.305 1.5825 0.1325
v 0.775 1.5825 0.1325
f 781 784 783 782
f 785 786 787 788
f 781 782 786 785
f 784 788 787 783
f 782 783 787 786
f 781 785 788 784

o Racket_Strings_V
g Racket_Strings_V
usemtl Paper
v 1.0275 1.21 0.1075
v 1.0525 1.21 0.1075
v 1.0525 1.93 0.1075
v 1.0275 1.93 0.1075
v 1.0275 1.21 0.1325
v 1.0525 1.21 0.1325
v 1.0525 1.93 0.1325
v 1.0275 1.93 0.1325
f 789 792 791 790
f 793 794 795 796
f 789 790 794 793
f 792 796 795 791
f 790 791 795 794
f 789 793 796 792
