# Pride Court deterministic low-poly character model
mtllib Lucia_Fairy_Model_v1.mtl
s off

o Torso
g Torso
usemtl Lucia_Green
v -0.34 1.36 -0.2
v 0.34 1.36 -0.2
v 0.34 2.08 -0.2
v -0.34 2.08 -0.2
v -0.34 1.36 0.2
v 0.34 1.36 0.2
v 0.34 2.08 0.2
v -0.34 2.08 0.2
f 1 4 3 2
f 5 6 7 8
f 1 2 6 5
f 4 8 7 3
f 2 3 7 6
f 1 5 8 4

o Chest_Accent
g Chest_Accent
usemtl Lucia_Magenta
v -0.12 1.49 0.1975
v 0.12 1.49 0.1975
v 0.12 2.07 0.1975
v -0.12 2.07 0.1975
v -0.12 1.49 0.2325
v 0.12 1.49 0.2325
v 0.12 2.07 0.2325
v -0.12 2.07 0.2325
f 9 12 11 10
f 13 14 15 16
f 9 10 14 13
f 12 16 15 11
f 10 11 15 14
f 9 13 16 12

o Shorts
g Shorts
usemtl Lucia_Green
v -0.38 1.1 -0.22
v 0.38 1.1 -0.22
v 0.38 1.42 -0.22
v -0.38 1.42 -0.22
v -0.38 1.1 0.22
v 0.38 1.1 0.22
v 0.38 1.42 0.22
v -0.38 1.42 0.22
f 17 20 19 18
f 21 22 23 24
f 17 18 22 21
f 20 24 23 19
f 18 19 23 22
f 17 21 24 20

o Waist_Dark
g Waist_Dark
usemtl Lucia_Magenta
v -0.39 1.37 -0.23
v 0.39 1.37 -0.23
v 0.39 1.49 -0.23
v -0.39 1.49 -0.23
v -0.39 1.37 0.23
v 0.39 1.37 0.23
v 0.39 1.49 0.23
v -0.39 1.49 0.23
f 25 28 27 26
f 29 30 31 32
f 25 26 30 29
f 28 32 31 27
f 26 27 31 30
f 25 29 32 28

o Head
g Head
usemtl Lucia_Skin
v 0 2.65 0
v 0 2.65 0
v 0 2.65 0
v 0 2.65 0
v 0 2.65 0
v 0 2.65 0
v 0 2.65 0
v 0 2.65 0
v 0 2.65 0
v 0 2.65 0
v 0.188091 2.579336 0
v 0.152169 2.579336 0.103647
v 0.058123 2.579336 0.167705
v -0.058123 2.579336 0.167705
v -0.152169 2.579336 0.103647
v -0.188091 2.579336 -0
v -0.152169 2.579336 -0.103648
v -0.058123 2.579336 -0.167705
v 0.058123 2.579336 -0.167705
v 0.152169 2.579336 -0.103648
v 0.304338 2.394336 0
v 0.246215 2.394336 0.167705
v 0.094046 2.394336 0.271353
v -0.094046 2.394336 0.271353
v -0.246215 2.394336 0.167705
v -0.304338 2.394336 -0
v -0.246215 2.394336 -0.167705
v -0.094046 2.394336 -0.271353
v 0.094046 2.394336 -0.271353
v 0.246215 2.394336 -0.167705
v 0.304338 2.165664 0
v 0.246215 2.165664 0.167705
v 0.094046 2.165664 0.271353
v -0.094046 2.165664 0.271353
v -0.246215 2.165664 0.167705
v -0.304338 2.165664 -0
v -0.246215 2.165664 -0.167705
v -0.094046 2.165664 -0.271353
v 0.094046 2.165664 -0.271353
v 0.246215 2.165664 -0.167705
v 0.188091 1.980664 0
v 0.152169 1.980664 0.103647
v 0.058123 1.980664 0.167705
v -0.058123 1.980664 0.167705
v -0.152169 1.980664 0.103647
v -0.188091 1.980664 -0
v -0.152169 1.980664 -0.103648
v -0.058123 1.980664 -0.167705
v 0.058123 1.980664 -0.167705
v 0.152169 1.980664 -0.103647
v -0 1.91 0
v -0 1.91 -0
v -0 1.91 -0
v 0 1.91 -0
v 0 1.91 -0
v 0 1.91 0
v 0 1.91 0
v 0 1.91 0
v -0 1.91 0
v -0 1.91 0
f 33 43 44 34
f 34 44 45 35
f 35 45 46 36
f 36 46 47 37
f 37 47 48 38
f 38 48 49 39
f 39 49 50 40
f 40 50 51 41
f 41 51 52 42
f 42 52 43 33
f 43 53 54 44
f 44 54 55 45
f 45 55 56 46
f 46 56 57 47
f 47 57 58 48
f 48 58 59 49
f 49 59 60 50
f 50 60 61 51
f 51 61 62 52
f 52 62 53 43
f 53 63 64 54
f 54 64 65 55
f 55 65 66 56
f 56 66 67 57
f 57 67 68 58
f 58 68 69 59
f 59 69 70 60
f 60 70 71 61
f 61 71 72 62
f 62 72 63 53
f 63 73 74 64
f 64 74 75 65
f 65 75 76 66
f 66 76 77 67
f 67 77 78 68
f 68 78 79 69
f 69 79 80 70
f 70 80 81 71
f 71 81 82 72
f 72 82 73 63
f 73 83 84 74
f 74 84 85 75
f 75 85 86 76
f 76 86 87 77
f 77 87 88 78
f 78 88 89 79
f 79 89 90 80
f 80 90 91 81
f 81 91 92 82
f 82 92 83 73

o Hair_Tuft_0
g Hair_Tuft_0
usemtl Lucia_Purple
v 0 2.68 -0.055
v 0 2.68 -0.055
v 0 2.68 -0.055
v 0 2.68 -0.055
v 0 2.68 -0.055
v 0 2.68 -0.055
v 0 2.68 -0.055
v 0 2.68 -0.055
v 0 2.68 -0.055
v 0 2.68 -0.055
v 0.217481 2.626525 -0.055
v 0.175946 2.626525 0.052102
v 0.067205 2.626525 0.118295
v -0.067205 2.626525 0.118295
v -0.175946 2.626525 0.052102
v -0.217481 2.626525 -0.055
v -0.175945 2.626525 -0.162102
v -0.067205 2.626525 -0.228295
v 0.067205 2.626525 -0.228295
v 0.175945 2.626525 -0.162102
v 0.351891 2.486525 -0.055
v 0.284686 2.486525 0.118295
v 0.10874 2.486525 0.225398
v -0.10874 2.486525 0.225398
v -0.284686 2.486525 0.118295
v -0.351891 2.486525 -0.055
v -0.284686 2.486525 -0.228295
v -0.10874 2.486525 -0.335398
v 0.10874 2.486525 -0.335398
v 0.284686 2.486525 -0.228295
v 0.351891 2.313475 -0.055
v 0.284686 2.313475 0.118295
v 0.10874 2.313475 0.225398
v -0.10874 2.313475 0.225398
v -0.284686 2.313475 0.118295
v -0.351891 2.313475 -0.055
v -0.284686 2.313475 -0.228295
v -0.10874 2.313475 -0.335398
v 0.10874 2.313475 -0.335398
v 0.284686 2.313475 -0.228295
v 0.217481 2.173475 -0.055
v 0.175945 2.173475 0.052102
v 0.067205 2.173475 0.118295
v -0.067205 2.173475 0.118295
v -0.175946 2.173475 0.052102
v -0.217481 2.173475 -0.055
v -0.175945 2.173475 -0.162102
v -0.067205 2.173475 -0.228295
v 0.067205 2.173475 -0.228295
v 0.175945 2.173475 -0.162102
v -0 2.12 -0.055
v -0 2.12 -0.055
v -0 2.12 -0.055
v 0 2.12 -0.055
v 0 2.12 -0.055
v 0 2.12 -0.055
v 0 2.12 -0.055
v 0 2.12 -0.055
v -0 2.12 -0.055
v -0 2.12 -0.055
f 93 103 104 94
f 94 104 105 95
f 95 105 106 96
f 96 106 107 97
f 97 107 108 98
f 98 108 109 99
f 99 109 110 100
f 100 110 111 101
f 101 111 112 102
f 102 112 103 93
f 103 113 114 104
f 104 114 115 105
f 105 115 116 106
f 106 116 117 107
f 107 117 118 108
f 108 118 119 109
f 109 119 120 110
f 110 120 121 111
f 111 121 122 112
f 112 122 113 103
f 113 123 124 114
f 114 124 125 115
f 115 125 126 116
f 116 126 127 117
f 117 127 128 118
f 118 128 129 119
f 119 129 130 120
f 120 130 131 121
f 121 131 132 122
f 122 132 123 113
f 123 133 134 124
f 124 134 135 125
f 125 135 136 126
f 126 136 137 127
f 127 137 138 128
f 128 138 139 129
f 129 139 140 130
f 130 140 141 131
f 131 141 142 132
f 132 142 133 123
f 133 143 144 134
f 134 144 145 135
f 135 145 146 136
f 136 146 147 137
f 137 147 148 138
f 138 148 149 139
f 139 149 150 140
f 140 150 151 141
f 141 151 152 142
f 142 152 143 133

o Left_Eye
g Left_Eye
usemtl Eye_Cyan
v -0.1 2.365 0.29
v -0.1 2.365 0.29
v -0.1 2.365 0.29
v -0.1 2.365 0.29
v -0.1 2.365 0.29
v -0.1 2.365 0.29
v -0.1 2.365 0.29
v -0.1 2.365 0.29
v -0.1 2.365 0.29
v -0.1 2.365 0.29
v -0.07355 2.352586 0.29
v -0.078601 2.352586 0.298637
v -0.091826 2.352586 0.303975
v -0.108174 2.352586 0.303975
v -0.121399 2.352586 0.298637
v -0.12645 2.352586 0.29
v -0.121399 2.352586 0.281363
v -0.108174 2.352586 0.276025
v -0.091826 2.352586 0.276025
v -0.078601 2.352586 0.281363
v -0.057202 2.320086 0.29
v -0.065376 2.320086 0.303975
v -0.086775 2.320086 0.312613
v -0.113225 2.320086 0.312613
v -0.134624 2.320086 0.303975
v -0.142798 2.320086 0.29
v -0.134624 2.320086 0.276025
v -0.113225 2.320086 0.267387
v -0.086775 2.320086 0.267387
v -0.065376 2.320086 0.276025
v -0.057202 2.279914 0.29
v -0.065376 2.279914 0.303975
v -0.086775 2.279914 0.312613
v -0.113225 2.279914 0.312613
v -0.134624 2.279914 0.303975
v -0.142798 2.279914 0.29
v -0.134624 2.279914 0.276025
v -0.113225 2.279914 0.267387
v -0.086775 2.279914 0.267387
v -0.065376 2.279914 0.276025
v -0.07355 2.247414 0.29
v -0.078601 2.247414 0.298637
v -0.091826 2.247414 0.303975
v -0.108174 2.247414 0.303975
v -0.121399 2.247414 0.298637
v -0.12645 2.247414 0.29
v -0.121399 2.247414 0.281363
v -0.108174 2.247414 0.276025
v -0.091826 2.247414 0.276025
v -0.078601 2.247414 0.281363
v -0.1 2.235 0.29
v -0.1 2.235 0.29
v -0.1 2.235 0.29
v -0.1 2.235 0.29
v -0.1 2.235 0.29
v -0.1 2.235 0.29
v -0.1 2.235 0.29
v -0.1 2.235 0.29
v -0.1 2.235 0.29
v -0.1 2.235 0.29
f 153 163 164 154
f 154 164 165 155
f 155 165 166 156
f 156 166 167 157
f 157 167 168 158
f 158 168 169 159
f 159 169 170 160
f 160 170 171 161
f 161 171 172 162
f 162 172 163 153
f 163 173 174 164
f 164 174 175 165
f 165 175 176 166
f 166 176 177 167
f 167 177 178 168
f 168 178 179 169
f 169 179 180 170
f 170 180 181 171
f 171 181 182 172
f 172 182 173 163
f 173 183 184 174
f 174 184 185 175
f 175 185 186 176
f 176 186 187 177
f 177 187 188 178
f 178 188 189 179
f 179 189 190 180
f 180 190 191 181
f 181 191 192 182
f 182 192 183 173
f 183 193 194 184
f 184 194 195 185
f 185 195 196 186
f 186 196 197 187
f 187 197 198 188
f 188 198 199 189
f 189 199 200 190
f 190 200 201 191
f 191 201 202 192
f 192 202 193 183
f 193 203 204 194
f 194 204 205 195
f 195 205 206 196
f 196 206 207 197
f 197 207 208 198
f 198 208 209 199
f 199 209 210 200
f 200 210 211 201
f 201 211 212 202
f 202 212 203 193

o Right_Eye
g Right_Eye
usemtl Eye_Cyan
v 0.1 2.365 0.29
v 0.1 2.365 0.29
v 0.1 2.365 0.29
v 0.1 2.365 0.29
v 0.1 2.365 0.29
v 0.1 2.365 0.29
v 0.1 2.365 0.29
v 0.1 2.365 0.29
v 0.1 2.365 0.29
v 0.1 2.365 0.29
v 0.12645 2.352586 0.29
v 0.121399 2.352586 0.298637
v 0.108174 2.352586 0.303975
v 0.091826 2.352586 0.303975
v 0.078601 2.352586 0.298637
v 0.07355 2.352586 0.29
v 0.078601 2.352586 0.281363
v 0.091826 2.352586 0.276025
v 0.108174 2.352586 0.276025
v 0.121399 2.352586 0.281363
v 0.142798 2.320086 0.29
v 0.134624 2.320086 0.303975
v 0.113225 2.320086 0.312613
v 0.086775 2.320086 0.312613
v 0.065376 2.320086 0.303975
v 0.057202 2.320086 0.29
v 0.065376 2.320086 0.276025
v 0.086775 2.320086 0.267387
v 0.113225 2.320086 0.267387
v 0.134624 2.320086 0.276025
v 0.142798 2.279914 0.29
v 0.134624 2.279914 0.303975
v 0.113225 2.279914 0.312613
v 0.086775 2.279914 0.312613
v 0.065376 2.279914 0.303975
v 0.057202 2.279914 0.29
v 0.065376 2.279914 0.276025
v 0.086775 2.279914 0.267387
v 0.113225 2.279914 0.267387
v 0.134624 2.279914 0.276025
v 0.12645 2.247414 0.29
v 0.121399 2.247414 0.298637
v 0.108174 2.247414 0.303975
v 0.091826 2.247414 0.303975
v 0.078601 2.247414 0.298637
v 0.07355 2.247414 0.29
v 0.078601 2.247414 0.281363
v 0.091826 2.247414 0.276025
v 0.108174 2.247414 0.276025
v 0.121399 2.247414 0.281363
v 0.1 2.235 0.29
v 0.1 2.235 0.29
v 0.1 2.235 0.29
v 0.1 2.235 0.29
v 0.1 2.235 0.29
v 0.1 2.235 0.29
v 0.1 2.235 0.29
v 0.1 2.235 0.29
v 0.1 2.235 0.29
v 0.1 2.235 0.29
f 213 223 224 214
f 214 224 225 215
f 215 225 226 216
f 216 226 227 217
f 217 227 228 218
f 218 228 229 219
f 219 229 230 220
f 220 230 231 221
f 221 231 232 222
f 222 232 223 213
f 223 233 234 224
f 224 234 235 225
f 225 235 236 226
f 226 236 237 227
f 227 237 238 228
f 228 238 239 229
f 229 239 240 230
f 230 240 241 231
f 231 241 242 232
f 232 242 233 223
f 233 243 244 234
f 234 244 245 235
f 235 245 246 236
f 236 246 247 237
f 237 247 248 238
f 238 248 249 239
f 239 249 250 240
f 240 250 251 241
f 241 251 252 242
f 242 252 243 233
f 243 253 254 244
f 244 254 255 245
f 245 255 256 246
f 246 256 257 247
f 247 257 258 248
f 248 258 259 249
f 249 259 260 250
f 250 260 261 251
f 251 261 262 252
f 252 262 253 243
f 253 263 264 254
f 254 264 265 255
f 255 265 266 256
f 256 266 267 257
f 257 267 268 258
f 258 268 269 259
f 259 269 270 260
f 260 270 271 261
f 261 271 272 262
f 262 272 263 253

o L_Upper_Arm
g L_Upper_Arm
usemtl Lucia_Skin
v -0.43 1.92 -0.13
v -0.350447 1.873943 -0.091924
v -0.317495 1.854865 0
v -0.350447 1.873943 0.091924
v -0.43 1.92 0.13
v -0.509553 1.966057 0.091924
v -0.542505 1.985135 -0
v -0.509553 1.966057 -0.091924
v -0.65 1.54 -0.13
v -0.570447 1.493943 -0.091924
v -0.537495 1.474865 0
v -0.570447 1.493943 0.091924
v -0.65 1.54 0.13
v -0.729553 1.586057 0.091924
v -0.762505 1.605135 -0
v -0.729553 1.586057 -0.091924
f 280 279 278 277 276 275 274 273
f 281 282 283 284 285 286 287 288
f 273 274 282 281
f 274 275 283 282
f 275 276 284 283
f 276 277 285 284
f 277 278 286 285
f 278 279 287 286
f 279 280 288 287
f 280 273 281 288

o R_Upper_Arm
g R_Upper_Arm
usemtl Lucia_Skin
v 0.43 1.92 0.13
v 0.350447 1.873943 0.091924
v 0.317495 1.854865 -0
v 0.350447 1.873943 -0.091924
v 0.43 1.92 -0.13
v 0.509553 1.966057 -0.091924
v 0.542505 1.985135 0
v 0.509553 1.966057 0.091924
v 0.65 1.54 0.13
v 0.570447 1.493943 0.091924
v 0.537495 1.474865 -0
v 0.570447 1.493943 -0.091924
v 0.65 1.54 -0.13
v 0.729553 1.586057 -0.091924
v 0.762505 1.605135 0
v 0.729553 1.586057 0.091924
f 296 295 294 293 292 291 290 289
f 297 298 299 300 301 302 303 304
f 289 290 298 297
f 290 291 299 298
f 291 292 300 299
f 292 293 301 300
f 293 294 302 301
f 294 295 303 302
f 295 296 304 303
f 296 289 297 304

o L_Forearm
g L_Forearm
usemtl Lucia_Skin
v -0.65 1.54589 0.114849
v -0.728271 1.566183 0.080081
v -0.760692 1.571139 -0.001597
v -0.728271 1.557854 -0.08234
v -0.65 1.53411 -0.114849
v -0.571729 1.513817 -0.080081
v -0.539308 1.508861 0.001597
v -0.571729 1.522146 0.08234
v -0.76 1.15589 0.134849
v -0.838271 1.176183 0.100081
v -0.870692 1.181139 0.018403
v -0.838271 1.167854 -0.06234
v -0.76 1.14411 -0.094849
v -0.681729 1.123817 -0.060081
v -0.649308 1.118861 0.021597
v -0.681729 1.132146 0.10234
f 312 311 310 309 308 307 306 305
f 313 314 315 316 317 318 319 320
f 305 306 314 313
f 306 307 315 314
f 307 308 316 315
f 308 309 317 316
f 309 310 318 317
f 310 311 319 318
f 311 312 320 319
f 312 305 313 320

o R_Forearm
g R_Forearm
usemtl Lucia_Skin
v 0.65 1.54589 0.114849
v 0.571729 1.522146 0.08234
v 0.539308 1.508861 0.001597
v 0.571729 1.513817 -0.080081
v 0.65 1.53411 -0.114849
v 0.728271 1.557854 -0.08234
v 0.760692 1.571139 -0.001597
v 0.728271 1.566183 0.080081
v 0.76 1.15589 0.134849
v 0.681729 1.132146 0.10234
v 0.649308 1.118861 0.021597
v 0.681729 1.123817 -0.060081
v 0.76 1.14411 -0.094849
v 0.838271 1.167854 -0.06234
v 0.870692 1.181139 0.018403
v 0.838271 1.176183 0.100081
f 328 327 326 325 324 323 322 321
f 329 330 331 332 333 334 335 336
f 321 322 330 329
f 322 323 331 330
f 323 324 332 331
f 324 325 333 332
f 325 326 334 333
f 326 327 335 334
f 327 328 336 335
f 328 321 329 336

o L_Glove
g L_Glove
usemtl Lucia_Magenta
v -0.76 1.32 0.02
v -0.76 1.32 0.02
v -0.76 1.32 0.02
v -0.76 1.32 0.02
v -0.76 1.32 0.02
v -0.76 1.32 0.02
v -0.76 1.32 0.02
v -0.76 1.32 0.02
v -0.76 1.32 0.02
v -0.76 1.32 0.02
v -0.67771 1.287533 0.02
v -0.693426 1.287533 0.064914
v -0.734571 1.287533 0.092672
v -0.785429 1.287533 0.092672
v -0.826574 1.287533 0.064914
v -0.84229 1.287533 0.02
v -0.826574 1.287533 -0.024914
v -0.785429 1.287533 -0.052672
v -0.734571 1.287533 -0.052672
v -0.693426 1.287533 -0.024914
v -0.626852 1.202533 0.02
v -0.652281 1.202533 0.092672
v -0.718855 1.202533 0.137586
v -0.801145 1.202533 0.137586
v -0.867719 1.202533 0.092672
v -0.893148 1.202533 0.02
v -0.867719 1.202533 -0.052672
v -0.801145 1.202533 -0.097586
v -0.718855 1.202533 -0.097586
v -0.652281 1.202533 -0.052672
v -0.626852 1.097467 0.02
v -0.652281 1.097467 0.092672
v -0.718855 1.097467 0.137586
v -0.801145 1.097467 0.137586
v -0.867719 1.097467 0.092672
v -0.893148 1.097467 0.02
v -0.867719 1.097467 -0.052672
v -0.801145 1.097467 -0.097586
v -0.718855 1.097467 -0.097586
v -0.652281 1.097467 -0.052672
v -0.67771 1.012467 0.02
v -0.693426 1.012467 0.064914
v -0.734571 1.012467 0.092672
v -0.785429 1.012467 0.092672
v -0.826574 1.012467 0.064914
v -0.84229 1.012467 0.02
v -0.826574 1.012467 -0.024914
v -0.785429 1.012467 -0.052672
v -0.734571 1.012467 -0.052672
v -0.693426 1.012467 -0.024914
v -0.76 0.98 0.02
v -0.76 0.98 0.02
v -0.76 0.98 0.02
v -0.76 0.98 0.02
v -0.76 0.98 0.02
v -0.76 0.98 0.02
v -0.76 0.98 0.02
v -0.76 0.98 0.02
v -0.76 0.98 0.02
v -0.76 0.98 0.02
f 337 347 348 338
f 338 348 349 339
f 339 349 350 340
f 340 350 351 341
f 341 351 352 342
f 342 352 353 343
f 343 353 354 344
f 344 354 355 345
f 345 355 356 346
f 346 356 347 337
f 347 357 358 348
f 348 358 359 349
f 349 359 360 350
f 350 360 361 351
f 351 361 362 352
f 352 362 363 353
f 353 363 364 354
f 354 364 365 355
f 355 365 366 356
f 356 366 357 347
f 357 367 368 358
f 358 368 369 359
f 359 369 370 360
f 360 370 371 361
f 361 371 372 362
f 362 372 373 363
f 363 373 374 364
f 364 374 375 365
f 365 375 376 366
f 366 376 367 357
f 367 377 378 368
f 368 378 379 369
f 369 379 380 370
f 370 380 381 371
f 371 381 382 372
f 372 382 383 373
f 373 383 384 374
f 374 384 385 375
f 375 385 386 376
f 376 386 377 367
f 377 387 388 378
f 378 388 389 379
f 379 389 390 380
f 380 390 391 381
f 381 391 392 382
f 382 392 393 383
f 383 393 394 384
f 384 394 395 385
f 385 395 396 386
f 386 396 387 377

o R_Glove
g R_Glove
usemtl Lucia_Magenta
v 0.76 1.32 0.02
v 0.76 1.32 0.02
v 0.76 1.32 0.02
v 0.76 1.32 0.02
v 0.76 1.32 0.02
v 0.76 1.32 0.02
v 0.76 1.32 0.02
v 0.76 1.32 0.02
v 0.76 1.32 0.02
v 0.76 1.32 0.02
v 0.84229 1.287533 0.02
v 0.826574 1.287533 0.064914
v 0.785429 1.287533 0.092672
v 0.734571 1.287533 0.092672
v 0.693426 1.287533 0.064914
v 0.67771 1.287533 0.02
v 0.693426 1.287533 -0.024914
v 0.734571 1.287533 -0.052672
v 0.785429 1.287533 -0.052672
v 0.826574 1.287533 -0.024914
v 0.893148 1.202533 0.02
v 0.867719 1.202533 0.092672
v 0.801145 1.202533 0.137586
v 0.718855 1.202533 0.137586
v 0.652281 1.202533 0.092672
v 0.626852 1.202533 0.02
v 0.652281 1.202533 -0.052672
v 0.718855 1.202533 -0.097586
v 0.801145 1.202533 -0.097586
v 0.867719 1.202533 -0.052672
v 0.893148 1.097467 0.02
v 0.867719 1.097467 0.092672
v 0.801145 1.097467 0.137586
v 0.718855 1.097467 0.137586
v 0.652281 1.097467 0.092672
v 0.626852 1.097467 0.02
v 0.652281 1.097467 -0.052672
v 0.718855 1.097467 -0.097586
v 0.801145 1.097467 -0.097586
v 0.867719 1.097467 -0.052672
v 0.84229 1.012467 0.02
v 0.826574 1.012467 0.064914
v 0.785429 1.012467 0.092672
v 0.734571 1.012467 0.092672
v 0.693426 1.012467 0.064914
v 0.67771 1.012467 0.02
v 0.693426 1.012467 -0.024914
v 0.734571 1.012467 -0.052672
v 0.785429 1.012467 -0.052672
v 0.826574 1.012467 -0.024914
v 0.76 0.98 0.02
v 0.76 0.98 0.02
v 0.76 0.98 0.02
v 0.76 0.98 0.02
v 0.76 0.98 0.02
v 0.76 0.98 0.02
v 0.76 0.98 0.02
v 0.76 0.98 0.02
v 0.76 0.98 0.02
v 0.76 0.98 0.02
f 397 407 408 398
f 398 408 409 399
f 399 409 410 400
f 400 410 411 401
f 401 411 412 402
f 402 412 413 403
f 403 413 414 404
f 404 414 415 405
f 405 415 416 406
f 406 416 407 397
f 407 417 418 408
f 408 418 419 409
f 409 419 420 410
f 410 420 421 411
f 411 421 422 412
f 412 422 423 413
f 413 423 424 414
f 414 424 425 415
f 415 425 426 416
f 416 426 417 407
f 417 427 428 418
f 418 428 429 419
f 419 429 430 420
f 420 430 431 421
f 421 431 432 422
f 422 432 433 423
f 423 433 434 424
f 424 434 435 425
f 425 435 436 426
f 426 436 427 417
f 427 437 438 428
f 428 438 439 429
f 429 439 440 430
f 430 440 441 431
f 431 441 442 432
f 432 442 443 433
f 433 443 444 434
f 434 444 445 435
f 435 445 446 436
f 436 446 437 427
f 437 447 448 438
f 438 448 449 439
f 439 449 450 440
f 440 450 451 441
f 441 451 452 442
f 442 452 453 443
f 443 453 454 444
f 444 454 455 445
f 445 455 456 446
f 446 456 447 437

o L_Thigh
g L_Thigh
usemtl Lucia_Skin
v -0.22 1.2 0.18
v -0.347182 1.204988 0.127279
v -0.399862 1.207053 -0
v -0.347182 1.204988 -0.127279
v -0.22 1.2 -0.18
v -0.092819 1.195013 -0.127279
v -0.040138 1.192947 0
v -0.092819 1.195013 0.127279
v -0.24 0.69 0.18
v -0.367182 0.694988 0.127279
v -0.419862 0.697053 -0
v -0.367182 0.694988 -0.127279
v -0.24 0.69 -0.18
v -0.112819 0.685013 -0.127279
v -0.060138 0.682947 0
v -0.112819 0.685013 0.127279
f 464 463 462 461 460 459 458 457
f 465 466 467 468 469 470 471 472
f 457 458 466 465
f 458 459 467 466
f 459 460 468 467
f 460 461 469 468
f 461 462 470 469
f 462 463 471 470
f 463 464 472 471
f 464 457 465 472

o R_Thigh
g R_Thigh
usemtl Lucia_Skin
v 0.22 1.2 0.18
v 0.092819 1.195013 0.127279
v 0.040138 1.192947 -0
v 0.092819 1.195013 -0.127279
v 0.22 1.2 -0.18
v 0.347182 1.204988 -0.127279
v 0.399862 1.207053 0
v 0.347181 1.204988 0.127279
v 0.24 0.69 0.18
v 0.112819 0.685013 0.127279
v 0.060138 0.682947 -0
v 0.112819 0.685013 -0.127279
v 0.24 0.69 -0.18
v 0.367182 0.694988 -0.127279
v 0.419862 0.697053 0
v 0.367181 0.694988 0.127279
f 480 479 478 477 476 475 474 473
f 481 482 483 484 485 486 487 488
f 473 474 482 481
f 474 475 483 482
f 475 476 484 483
f 476 477 485 484
f 477 478 486 485
f 478 479 487 486
f 479 480 488 487
f 480 473 481 488

o L_Shin
g L_Shin
usemtl Lucia_Skin
v -0.24 0.69 0.145
v -0.342531 0.69 0.102531
v -0.385 0.69 -0
v -0.342531 0.69 -0.102531
v -0.24 0.69 -0.145
v -0.13747 0.69 -0.102531
v -0.095 0.69 0
v -0.13747 0.69 0.102531
v -0.24 0.2 0.145
v -0.342531 0.2 0.102531
v -0.385 0.2 -0
v -0.342531 0.2 -0.102531
v -0.24 0.2 -0.145
v -0.13747 0.2 -0.102531
v -0.095 0.2 0
v -0.13747 0.2 0.102531
f 496 495 494 493 492 491 490 489
f 497 498 499 500 501 502 503 504
f 489 490 498 497
f 490 491 499 498
f 491 492 500 499
f 492 493 501 500
f 493 494 502 501
f 494 495 503 502
f 495 496 504 503
f 496 489 497 504

o R_Shin
g R_Shin
usemtl Lucia_Skin
v 0.24 0.69 0.145
v 0.13747 0.69 0.102531
v 0.095 0.69 -0
v 0.13747 0.69 -0.102531
v 0.24 0.69 -0.145
v 0.342531 0.69 -0.102531
v 0.385 0.69 0
v 0.34253 0.69 0.102531
v 0.24 0.2 0.145
v 0.13747 0.2 0.102531
v 0.095 0.2 -0
v 0.13747 0.2 -0.102531
v 0.24 0.2 -0.145
v 0.342531 0.2 -0.102531
v 0.385 0.2 0
v 0.34253 0.2 0.102531
f 512 511 510 509 508 507 506 505
f 513 514 515 516 517 518 519 520
f 505 506 514 513
f 506 507 515 514
f 507 508 516 515
f 508 509 517 516
f 509 510 518 517
f 510 511 519 518
f 511 512 520 519
f 512 505 513 520

o L_Shoe
g L_Shoe
usemtl Lucia_Green
v -0.41 -0.01 -0.13
v -0.07 -0.01 -0.13
v -0.07 0.17 -0.13
v -0.41 0.17 -0.13
v -0.41 -0.01 0.41
v -0.07 -0.01 0.41
v -0.07 0.17 0.41
v -0.41 0.17 0.41
f 521 524 523 522
f 525 526 527 528
f 521 522 526 525
f 524 528 527 523
f 522 523 527 526
f 521 525 528 524

o R_Shoe
g R_Shoe
usemtl Lucia_Green
v 0.07 -0.01 -0.13
v 0.41 -0.01 -0.13
v 0.41 0.17 -0.13
v 0.07 0.17 -0.13
v 0.07 -0.01 0.41
v 0.41 -0.01 0.41
v 0.41 0.17 0.41
v 0.07 0.17 0.41
f 529 532 531 530
f 533 534 535 536
f 529 530 534 533
f 532 536 535 531
f 530 531 535 534
f 529 533 536 532

o Left_Wing
g Left_Wing
usemtl Lucia_Wing
v -0.42 2.41 0.22
v -0.42 2.41 0.22
v -0.42 2.41 0.22
v -0.42 2.41 0.22
v -0.42 2.41 0.22
v -0.42 2.41 0.22
v -0.42 2.41 0.22
v -0.42 2.41 0.22
v -0.42 2.41 0.22
v -0.42 2.41 0.22
v -0.237787 2.289681 0.22
v -0.272586 2.289681 0.195816
v -0.363693 2.289681 0.180869
v -0.476307 2.289681 0.180869
v -0.567414 2.289681 0.195816
v -0.602213 2.289681 0.22
v -0.567414 2.289681 0.244184
v -0.476307 2.289681 0.259131
v -0.363693 2.289681 0.259131
v -0.272586 2.289681 0.244184
v -0.125173 1.974681 0.22
v -0.18148 1.974681 0.180869
v -0.328893 1.974681 0.156684
v -0.511107 1.974681 0.156684
v -0.658521 1.974681 0.180869
v -0.714828 1.974681 0.22
v -0.658521 1.974681 0.259131
v -0.511107 1.974681 0.283316
v -0.328893 1.974681 0.283316
v -0.18148 1.974681 0.259131
v -0.125173 1.585319 0.22
v -0.18148 1.585319 0.180869
v -0.328893 1.585319 0.156684
v -0.511107 1.585319 0.156684
v -0.658521 1.585319 0.180869
v -0.714828 1.585319 0.22
v -0.658521 1.585319 0.259131
v -0.511107 1.585319 0.283316
v -0.328893 1.585319 0.283316
v -0.18148 1.585319 0.259131
v -0.237787 1.270319 0.22
v -0.272586 1.270319 0.195816
v -0.363693 1.270319 0.180869
v -0.476307 1.270319 0.180869
v -0.567414 1.270319 0.195816
v -0.602213 1.270319 0.22
v -0.567414 1.270319 0.244184
v -0.476307 1.270319 0.259131
v -0.363693 1.270319 0.259131
v -0.272586 1.270319 0.244184
v -0.42 1.15 0.22
v -0.42 1.15 0.22
v -0.42 1.15 0.22
v -0.42 1.15 0.22
v -0.42 1.15 0.22
v -0.42 1.15 0.22
v -0.42 1.15 0.22
v -0.42 1.15 0.22
v -0.42 1.15 0.22
v -0.42 1.15 0.22
f 537 547 548 538
f 538 548 549 539
f 539 549 550 540
f 540 550 551 541
f 541 551 552 542
f 542 552 553 543
f 543 553 554 544
f 544 554 555 545
f 545 555 556 546
f 546 556 547 537
f 547 557 558 548
f 548 558 559 549
f 549 559 560 550
f 550 560 561 551
f 551 561 562 552
f 552 562 563 553
f 553 563 564 554
f 554 564 565 555
f 555 565 566 556
f 556 566 557 547
f 557 567 568 558
f 558 568 569 559
f 559 569 570 560
f 560 570 571 561
f 561 571 572 562
f 562 572 573 563
f 563 573 574 564
f 564 574 575 565
f 565 575 576 566
f 566 576 567 557
f 567 577 578 568
f 568 578 579 569
f 569 579 580 570
f 570 580 581 571
f 571 581 582 572
f 572 582 583 573
f 573 583 584 574
f 574 584 585 575
f 575 585 586 576
f 576 586 577 567
f 577 587 588 578
f 578 588 589 579
f 579 589 590 580
f 580 590 591 581
f 581 591 592 582
f 582 592 593 583
f 583 593 594 584
f 584 594 595 585
f 585 595 596 586
f 586 596 587 577

o Right_Wing
g Right_Wing
usemtl Lucia_Wing
v 0.42 2.41 0.22
v 0.42 2.41 0.22
v 0.42 2.41 0.22
v 0.42 2.41 0.22
v 0.42 2.41 0.22
v 0.42 2.41 0.22
v 0.42 2.41 0.22
v 0.42 2.41 0.22
v 0.42 2.41 0.22
v 0.42 2.41 0.22
v 0.602213 2.289681 0.22
v 0.567414 2.289681 0.195816
v 0.476307 2.289681 0.180869
v 0.363693 2.289681 0.180869
v 0.272586 2.289681 0.195816
v 0.237787 2.289681 0.22
v 0.272586 2.289681 0.244184
v 0.363693 2.289681 0.259131
v 0.476307 2.289681 0.259131
v 0.567414 2.289681 0.244184
v 0.714828 1.974681 0.22
v 0.658521 1.974681 0.180869
v 0.511107 1.974681 0.156684
v 0.328893 1.974681 0.156684
v 0.18148 1.974681 0.180869
v 0.125173 1.974681 0.22
v 0.18148 1.974681 0.259131
v 0.328893 1.974681 0.283316
v 0.511107 1.974681 0.283316
v 0.658521 1.974681 0.259131
v 0.714828 1.585319 0.22
v 0.658521 1.585319 0.180869
v 0.511107 1.585319 0.156684
v 0.328893 1.585319 0.156684
v 0.18148 1.585319 0.180869
v 0.125173 1.585319 0.22
v 0.18148 1.585319 0.259131
v 0.328893 1.585319 0.283316
v 0.511107 1.585319 0.283316
v 0.658521 1.585319 0.259131
v 0.602213 1.270319 0.22
v 0.567414 1.270319 0.195816
v 0.476307 1.270319 0.180869
v 0.363693 1.270319 0.180869
v 0.272586 1.270319 0.195816
v 0.237787 1.270319 0.22
v 0.272586 1.270319 0.244184
v 0.363693 1.270319 0.259131
v 0.476307 1.270319 0.259131
v 0.567414 1.270319 0.244184
v 0.42 1.15 0.22
v 0.42 1.15 0.22
v 0.42 1.15 0.22
v 0.42 1.15 0.22
v 0.42 1.15 0.22
v 0.42 1.15 0.22
v 0.42 1.15 0.22
v 0.42 1.15 0.22
v 0.42 1.15 0.22
v 0.42 1.15 0.22
f 597 607 608 598
f 598 608 609 599
f 599 609 610 600
f 600 610 611 601
f 601 611 612 602
f 602 612 613 603
f 603 613 614 604
f 604 614 615 605
f 605 615 616 606
f 606 616 607 597
f 607 617 618 608
f 608 618 619 609
f 609 619 620 610
f 610 620 621 611
f 611 621 622 612
f 612 622 623 613
f 613 623 624 614
f 614 624 625 615
f 615 625 626 616
f 616 626 617 607
f 617 627 628 618
f 618 628 629 619
f 619 629 630 620
f 620 630 631 621
f 621 631 632 622
f 622 632 633 623
f 623 633 634 624
f 624 634 635 625
f 625 635 636 626
f 626 636 627 617
f 627 637 638 628
f 628 638 639 629
f 629 639 640 630
f 630 640 641 631
f 631 641 642 632
f 632 642 643 633
f 633 643 644 634
f 634 644 645 635
f 635 645 646 636
f 636 646 637 627
f 637 647 648 638
f 638 648 649 639
f 639 649 650 640
f 640 650 651 641
f 641 651 652 642
f 642 652 653 643
f 643 653 654 644
f 644 654 655 645
f 645 655 656 646
f 646 656 647 637

o Left_Ear
g Left_Ear
usemtl Lucia_Skin
v -0.474607 2.149674 -0.065
v -0.208311 2.236199 -0.065
v -0.245393 2.350326 -0.065
v -0.511689 2.263801 -0.065
v -0.474607 2.149674 0.065
v -0.208311 2.236199 0.065
v -0.245393 2.350326 0.065
v -0.511689 2.263801 0.065
f 657 660 659 658
f 661 662 663 664
f 657 658 662 661
f 660 664 663 659
f 658 659 663 662
f 657 661 664 660

o Right_Ear
g Right_Ear
usemtl Lucia_Skin
v 0.208311 2.236199 -0.065
v 0.474607 2.149674 -0.065
v 0.511689 2.263801 -0.065
v 0.245393 2.350326 -0.065
v 0.208311 2.236199 0.065
v 0.474607 2.149674 0.065
v 0.511689 2.263801 0.065
v 0.245393 2.350326 0.065
f 665 668 667 666
f 669 670 671 672
f 665 666 670 669
f 668 672 671 667
f 666 667 671 670
f 665 669 672 668

o Racket_Handle
g Racket_Handle
usemtl Lucia_Green
v 1.02 0.56 0.065
v 0.981109 0.56 0.081109
v 0.965 0.56 0.12
v 0.981109 0.56 0.158891
v 1.02 0.56 0.175
v 1.058891 0.56 0.158891
v 1.075 0.56 0.12
v 1.058891 0.56 0.081109
v 1.02 1.2 0.065
v 0.981109 1.2 0.081109
v 0.965 1.2 0.12
v 0.981109 1.2 0.158891
v 1.02 1.2 0.175
v 1.058891 1.2 0.158891
v 1.075 1.2 0.12
v 1.058891 1.2 0.081109
f 680 679 678 677 676 675 674 673
f 681 682 683 684 685 686 687 688
f 673 674 682 681
f 674 675 683 682
f 675 676 684 683
f 676 677 685 684
f 677 678 686 685
f 678 679 687 686
f 679 680 688 687
f 680 673 681 688

o Racket_Frame
g Racket_Frame
usemtl Lucia_Magenta
v 1.365 1.57 0.12
v 1.33 1.57 0.155
v 1.295 1.57 0.12
v 1.33 1.57 0.085
v 1.330834 1.767417 0.12
v 1.2993 1.752231 0.155
v 1.267766 1.737045 0.12
v 1.2993 1.752231 0.085
v 1.235104 1.925733 0.12
v 1.213282 1.898369 0.155
v 1.19146 1.871005 0.12
v 1.213282 1.898369 0.085
v 1.09677 2.013592 0.12
v 1.088982 1.97947 0.155
v 1.081193 1.945347 0.12
v 1.088982 1.97947 0.085
v 0.94323 2.013592 0.12
v 0.951019 1.97947 0.155
v 0.958807 1.945347 0.12
v 0.951019 1.97947 0.085
v 0.804896 1.925733 0.12
v 0.826718 1.898369 0.155
v 0.84854 1.871005 0.12
v 0.826718 1.898369 0.085
v 0.709166 1.767417 0.12
v 0.7407 1.752231 0.155
v 0.772234 1.737045 0.12
v 0.7407 1.752231 0.085
v 0.675 1.57 0.12
v 0.71 1.57 0.155
v 0.745 1.57 0.12
v 0.71 1.57 0.085
v 0.709166 1.372583 0.12
v 0.7407 1.387769 0.155
v 0.772234 1.402955 0.12
v 0.7407 1.387769 0.085
v 0.804896 1.214267 0.12
v 0.826718 1.241631 0.155
v 0.84854 1.268995 0.12
v 0.826718 1.241631 0.085
v 0.94323 1.126408 0.12
v 0.951019 1.16053 0.155
v 0.958807 1.194653 0.12
v 0.951019 1.16053 0.085
v 1.09677 1.126408 0.12
v 1.088982 1.16053 0.155
v 1.081193 1.194653 0.12
v 1.088982 1.16053 0.085
v 1.235104 1.214267 0.12
v 1.213282 1.241631 0.155
v 1.19146 1.268995 0.12
v 1.213282 1.241631 0.085
v 1.330834 1.372583 0.12
v 1.2993 1.387769 0.155
v 1.267766 1.402955 0.12
v 1.2993 1.387769 0.085
f 689 693 694 690
f 690 694 695 691
f 691 695 696 692
f 692 696 693 689
f 693 697 698 694
f 694 698 699 695
f 695 699 700 696
f 696 700 697 693
f 697 701 702 698
f 698 702 703 699
f 699 703 704 700
f 700 704 701 697
f 701 705 706 702
f 702 706 707 703
f 703 707 708 704
f 704 708 705 701
f 705 709 710 706
f 706 710 711 707
f 707 711 712 708
f 708 712 709 705
f 709 713 714 710
f 710 714 715 711
f 711 715 716 712
f 712 716 713 709
f 713 717 718 714
f 714 718 719 715
f 715 719 720 716
f 716 720 717 713
f 717 721 722 718
f 718 722 723 719
f 719 723 724 720
f 720 724 721 717
f 721 725 726 722
f 722 726 727 723
f 723 727 728 724
f 724 728 725 721
f 725 729 730 726
f 726 730 731 727
f 727 731 732 728
f 728 732 729 725
f 729 733 734 730
f 730 734 735 731
f 731 735 736 732
f 732 736 733 729
f 733 737 738 734
f 734 738 739 735
f 735 739 740 736
f 736 740 737 733
f 737 741 742 738
f 738 742 743 739
f 739 743 744 740
f 740 744 741 737
f 741 689 690 742
f 742 690 691 743
f 743 691 692 744
f 744 692 689 741

o Racket_Strings_H
g Racket_Strings_H
usemtl Paper
v 0.755 1.5575 0.1075
v 1.285 1.5575 0.1075
v 1.285 1.5825 0.1075
v 0.755 1.5825 0.1075
v 0.755 1.5575 0.1325
v 1.285 1.5575 0.1325
v 1.285 1.5825 0.1325
v 0.755 1.5825 0.1325
f 745 748 747 746
f 749 750 751 752
f 745 746 750 749
f 748 752 751 747
f 746 747 751 750
f 745 749 752 748

o Racket_Strings_V
g Racket_Strings_V
usemtl Paper
v 1.0075 1.21 0.1075
v 1.0325 1.21 0.1075
v 1.0325 1.93 0.1075
v 1.0075 1.93 0.1075
v 1.0075 1.21 0.1325
v 1.0325 1.21 0.1325
v 1.0325 1.93 0.1325
v 1.0075 1.93 0.1325
f 753 756 755 754
f 757 758 759 760
f 753 754 758 757
f 756 760 759 755
f 754 755 759 758
f 753 757 760 756
