# Pride Court deterministic low-poly character model
mtllib Poko_Tanuki_Model_v1.mtl
s off

o Torso
g Torso
usemtl Poko_Cream
v 0 1.95 0
v 0 1.95 0
v 0 1.95 0
v 0 1.95 0
v 0 1.95 0
v 0 1.95 0
v 0 1.95 0
v 0 1.95 0
v 0 1.95 0
v 0 1.95 0
v 0.282137 1.844959 0
v 0.228254 1.844959 0.134742
v 0.087185 1.844959 0.218017
v -0.087185 1.844959 0.218017
v -0.228254 1.844959 0.134742
v -0.282137 1.844959 -0
v -0.228254 1.844959 -0.134742
v -0.087185 1.844959 -0.218017
v 0.087185 1.844959 -0.218017
v 0.228254 1.844959 -0.134742
v 0.456507 1.569959 0
v 0.369322 1.569959 0.218017
v 0.141068 1.569959 0.352758
v -0.141069 1.569959 0.352758
v -0.369322 1.569959 0.218017
v -0.456507 1.569959 -0
v -0.369322 1.569959 -0.218017
v -0.141068 1.569959 -0.352758
v 0.141069 1.569959 -0.352758
v 0.369322 1.569959 -0.218017
v 0.456507 1.230041 0
v 0.369322 1.230041 0.218017
v 0.141068 1.230041 0.352758
v -0.141069 1.230041 0.352758
v -0.369322 1.230041 0.218017
v -0.456507 1.230041 -0
v -0.369322 1.230041 -0.218017
v -0.141068 1.230041 -0.352758
v 0.141069 1.230041 -0.352758
v 0.369322 1.230041 -0.218017
v 0.282137 0.955041 0
v 0.228254 0.955041 0.134742
v 0.087185 0.955041 0.218017
v -0.087185 0.955041 0.218017
v -0.228254 0.955041 0.134742
v -0.282137 0.955041 -0
v -0.228254 0.955041 -0.134742
v -0.087185 0.955041 -0.218017
v 0.087185 0.955041 -0.218017
v 0.228254 0.955041 -0.134742
v -0 0.85 0
v -0 0.85 -0
v -0 0.85 -0
v 0 0.85 -0
v 0 0.85 -0
v 0 0.85 0
v 0 0.85 0
v 0 0.85 0
v -0 0.85 0
v -0 0.85 0
f 1 11 12 2
f 2 12 13 3
f 3 13 14 4
f 4 14 15 5
f 5 15 16 6
f 6 16 17 7
f 7 17 18 8
f 8 18 19 9
f 9 19 20 10
f 10 20 11 1
f 11 21 22 12
f 12 22 23 13
f 13 23 24 14
f 14 24 25 15
f 15 25 26 16
f 16 26 27 17
f 17 27 28 18
f 18 28 29 19
f 19 29 30 20
f 20 30 21 11
f 21 31 32 22
f 22 32 33 23
f 23 33 34 24
f 24 34 35 25
f 25 35 36 26
f 26 36 37 27
f 27 37 38 28
f 28 38 39 29
f 29 39 40 30
f 30 40 31 21
f 31 41 42 32
f 32 42 43 33
f 33 43 44 34
f 34 44 45 35
f 35 45 46 36
f 36 46 47 37
f 37 47 48 38
f 38 48 49 39
f 39 49 50 40
f 40 50 41 31
f 41 51 52 42
f 42 52 53 43
f 43 53 54 44
f 44 54 55 45
f 45 55 56 46
f 46 56 57 47
f 47 57 58 48
f 48 58 59 49
f 49 59 60 50
f 50 60 51 41

o Haragake_Lower
g Haragake_Lower
usemtl Poko_Cream
v -0.26 0.92 0.3125
v 0.26 0.92 0.3125
v 0.26 1.34 0.3125
v -0.26 1.34 0.3125
v -0.26 0.92 0.3675
v 0.26 0.92 0.3675
v 0.26 1.34 0.3675
v -0.26 1.34 0.3675
f 61 64 63 62
f 65 66 67 68
f 61 62 66 65
f 64 68 67 63
f 62 63 67 66
f 61 65 68 64

o Shorts
g Shorts
usemtl Poko_Ink
v -0.34 0.84 -0.22
v 0.34 0.84 -0.22
v 0.34 1.12 -0.22
v -0.34 1.12 -0.22
v -0.34 0.84 0.22
v 0.34 0.84 0.22
v 0.34 1.12 0.22
v -0.34 1.12 0.22
f 69 72 71 70
f 73 74 75 76
f 69 70 74 73
f 72 76 75 71
f 70 71 75 74
f 69 73 76 72

o Happi_Left
g Happi_Left
usemtl Poko_Green
v -0.456648 1.089061 0.155
v -0.188661 1.056156 0.155
v -0.103352 1.750939 0.155
v -0.37134 1.783844 0.155
v -0.456648 1.089061 0.245
v -0.188661 1.056156 0.245
v -0.103352 1.750939 0.245
v -0.37134 1.783844 0.245
f 77 80 79 78
f 81 82 83 84
f 77 78 82 81
f 80 84 83 79
f 78 79 83 82
f 77 81 84 80

o Happi_Right
g Happi_Right
usemtl Poko_Green
v 0.188661 1.056156 0.155
v 0.456648 1.089061 0.155
v 0.37134 1.783844 0.155
v 0.103352 1.750939 0.155
v 0.188661 1.056156 0.245
v 0.456648 1.089061 0.245
v 0.37134 1.783844 0.245
v 0.103352 1.750939 0.245
f 85 88 87 86
f 89 90 91 92
f 85 86 90 89
f 88 92 91 87
f 86 87 91 90
f 85 89 92 88

o Head
g Head
usemtl Poko_Brown
v 0 2.38 0
v 0 2.38 0
v 0 2.38 0
v 0 2.38 0
v 0 2.38 0
v 0 2.38 0
v 0 2.38 0
v 0 2.38 0
v 0 2.38 0
v 0 2.38 0
v 0.293893 2.292148 0
v 0.237764 2.292148 0.145106
v 0.090818 2.292148 0.234787
v -0.090818 2.292148 0.234787
v -0.237764 2.292148 0.145106
v -0.293893 2.292148 -0
v -0.237764 2.292148 -0.145106
v -0.090818 2.292148 -0.234787
v 0.090818 2.292148 -0.234787
v 0.237764 2.292148 -0.145106
v 0.475528 2.062148 0
v 0.384711 2.062148 0.234787
v 0.146946 2.062148 0.379894
v -0.146946 2.062148 0.379894
v -0.384711 2.062148 0.234787
v -0.475528 2.062148 -0
v -0.38471 2.062148 -0.234787
v -0.146946 2.062148 -0.379894
v 0.146946 2.062148 -0.379894
v 0.38471 2.062148 -0.234787
v 0.475528 1.777852 0
v 0.38471 1.777852 0.234787
v 0.146946 1.777852 0.379894
v -0.146946 1.777852 0.379894
v -0.384711 1.777852 0.234787
v -0.475528 1.777852 -0
v -0.38471 1.777852 -0.234787
v -0.146946 1.777852 -0.379894
v 0.146946 1.777852 -0.379894
v 0.38471 1.777852 -0.234787
v 0.293893 1.547852 0
v 0.237764 1.547852 0.145106
v 0.090818 1.547852 0.234787
v -0.090818 1.547852 0.234787
v -0.237764 1.547852 0.145106
v -0.293893 1.547852 -0
v -0.237764 1.547852 -0.145106
v -0.090818 1.547852 -0.234787
v 0.090818 1.547852 -0.234787
v 0.237764 1.547852 -0.145106
v -0 1.46 0
v -0 1.46 -0
v -0 1.46 -0
v 0 1.46 -0
v 0 1.46 -0
v 0 1.46 0
v 0 1.46 0
v 0 1.46 0
v -0 1.46 0
v -0 1.46 0
f 93 103 104 94
f 94 104 105 95
f 95 105 106 96
f 96 106 107 97
f 97 107 108 98
f 98 108 109 99
f 99 109 110 100
f 100 110 111 101
f 101 111 112 102
f 102 112 103 93
f 103 113 114 104
f 104 114 115 105
f 105 115 116 106
f 106 116 117 107
f 107 117 118 108
f 108 118 119 109
f 109 119 120 110
f 110 120 121 111
f 111 121 122 112
f 112 122 113 103
f 113 123 124 114
f 114 124 125 115
f 115 125 126 116
f 116 126 127 117
f 117 127 128 118
f 118 128 129 119
f 119 129 130 120
f 120 130 131 121
f 121 131 132 122
f 122 132 123 113
f 123 133 134 124
f 124 134 135 125
f 125 135 136 126
f 126 136 137 127
f 127 137 138 128
f 128 138 139 129
f 129 139 140 130
f 130 140 141 131
f 131 141 142 132
f 132 142 133 123
f 133 143 144 134
f 134 144 145 135
f 135 145 146 136
f 136 146 147 137
f 137 147 148 138
f 138 148 149 139
f 139 149 150 140
f 140 150 151 141
f 141 151 152 142
f 142 152 143 133

o Muzzle
g Muzzle
usemtl Poko_Cream
v 0 2.02 0.38
v 0 2.02 0.38
v 0 2.02 0.38
v 0 2.02 0.38
v 0 2.02 0.38
v 0 2.02 0.38
v 0 2.02 0.38
v 0 2.02 0.38
v 0 2.02 0.38
v 0 2.02 0.38
v 0.158702 1.981803 0.38
v 0.128393 1.981803 0.421459
v 0.049042 1.981803 0.447082
v -0.049042 1.981803 0.447082
v -0.128393 1.981803 0.421459
v -0.158702 1.981803 0.38
v -0.128393 1.981803 0.338541
v -0.049042 1.981803 0.312918
v 0.049042 1.981803 0.312918
v 0.128393 1.981803 0.338541
v 0.256785 1.881803 0.38
v 0.207744 1.881803 0.447082
v 0.079351 1.881803 0.488541
v -0.079351 1.881803 0.488541
v -0.207744 1.881803 0.447082
v -0.256785 1.881803 0.38
v -0.207744 1.881803 0.312918
v -0.079351 1.881803 0.271459
v 0.079351 1.881803 0.271459
v 0.207744 1.881803 0.312918
v 0.256785 1.758197 0.38
v 0.207744 1.758197 0.447082
v 0.079351 1.758197 0.488541
v -0.079351 1.758197 0.488541
v -0.207744 1.758197 0.447082
v -0.256785 1.758197 0.38
v -0.207744 1.758197 0.312918
v -0.079351 1.758197 0.271459
v 0.079351 1.758197 0.271459
v 0.207744 1.758197 0.312918
v 0.158702 1.658197 0.38
v 0.128393 1.658197 0.421459
v 0.049042 1.658197 0.447082
v -0.049042 1.658197 0.447082
v -0.128393 1.658197 0.421459
v -0.158702 1.658197 0.38
v -0.128393 1.658197 0.338541
v -0.049042 1.658197 0.312918
v 0.049042 1.658197 0.312918
v 0.128393 1.658197 0.338541
v -0 1.62 0.38
v -0 1.62 0.38
v -0 1.62 0.38
v 0 1.62 0.38
v 0 1.62 0.38
v 0 1.62 0.38
v 0 1.62 0.38
v 0 1.62 0.38
v -0 1.62 0.38
v -0 1.62 0.38
f 153 163 164 154
f 154 164 165 155
f 155 165 166 156
f 156 166 167 157
f 157 167 168 158
f 158 168 169 159
f 159 169 170 160
f 160 170 171 161
f 161 171 172 162
f 162 172 163 153
f 163 173 174 164
f 164 174 175 165
f 165 175 176 166
f 166 176 177 167
f 167 177 178 168
f 168 178 179 169
f 169 179 180 170
f 170 180 181 171
f 171 181 182 172
f 172 182 173 163
f 173 183 184 174
f 174 184 185 175
f 175 185 186 176
f 176 186 187 177
f 177 187 188 178
f 178 188 189 179
f 179 189 190 180
f 180 190 191 181
f 181 191 192 182
f 182 192 183 173
f 183 193 194 184
f 184 194 195 185
f 185 195 196 186
f 186 196 197 187
f 187 197 198 188
f 188 198 199 189
f 189 199 200 190
f 190 200 201 191
f 191 201 202 192
f 192 202 193 183
f 193 203 204 194
f 194 204 205 195
f 195 205 206 196
f 196 206 207 197
f 197 207 208 198
f 198 208 209 199
f 199 209 210 200
f 200 210 211 201
f 201 211 212 202
f 202 212 203 193

o Left_Ear
g Left_Ear
usemtl Poko_Dark
v -0.31 2.42 -0.02
v -0.31 2.42 -0.02
v -0.31 2.42 -0.02
v -0.31 2.42 -0.02
v -0.31 2.42 -0.02
v -0.31 2.42 -0.02
v -0.31 2.42 -0.02
v -0.31 2.42 -0.02
v -0.31 2.42 -0.02
v -0.31 2.42 -0.02
v -0.198321 2.381804 -0.02
v -0.21965 2.381804 0.024914
v -0.275489 2.381804 0.052672
v -0.344511 2.381804 0.052672
v -0.40035 2.381804 0.024914
v -0.421679 2.381804 -0.02
v -0.40035 2.381804 -0.064914
v -0.344511 2.381804 -0.092672
v -0.275489 2.381804 -0.092672
v -0.21965 2.381804 -0.064914
v -0.129299 2.281803 -0.02
v -0.16381 2.281803 0.052672
v -0.25416 2.281803 0.097586
v -0.36584 2.281803 0.097586
v -0.45619 2.281803 0.052672
v -0.490701 2.281803 -0.02
v -0.45619 2.281803 -0.092672
v -0.36584 2.281803 -0.137586
v -0.25416 2.281803 -0.137586
v -0.16381 2.281803 -0.092672
v -0.129299 2.158197 -0.02
v -0.16381 2.158197 0.052672
v -0.25416 2.158197 0.097586
v -0.36584 2.158197 0.097586
v -0.45619 2.158197 0.052672
v -0.490701 2.158197 -0.02
v -0.45619 2.158197 -0.092672
v -0.36584 2.158197 -0.137586
v -0.25416 2.158197 -0.137586
v -0.16381 2.158197 -0.092672
v -0.198321 2.058197 -0.02
v -0.21965 2.058197 0.024914
v -0.275489 2.058197 0.052672
v -0.344511 2.058197 0.052672
v -0.40035 2.058197 0.024914
v -0.421679 2.058197 -0.02
v -0.40035 2.058197 -0.064914
v -0.344511 2.058197 -0.092672
v -0.275489 2.058197 -0.092672
v -0.21965 2.058197 -0.064914
v -0.31 2.02 -0.02
v -0.31 2.02 -0.02
v -0.31 2.02 -0.02
v -0.31 2.02 -0.02
v -0.31 2.02 -0.02
v -0.31 2.02 -0.02
v -0.31 2.02 -0.02
v -0.31 2.02 -0.02
v -0.31 2.02 -0.02
v -0.31 2.02 -0.02
f 213 223 224 214
f 214 224 225 215
f 215 225 226 216
f 216 226 227 217
f 217 227 228 218
f 218 228 229 219
f 219 229 230 220
f 220 230 231 221
f 221 231 232 222
f 222 232 223 213
f 223 233 234 224
f 224 234 235 225
f 225 235 236 226
f 226 236 237 227
f 227 237 238 228
f 228 238 239 229
f 229 239 240 230
f 230 240 241 231
f 231 241 242 232
f 232 242 233 223
f 233 243 244 234
f 234 244 245 235
f 235 245 246 236
f 236 246 247 237
f 237 247 248 238
f 238 248 249 239
f 239 249 250 240
f 240 250 251 241
f 241 251 252 242
f 242 252 243 233
f 243 253 254 244
f 244 254 255 245
f 245 255 256 246
f 246 256 257 247
f 247 257 258 248
f 248 258 259 249
f 249 259 260 250
f 250 260 261 251
f 251 261 262 252
f 252 262 253 243
f 253 263 264 254
f 254 264 265 255
f 255 265 266 256
f 256 266 267 257
f 257 267 268 258
f 258 268 269 259
f 259 269 270 260
f 260 270 271 261
f 261 271 272 262
f 262 272 263 253

o Right_Ear
g Right_Ear
usemtl Poko_Dark
v 0.31 2.42 -0.02
v 0.31 2.42 -0.02
v 0.31 2.42 -0.02
v 0.31 2.42 -0.02
v 0.31 2.42 -0.02
v 0.31 2.42 -0.02
v 0.31 2.42 -0.02
v 0.31 2.42 -0.02
v 0.31 2.42 -0.02
v 0.31 2.42 -0.02
v 0.421679 2.381804 -0.02
v 0.40035 2.381804 0.024914
v 0.344511 2.381804 0.052672
v 0.275489 2.381804 0.052672
v 0.21965 2.381804 0.024914
v 0.198321 2.381804 -0.02
v 0.21965 2.381804 -0.064914
v 0.275489 2.381804 -0.092672
v 0.344511 2.381804 -0.092672
v 0.40035 2.381804 -0.064914
v 0.490701 2.281803 -0.02
v 0.45619 2.281803 0.052672
v 0.36584 2.281803 0.097586
v 0.25416 2.281803 0.097586
v 0.16381 2.281803 0.052672
v 0.129299 2.281803 -0.02
v 0.16381 2.281803 -0.092672
v 0.254161 2.281803 -0.137586
v 0.36584 2.281803 -0.137586
v 0.45619 2.281803 -0.092672
v 0.490701 2.158197 -0.02
v 0.45619 2.158197 0.052672
v 0.36584 2.158197 0.097586
v 0.25416 2.158197 0.097586
v 0.16381 2.158197 0.052672
v 0.129299 2.158197 -0.02
v 0.16381 2.158197 -0.092672
v 0.254161 2.158197 -0.137586
v 0.36584 2.158197 -0.137586
v 0.45619 2.158197 -0.092672
v 0.421679 2.058197 -0.02
v 0.40035 2.058197 0.024914
v 0.344511 2.058197 0.052672
v 0.275489 2.058197 0.052672
v 0.21965 2.058197 0.024914
v 0.198321 2.058197 -0.02
v 0.21965 2.058197 -0.064914
v 0.275489 2.058197 -0.092672
v 0.344511 2.058197 -0.092672
v 0.40035 2.058197 -0.064914
v 0.31 2.02 -0.02
v 0.31 2.02 -0.02
v 0.31 2.02 -0.02
v 0.31 2.02 -0.02
v 0.31 2.02 -0.02
v 0.31 2.02 -0.02
v 0.31 2.02 -0.02
v 0.31 2.02 -0.02
v 0.31 2.02 -0.02
v 0.31 2.02 -0.02
f 273 283 284 274
f 274 284 285 275
f 275 285 286 276
f 276 286 287 277
f 277 287 288 278
f 278 288 289 279
f 279 289 290 280
f 280 290 291 281
f 281 291 292 282
f 282 292 283 273
f 283 293 294 284
f 284 294 295 285
f 285 295 296 286
f 286 296 297 287
f 287 297 298 288
f 288 298 299 289
f 289 299 300 290
f 290 300 301 291
f 291 301 302 292
f 292 302 293 283
f 293 303 304 294
f 294 304 305 295
f 295 305 306 296
f 296 306 307 297
f 297 307 308 298
f 298 308 309 299
f 299 309 310 300
f 300 310 311 301
f 301 311 312 302
f 302 312 303 293
f 303 313 314 304
f 304 314 315 305
f 305 315 316 306
f 306 316 317 307
f 307 317 318 308
f 308 318 319 309
f 309 319 320 310
f 310 320 321 311
f 311 321 322 312
f 312 322 313 303
f 313 323 324 314
f 314 324 325 315
f 315 325 326 316
f 316 326 327 317
f 317 327 328 318
f 318 328 329 319
f 319 329 330 320
f 320 330 331 321
f 321 331 332 322
f 322 332 323 313

o Left_Eye_Liner
g Left_Eye_Liner
usemtl Poko_Dark
v -0.17 2.1 0.38
v -0.17 2.1 0.38
v -0.17 2.1 0.38
v -0.17 2.1 0.38
v -0.17 2.1 0.38
v -0.17 2.1 0.38
v -0.17 2.1 0.38
v -0.17 2.1 0.38
v -0.17 2.1 0.38
v -0.17 2.1 0.38
v -0.075954 2.078992 0.38
v -0.093915 2.078992 0.392092
v -0.140938 2.078992 0.399566
v -0.199062 2.078992 0.399566
v -0.246085 2.078992 0.392092
v -0.264046 2.078992 0.38
v -0.246085 2.078992 0.367908
v -0.199062 2.078992 0.360434
v -0.140938 2.078992 0.360434
v -0.093915 2.078992 0.367908
v -0.017831 2.023992 0.38
v -0.046893 2.023992 0.399566
v -0.122977 2.023992 0.411658
v -0.217023 2.023992 0.411658
v -0.293107 2.023992 0.399566
v -0.322169 2.023992 0.38
v -0.293107 2.023992 0.360434
v -0.217023 2.023992 0.348342
v -0.122977 2.023992 0.348342
v -0.046893 2.023992 0.360434
v -0.017831 1.956008 0.38
v -0.046893 1.956008 0.399566
v -0.122977 1.956008 0.411658
v -0.217023 1.956008 0.411658
v -0.293107 1.956008 0.399566
v -0.322169 1.956008 0.38
v -0.293107 1.956008 0.360434
v -0.217023 1.956008 0.348342
v -0.122977 1.956008 0.348342
v -0.046893 1.956008 0.360434
v -0.075954 1.901008 0.38
v -0.093915 1.901008 0.392092
v -0.140938 1.901008 0.399566
v -0.199062 1.901008 0.399566
v -0.246085 1.901008 0.392092
v -0.264046 1.901008 0.38
v -0.246085 1.901008 0.367908
v -0.199062 1.901008 0.360434
v -0.140938 1.901008 0.360434
v -0.093916 1.901008 0.367908
v -0.17 1.88 0.38
v -0.17 1.88 0.38
v -0.17 1.88 0.38
v -0.17 1.88 0.38
v -0.17 1.88 0.38
v -0.17 1.88 0.38
v -0.17 1.88 0.38
v -0.17 1.88 0.38
v -0.17 1.88 0.38
v -0.17 1.88 0.38
f 333 343 344 334
f 334 344 345 335
f 335 345 346 336
f 336 346 347 337
f 337 347 348 338
f 338 348 349 339
f 339 349 350 340
f 340 350 351 341
f 341 351 352 342
f 342 352 343 333
f 343 353 354 344
f 344 354 355 345
f 345 355 356 346
f 346 356 357 347
f 347 357 358 348
f 348 358 359 349
f 349 359 360 350
f 350 360 361 351
f 351 361 362 352
f 352 362 353 343
f 353 363 364 354
f 354 364 365 355
f 355 365 366 356
f 356 366 367 357
f 357 367 368 358
f 358 368 369 359
f 359 369 370 360
f 360 370 371 361
f 361 371 372 362
f 362 372 363 353
f 363 373 374 364
f 364 374 375 365
f 365 375 376 366
f 366 376 377 367
f 367 377 378 368
f 368 378 379 369
f 369 379 380 370
f 370 380 381 371
f 371 381 382 372
f 372 382 373 363
f 373 383 384 374
f 374 384 385 375
f 375 385 386 376
f 376 386 387 377
f 377 387 388 378
f 378 388 389 379
f 379 389 390 380
f 380 390 391 381
f 381 391 392 382
f 382 392 383 373

o Right_Eye_Liner
g Right_Eye_Liner
usemtl Poko_Dark
v 0.17 2.1 0.38
v 0.17 2.1 0.38
v 0.17 2.1 0.38
v 0.17 2.1 0.38
v 0.17 2.1 0.38
v 0.17 2.1 0.38
v 0.17 2.1 0.38
v 0.17 2.1 0.38
v 0.17 2.1 0.38
v 0.17 2.1 0.38
v 0.264046 2.078992 0.38
v 0.246085 2.078992 0.392092
v 0.199062 2.078992 0.399566
v 0.140938 2.078992 0.399566
v 0.093915 2.078992 0.392092
v 0.075954 2.078992 0.38
v 0.093915 2.078992 0.367908
v 0.140938 2.078992 0.360434
v 0.199062 2.078992 0.360434
v 0.246085 2.078992 0.367908
v 0.322169 2.023992 0.38
v 0.293107 2.023992 0.399566
v 0.217023 2.023992 0.411658
v 0.122977 2.023992 0.411658
v 0.046893 2.023992 0.399566
v 0.017831 2.023992 0.38
v 0.046893 2.023992 0.360434
v 0.122977 2.023992 0.348342
v 0.217023 2.023992 0.348342
v 0.293107 2.023992 0.360434
v 0.322169 1.956008 0.38
v 0.293107 1.956008 0.399566
v 0.217023 1.956008 0.411658
v 0.122977 1.956008 0.411658
v 0.046893 1.956008 0.399566
v 0.017831 1.956008 0.38
v 0.046893 1.956008 0.360434
v 0.122977 1.956008 0.348342
v 0.217023 1.956008 0.348342
v 0.293107 1.956008 0.360434
v 0.264046 1.901008 0.38
v 0.246085 1.901008 0.392092
v 0.199062 1.901008 0.399566
v 0.140938 1.901008 0.399566
v 0.093915 1.901008 0.392092
v 0.075954 1.901008 0.38
v 0.093916 1.901008 0.367908
v 0.140938 1.901008 0.360434
v 0.199062 1.901008 0.360434
v 0.246085 1.901008 0.367908
v 0.17 1.88 0.38
v 0.17 1.88 0.38
v 0.17 1.88 0.38
v 0.17 1.88 0.38
v 0.17 1.88 0.38
v 0.17 1.88 0.38
v 0.17 1.88 0.38
v 0.17 1.88 0.38
v 0.17 1.88 0.38
v 0.17 1.88 0.38
f 393 403 404 394
f 394 404 405 395
f 395 405 406 396
f 396 406 407 397
f 397 407 408 398
f 398 408 409 399
f 399 409 410 400
f 400 410 411 401
f 401 411 412 402
f 402 412 403 393
f 403 413 414 404
f 404 414 415 405
f 405 415 416 406
f 406 416 417 407
f 407 417 418 408
f 408 418 419 409
f 409 419 420 410
f 410 420 421 411
f 411 421 422 412
f 412 422 413 403
f 413 423 424 414
f 414 424 425 415
f 415 425 426 416
f 416 426 427 417
f 417 427 428 418
f 418 428 429 419
f 419 429 430 420
f 420 430 431 421
f 421 431 432 422
f 422 432 423 413
f 423 433 434 424
f 424 434 435 425
f 425 435 436 426
f 426 436 437 427
f 427 437 438 428
f 428 438 439 429
f 429 439 440 430
f 430 440 441 431
f 431 441 442 432
f 432 442 433 423
f 433 443 444 434
f 434 444 445 435
f 435 445 446 436
f 436 446 447 437
f 437 447 448 438
f 438 448 449 439
f 439 449 450 440
f 440 450 451 441
f 441 451 452 442
f 442 452 443 433

o Left_Eye
g Left_Eye
usemtl Poko_Green
v -0.17 2.052 0.416
v -0.17 2.052 0.416
v -0.17 2.052 0.416
v -0.17 2.052 0.416
v -0.17 2.052 0.416
v -0.17 2.052 0.416
v -0.17 2.052 0.416
v -0.17 2.052 0.416
v -0.17 2.052 0.416
v -0.17 2.052 0.416
v -0.14355 2.042069 0.416
v -0.148601 2.042069 0.42291
v -0.161826 2.042069 0.42718
v -0.178174 2.042069 0.42718
v -0.191399 2.042069 0.42291
v -0.19645 2.042069 0.416
v -0.191399 2.042069 0.40909
v -0.178174 2.042069 0.40482
v -0.161826 2.042069 0.40482
v -0.148601 2.042069 0.40909
v -0.127203 2.016069 0.416
v -0.135376 2.016069 0.42718
v -0.156775 2.016069 0.43409
v -0.183225 2.016069 0.43409
v -0.204624 2.016069 0.42718
v -0.212798 2.016069 0.416
v -0.204624 2.016069 0.40482
v -0.183225 2.016069 0.39791
v -0.156775 2.016069 0.39791
v -0.135376 2.016069 0.40482
v -0.127203 1.983931 0.416
v -0.135376 1.983931 0.42718
v -0.156775 1.983931 0.43409
v -0.183225 1.983931 0.43409
v -0.204624 1.983931 0.42718
v -0.212798 1.983931 0.416
v -0.204624 1.983931 0.40482
v -0.183225 1.983931 0.39791
v -0.156775 1.983931 0.39791
v -0.135376 1.983931 0.40482
v -0.14355 1.957931 0.416
v -0.148601 1.957931 0.42291
v -0.161826 1.957931 0.42718
v -0.178174 1.957931 0.42718
v -0.191399 1.957931 0.42291
v -0.19645 1.957931 0.416
v -0.191399 1.957931 0.40909
v -0.178174 1.957931 0.40482
v -0.161826 1.957931 0.40482
v -0.148601 1.957931 0.40909
v -0.17 1.948 0.416
v -0.17 1.948 0.416
v -0.17 1.948 0.416
v -0.17 1.948 0.416
v -0.17 1.948 0.416
v -0.17 1.948 0.416
v -0.17 1.948 0.416
v -0.17 1.948 0.416
v -0.17 1.948 0.416
v -0.17 1.948 0.416
f 453 463 464 454
f 454 464 465 455
f 455 465 466 456
f 456 466 467 457
f 457 467 468 458
f 458 468 469 459
f 459 469 470 460
f 460 470 471 461
f 461 471 472 462
f 462 472 463 453
f 463 473 474 464
f 464 474 475 465
f 465 475 476 466
f 466 476 477 467
f 467 477 478 468
f 468 478 479 469
f 469 479 480 470
f 470 480 481 471
f 471 481 482 472
f 472 482 473 463
f 473 483 484 474
f 474 484 485 475
f 475 485 486 476
f 476 486 487 477
f 477 487 488 478
f 478 488 489 479
f 479 489 490 480
f 480 490 491 481
f 481 491 492 482
f 482 492 483 473
f 483 493 494 484
f 484 494 495 485
f 485 495 496 486
f 486 496 497 487
f 487 497 498 488
f 488 498 499 489
f 489 499 500 490
f 490 500 501 491
f 491 501 502 492
f 492 502 493 483
f 493 503 504 494
f 494 504 505 495
f 495 505 506 496
f 496 506 507 497
f 497 507 508 498
f 498 508 509 499
f 499 509 510 500
f 500 510 511 501
f 501 511 512 502
f 502 512 503 493

o Right_Eye
g Right_Eye
usemtl Poko_Green
v 0.17 2.052 0.416
v 0.17 2.052 0.416
v 0.17 2.052 0.416
v 0.17 2.052 0.416
v 0.17 2.052 0.416
v 0.17 2.052 0.416
v 0.17 2.052 0.416
v 0.17 2.052 0.416
v 0.17 2.052 0.416
v 0.17 2.052 0.416
v 0.19645 2.042069 0.416
v 0.191399 2.042069 0.42291
v 0.178174 2.042069 0.42718
v 0.161826 2.042069 0.42718
v 0.148601 2.042069 0.42291
v 0.14355 2.042069 0.416
v 0.148601 2.042069 0.40909
v 0.161826 2.042069 0.40482
v 0.178174 2.042069 0.40482
v 0.191399 2.042069 0.40909
v 0.212798 2.016069 0.416
v 0.204624 2.016069 0.42718
v 0.183225 2.016069 0.43409
v 0.156775 2.016069 0.43409
v 0.135376 2.016069 0.42718
v 0.127203 2.016069 0.416
v 0.135376 2.016069 0.40482
v 0.156775 2.016069 0.39791
v 0.183225 2.016069 0.39791
v 0.204624 2.016069 0.40482
v 0.212798 1.983931 0.416
v 0.204624 1.983931 0.42718
v 0.183225 1.983931 0.43409
v 0.156775 1.983931 0.43409
v 0.135376 1.983931 0.42718
v 0.127203 1.983931 0.416
v 0.135376 1.983931 0.40482
v 0.156775 1.983931 0.39791
v 0.183225 1.983931 0.39791
v 0.204624 1.983931 0.40482
v 0.19645 1.957931 0.416
v 0.191399 1.957931 0.42291
v 0.178174 1.957931 0.42718
v 0.161826 1.957931 0.42718
v 0.148601 1.957931 0.42291
v 0.14355 1.957931 0.416
v 0.148601 1.957931 0.40909
v 0.161826 1.957931 0.40482
v 0.178174 1.957931 0.40482
v 0.191399 1.957931 0.40909
v 0.17 1.948 0.416
v 0.17 1.948 0.416
v 0.17 1.948 0.416
v 0.17 1.948 0.416
v 0.17 1.948 0.416
v 0.17 1.948 0.416
v 0.17 1.948 0.416
v 0.17 1.948 0.416
v 0.17 1.948 0.416
v 0.17 1.948 0.416
f 513 523 524 514
f 514 524 525 515
f 515 525 526 516
f 516 526 527 517
f 517 527 528 518
f 518 528 529 519
f 519 529 530 520
f 520 530 531 521
f 521 531 532 522
f 522 532 523 513
f 523 533 534 524
f 524 534 535 525
f 525 535 536 526
f 526 536 537 527
f 527 537 538 528
f 528 538 539 529
f 529 539 540 530
f 530 540 541 531
f 531 541 542 532
f 532 542 533 523
f 533 543 544 534
f 534 544 545 535
f 535 545 546 536
f 536 546 547 537
f 537 547 548 538
f 538 548 549 539
f 539 549 550 540
f 540 550 551 541
f 541 551 552 542
f 542 552 543 533
f 543 553 554 544
f 544 554 555 545
f 545 555 556 546
f 546 556 557 547
f 547 557 558 548
f 548 558 559 549
f 549 559 560 550
f 550 560 561 551
f 551 561 562 552
f 552 562 553 543
f 553 563 564 554
f 554 564 565 555
f 555 565 566 556
f 556 566 567 557
f 557 567 568 558
f 558 568 569 559
f 559 569 570 560
f 560 570 571 561
f 561 571 572 562
f 562 572 563 553

o Nose
g Nose
usemtl Poko_Ink
v 0 1.935 0.49
v 0 1.935 0.49
v 0 1.935 0.49
v 0 1.935 0.49
v 0 1.935 0.49
v 0 1.935 0.49
v 0 1.935 0.49
v 0 1.935 0.49
v 0 1.935 0.49
v 0 1.935 0.49
v 0.041145 1.924496 0.49
v 0.033287 1.924496 0.505547
v 0.012714 1.924496 0.515156
v -0.012715 1.924496 0.515156
v -0.033287 1.924496 0.505547
v -0.041145 1.924496 0.49
v -0.033287 1.924496 0.474453
v -0.012714 1.924496 0.464844
v 0.012715 1.924496 0.464844
v 0.033287 1.924496 0.474453
v 0.066574 1.896996 0.49
v 0.053859 1.896996 0.515156
v 0.020572 1.896996 0.530703
v -0.020572 1.896996 0.530703
v -0.053859 1.896996 0.515156
v -0.066574 1.896996 0.49
v -0.053859 1.896996 0.464844
v -0.020572 1.896996 0.449297
v 0.020572 1.896996 0.449297
v 0.053859 1.896996 0.464844
v 0.066574 1.863004 0.49
v 0.053859 1.863004 0.515156
v 0.020572 1.863004 0.530703
v -0.020572 1.863004 0.530703
v -0.053859 1.863004 0.515156
v -0.066574 1.863004 0.49
v -0.053859 1.863004 0.464844
v -0.020572 1.863004 0.449297
v 0.020572 1.863004 0.449297
v 0.053859 1.863004 0.464844
v 0.041145 1.835504 0.49
v 0.033287 1.835504 0.505547
v 0.012714 1.835504 0.515156
v -0.012714 1.835504 0.515156
v -0.033287 1.835504 0.505547
v -0.041145 1.835504 0.49
v -0.033287 1.835504 0.474453
v -0.012714 1.835504 0.464844
v 0.012715 1.835504 0.464844
v 0.033287 1.835504 0.474453
v -0 1.825 0.49
v -0 1.825 0.49
v -0 1.825 0.49
v 0 1.825 0.49
v 0 1.825 0.49
v 0 1.825 0.49
v 0 1.825 0.49
v 0 1.825 0.49
v -0 1.825 0.49
v -0 1.825 0.49
f 573 583 584 574
f 574 584 585 575
f 575 585 586 576
f 576 586 587 577
f 577 587 588 578
f 578 588 589 579
f 579 589 590 580
f 580 590 591 581
f 581 591 592 582
f 582 592 583 573
f 583 593 594 584
f 584 594 595 585
f 585 595 596 586
f 586 596 597 587
f 587 597 598 588
f 588 598 599 589
f 589 599 600 590
f 590 600 601 591
f 591 601 602 592
f 592 602 593 583
f 593 603 604 594
f 594 604 605 595
f 595 605 606 596
f 596 606 607 597
f 597 607 608 598
f 598 608 609 599
f 599 609 610 600
f 600 610 611 601
f 601 611 612 602
f 602 612 603 593
f 603 613 614 604
f 604 614 615 605
f 605 615 616 606
f 606 616 617 607
f 607 617 618 608
f 608 618 619 609
f 609 619 620 610
f 610 620 621 611
f 611 621 622 612
f 612 622 613 603
f 613 623 624 614
f 614 624 625 615
f 615 625 626 616
f 616 626 627 617
f 617 627 628 618
f 618 628 629 619
f 619 629 630 620
f 620 630 631 621
f 621 631 632 622
f 622 632 623 613

o Head_Leaf
g Head_Leaf
usemtl Poko_Leaf
v 0 2.375 0.05
v 0 2.375 0.05
v 0 2.375 0.05
v 0 2.375 0.05
v 0 2.375 0.05
v 0 2.375 0.05
v 0 2.375 0.05
v 0 2.375 0.05
v 0 2.375 0.05
v 0 2.375 0.05
v 0.123435 2.368315 0.05
v 0.099861 2.368315 0.167467
v 0.038143 2.368315 0.240066
v -0.038143 2.368315 0.240066
v -0.099861 2.368315 0.167467
v -0.123435 2.368315 0.05
v -0.099861 2.368315 -0.067467
v -0.038143 2.368315 -0.140066
v 0.038144 2.368315 -0.140066
v 0.099861 2.368315 -0.067467
v 0.199722 2.350816 0.05
v 0.161578 2.350816 0.240066
v 0.061717 2.350816 0.357533
v -0.061717 2.350816 0.357533
v -0.161578 2.350816 0.240066
v -0.199722 2.350816 0.05
v -0.161578 2.350816 -0.140066
v -0.061717 2.350816 -0.257533
v 0.061717 2.350816 -0.257533
v 0.161578 2.350816 -0.140066
v 0.199722 2.329184 0.05
v 0.161578 2.329184 0.240066
v 0.061717 2.329184 0.357533
v -0.061717 2.329184 0.357533
v -0.161578 2.329184 0.240066
v -0.199722 2.329184 0.05
v -0.161578 2.329184 -0.140066
v -0.061717 2.329184 -0.257533
v 0.061717 2.329184 -0.257533
v 0.161578 2.329184 -0.140066
v 0.123435 2.311684 0.05
v 0.099861 2.311684 0.167467
v 0.038143 2.311684 0.240066
v -0.038143 2.311684 0.240066
v -0.099861 2.311684 0.167467
v -0.123435 2.311684 0.05
v -0.099861 2.311684 -0.067467
v -0.038143 2.311684 -0.140066
v 0.038143 2.311684 -0.140066
v 0.099861 2.311684 -0.067467
v -0 2.305 0.05
v -0 2.305 0.05
v -0 2.305 0.05
v 0 2.305 0.05
v 0 2.305 0.05
v 0 2.305 0.05
v 0 2.305 0.05
v 0 2.305 0.05
v -0 2.305 0.05
v -0 2.305 0.05
f 633 643 644 634
f 634 644 645 635
f 635 645 646 636
f 636 646 647 637
f 637 647 648 638
f 638 648 649 639
f 639 649 650 640
f 640 650 651 641
f 641 651 652 642
f 642 652 643 633
f 643 653 654 644
f 644 654 655 645
f 645 655 656 646
f 646 656 657 647
f 647 657 658 648
f 648 658 659 649
f 649 659 660 650
f 650 660 661 651
f 651 661 662 652
f 652 662 653 643
f 653 663 664 654
f 654 664 665 655
f 655 665 666 656
f 656 666 667 657
f 657 667 668 658
f 658 668 669 659
f 659 669 670 660
f 660 670 671 661
f 661 671 672 662
f 662 672 663 653
f 663 673 674 664
f 664 674 675 665
f 665 675 676 666
f 666 676 677 667
f 667 677 678 668
f 668 678 679 669
f 669 679 680 670
f 670 680 681 671
f 671 681 682 672
f 672 682 673 663
f 673 683 684 674
f 674 684 685 675
f 675 685 686 676
f 676 686 687 677
f 677 687 688 678
f 678 688 689 679
f 679 689 690 680
f 680 690 691 681
f 681 691 692 682
f 682 692 683 673

o Leaf_Stem
g Leaf_Stem
usemtl Poko_Leaf
v 0 2.320715 -0.103212
v -0.017678 2.323435 -0.096413
v -0.025 2.33 -0.08
v -0.017678 2.336565 -0.063587
v 0 2.339285 -0.056788
v 0.017678 2.336565 -0.063587
v 0.025 2.33 -0.08
v 0.017678 2.323435 -0.096413
v 0 2.470715 -0.163212
v -0.017678 2.473435 -0.156413
v -0.025 2.48 -0.14
v -0.017678 2.486565 -0.123587
v 0 2.489285 -0.116788
v 0.017678 2.486565 -0.123587
v 0.025 2.48 -0.14
v 0.017678 2.473435 -0.156413
f 700 699 698 697 696 695 694 693
f 701 702 703 704 705 706 707 708
f 693 694 702 701
f 694 695 703 702
f 695 696 704 703
f 696 697 705 704
f 697 698 706 705
f 698 699 707 706
f 699 700 708 707
f 700 693 701 708

o L_Upper_Arm
g L_Upper_Arm
usemtl Poko_Brown
v -0.42466 1.56 -0.147959
v -0.327276 1.506194 -0.11965
v -0.272492 1.483907 -0.021251
v -0.292401 1.506194 0.089596
v -0.37534 1.56 0.147959
v -0.472724 1.613806 0.11965
v -0.527508 1.636093 0.021251
v -0.507599 1.613806 -0.089596
v -0.60466 1.25 -0.117959
v -0.507276 1.196194 -0.08965
v -0.452492 1.173907 0.008749
v -0.472401 1.196194 0.119596
v -0.55534 1.25 0.177959
v -0.652724 1.303806 0.14965
v -0.707508 1.326093 0.051251
v -0.687599 1.303806 -0.059596
f 716 715 714 713 712 711 710 709
f 717 718 719 720 721 722 723 724
f 709 710 718 717
f 710 711 719 718
f 711 712 720 719
f 712 713 721 720
f 713 714 722 721
f 714 715 723 722
f 715 716 724 723
f 716 709 717 724

o R_Upper_Arm
g R_Upper_Arm
usemtl Poko_Brown
v 0.37534 1.56 0.147959
v 0.292401 1.506194 0.089596
v 0.272492 1.483907 -0.021251
v 0.327276 1.506194 -0.11965
v 0.42466 1.56 -0.147959
v 0.507599 1.613806 -0.089596
v 0.527508 1.636093 0.021251
v 0.472724 1.613806 0.11965
v 0.55534 1.25 0.177959
v 0.472401 1.196194 0.119596
v 0.452492 1.173907 0.008749
v 0.507276 1.196194 -0.08965
v 0.60466 1.25 -0.117959
v 0.687599 1.303806 -0.059596
v 0.707508 1.326093 0.051251
v 0.652724 1.303806 0.14965
f 732 731 730 729 728 727 726 725
f 733 734 735 736 737 738 739 740
f 725 726 734 733
f 726 727 735 734
f 727 728 736 735
f 728 729 737 736
f 729 730 738 737
f 730 731 739 738
f 731 732 740 739
f 732 725 733 740

o L_Forearm
g L_Forearm
usemtl Poko_Brown
v -0.58 1.272194 0.163163
v -0.671536 1.292412 0.119708
v -0.709451 1.287786 0.023702
v -0.671536 1.261025 -0.068614
v -0.58 1.227806 -0.103163
v -0.488464 1.207588 -0.059707
v -0.450549 1.212214 0.036298
v -0.488464 1.238975 0.128614
v -0.67 0.972194 0.213163
v -0.761536 0.992412 0.169708
v -0.799451 0.987786 0.073702
v -0.761536 0.961025 -0.018614
v -0.67 0.927806 -0.053163
v -0.578464 0.907588 -0.009707
v -0.540549 0.912214 0.086298
v -0.578464 0.938975 0.178614
f 748 747 746 745 744 743 742 741
f 749 750 751 752 753 754 755 756
f 741 742 750 749
f 742 743 751 750
f 743 744 752 751
f 744 745 753 752
f 745 746 754 753
f 746 747 755 754
f 747 748 756 755
f 748 741 749 756

o R_Forearm
g R_Forearm
usemtl Poko_Brown
v 0.58 1.272194 0.163163
v 0.488464 1.238975 0.128614
v 0.450549 1.212214 0.036298
v 0.488464 1.207588 -0.059708
v 0.58 1.227806 -0.103163
v 0.671536 1.261025 -0.068614
v 0.709451 1.287786 0.023702
v 0.671536 1.292412 0.119708
v 0.67 0.972194 0.213163
v 0.578464 0.938975 0.178614
v 0.540549 0.912214 0.086298
v 0.578464 0.907588 -0.009707
v 0.67 0.927806 -0.053163
v 0.761536 0.961025 -0.018614
v 0.799451 0.987786 0.073702
v 0.761536 0.992412 0.169708
f 764 763 762 761 760 759 758 757
f 765 766 767 768 769 770 771 772
f 757 758 766 765
f 758 759 767 766
f 759 760 768 767
f 760 761 769 768
f 761 762 770 769
f 762 763 771 770
f 763 764 772 771
f 764 757 765 772

o L_Glove
g L_Glove
usemtl Poko_Dark
v -0.67 1.11 0.08
v -0.67 1.11 0.08
v -0.67 1.11 0.08
v -0.67 1.11 0.08
v -0.67 1.11 0.08
v -0.67 1.11 0.08
v -0.67 1.11 0.08
v -0.67 1.11 0.08
v -0.67 1.11 0.08
v -0.67 1.11 0.08
v -0.581832 1.079443 0.08
v -0.598671 1.079443 0.124914
v -0.642755 1.079443 0.152672
v -0.697245 1.079443 0.152672
v -0.741329 1.079443 0.124914
v -0.758168 1.079443 0.08
v -0.741329 1.079443 0.035086
v -0.697245 1.079443 0.007328
v -0.642755 1.079443 0.007328
v -0.598671 1.079443 0.035086
v -0.527342 0.999443 0.08
v -0.554587 0.999443 0.152672
v -0.625916 0.999443 0.197586
v -0.714084 0.999443 0.197586
v -0.785413 0.999443 0.152672
v -0.812659 0.999443 0.08
v -0.785413 0.999443 0.007328
v -0.714084 0.999443 -0.037586
v -0.625916 0.999443 -0.037586
v -0.554587 0.999443 0.007328
v -0.527342 0.900557 0.08
v -0.554587 0.900557 0.152672
v -0.625916 0.900557 0.197586
v -0.714084 0.900557 0.197586
v -0.785413 0.900557 0.152672
v -0.812659 0.900557 0.08
v -0.785413 0.900557 0.007328
v -0.714084 0.900557 -0.037586
v -0.625916 0.900557 -0.037586
v -0.554587 0.900557 0.007328
v -0.581832 0.820557 0.08
v -0.598671 0.820557 0.124914
v -0.642755 0.820557 0.152672
v -0.697245 0.820557 0.152672
v -0.741329 0.820557 0.124914
v -0.758168 0.820557 0.08
v -0.741329 0.820557 0.035086
v -0.697245 0.820557 0.007328
v -0.642755 0.820557 0.007328
v -0.598671 0.820557 0.035086
v -0.67 0.79 0.08
v -0.67 0.79 0.08
v -0.67 0.79 0.08
v -0.67 0.79 0.08
v -0.67 0.79 0.08
v -0.67 0.79 0.08
v -0.67 0.79 0.08
v -0.67 0.79 0.08
v -0.67 0.79 0.08
v -0.67 0.79 0.08
f 773 783 784 774
f 774 784 785 775
f 775 785 786 776
f 776 786 787 777
f 777 787 788 778
f 778 788 789 779
f 779 789 790 780
f 780 790 791 781
f 781 791 792 782
f 782 792 783 773
f 783 793 794 784
f 784 794 795 785
f 785 795 796 786
f 786 796 797 787
f 787 797 798 788
f 788 798 799 789
f 789 799 800 790
f 790 800 801 791
f 791 801 802 792
f 792 802 793 783
f 793 803 804 794
f 794 804 805 795
f 795 805 806 796
f 796 806 807 797
f 797 807 808 798
f 798 808 809 799
f 799 809 810 800
f 800 810 811 801
f 801 811 812 802
f 802 812 803 793
f 803 813 814 804
f 804 814 815 805
f 805 815 816 806
f 806 816 817 807
f 807 817 818 808
f 808 818 819 809
f 809 819 820 810
f 810 820 821 811
f 811 821 822 812
f 812 822 813 803
f 813 823 824 814
f 814 824 825 815
f 815 825 826 816
f 816 826 827 817
f 817 827 828 818
f 818 828 829 819
f 819 829 830 820
f 820 830 831 821
f 821 831 832 822
f 822 832 823 813

o R_Glove
g R_Glove
usemtl Poko_Dark
v 0.67 1.11 0.08
v 0.67 1.11 0.08
v 0.67 1.11 0.08
v 0.67 1.11 0.08
v 0.67 1.11 0.08
v 0.67 1.11 0.08
v 0.67 1.11 0.08
v 0.67 1.11 0.08
v 0.67 1.11 0.08
v 0.67 1.11 0.08
v 0.758168 1.079443 0.08
v 0.741329 1.079443 0.124914
v 0.697245 1.079443 0.152672
v 0.642755 1.079443 0.152672
v 0.598671 1.079443 0.124914
v 0.581832 1.079443 0.08
v 0.598671 1.079443 0.035086
v 0.642755 1.079443 0.007328
v 0.697245 1.079443 0.007328
v 0.741329 1.079443 0.035086
v 0.812659 0.999443 0.08
v 0.785413 0.999443 0.152672
v 0.714084 0.999443 0.197586
v 0.625916 0.999443 0.197586
v 0.554587 0.999443 0.152672
v 0.527342 0.999443 0.08
v 0.554587 0.999443 0.007328
v 0.625916 0.999443 -0.037586
v 0.714084 0.999443 -0.037586
v 0.785413 0.999443 0.007328
v 0.812659 0.900557 0.08
v 0.785413 0.900557 0.152672
v 0.714084 0.900557 0.197586
v 0.625916 0.900557 0.197586
v 0.554587 0.900557 0.152672
v 0.527342 0.900557 0.08
v 0.554587 0.900557 0.007328
v 0.625916 0.900557 -0.037586
v 0.714084 0.900557 -0.037586
v 0.785413 0.900557 0.007328
v 0.758168 0.820557 0.08
v 0.741329 0.820557 0.124914
v 0.697245 0.820557 0.152672
v 0.642755 0.820557 0.152672
v 0.598671 0.820557 0.124914
v 0.581832 0.820557 0.08
v 0.598671 0.820557 0.035086
v 0.642755 0.820557 0.007328
v 0.697245 0.820557 0.007328
v 0.741329 0.820557 0.035086
v 0.67 0.79 0.08
v 0.67 0.79 0.08
v 0.67 0.79 0.08
v 0.67 0.79 0.08
v 0.67 0.79 0.08
v 0.67 0.79 0.08
v 0.67 0.79 0.08
v 0.67 0.79 0.08
v 0.67 0.79 0.08
v 0.67 0.79 0.08
f 833 843 844 834
f 834 844 845 835
f 835 845 846 836
f 836 846 847 837
f 837 847 848 838
f 838 848 849 839
f 839 849 850 840
f 840 850 851 841
f 841 851 852 842
f 842 852 843 833
f 843 853 854 844
f 844 854 855 845
f 845 855 856 846
f 846 856 857 847
f 847 857 858 848
f 848 858 859 849
f 849 859 860 850
f 850 860 861 851
f 851 861 862 852
f 852 862 853 843
f 853 863 864 854
f 854 864 865 855
f 855 865 866 856
f 856 866 867 857
f 857 867 868 858
f 858 868 869 859
f 859 869 870 860
f 860 870 871 861
f 861 871 872 862
f 862 872 863 853
f 863 873 874 864
f 864 874 875 865
f 865 875 876 866
f 866 876 877 867
f 867 877 878 868
f 868 878 879 869
f 869 879 880 870
f 870 880 881 871
f 871 881 882 872
f 872 882 873 863
f 873 883 884 874
f 874 884 885 875
f 875 885 886 876
f 876 886 887 877
f 877 887 888 878
f 878 888 889 879
f 879 889 890 880
f 880 890 891 881
f 881 891 892 882
f 882 892 883 873

o L_Thigh
g L_Thigh
usemtl Poko_Brown
v -0.22 1 0.18
v -0.347279 1 0.127279
v -0.4 1 -0
v -0.347279 1 -0.127279
v -0.22 1 -0.18
v -0.092721 1 -0.127279
v -0.04 1 0
v -0.092721 1 0.127279
v -0.22 0.55 0.18
v -0.347279 0.55 0.127279
v -0.4 0.55 -0
v -0.347279 0.55 -0.127279
v -0.22 0.55 -0.18
v -0.092721 0.55 -0.127279
v -0.04 0.55 0
v -0.092721 0.55 0.127279
f 900 899 898 897 896 895 894 893
f 901 902 903 904 905 906 907 908
f 893 894 902 901
f 894 895 903 902
f 895 896 904 903
f 896 897 905 904
f 897 898 906 905
f 898 899 907 906
f 899 900 908 907
f 900 893 901 908

o R_Thigh
g R_Thigh
usemtl Poko_Brown
v 0.22 1 0.18
v 0.092721 1 0.127279
v 0.04 1 -0
v 0.092721 1 -0.127279
v 0.22 1 -0.18
v 0.347279 1 -0.127279
v 0.4 1 0
v 0.347279 1 0.127279
v 0.22 0.55 0.18
v 0.092721 0.55 0.127279
v 0.04 0.55 -0
v 0.092721 0.55 -0.127279
v 0.22 0.55 -0.18
v 0.347279 0.55 -0.127279
v 0.4 0.55 0
v 0.347279 0.55 0.127279
f 916 915 914 913 912 911 910 909
f 917 918 919 920 921 922 923 924
f 909 910 918 917
f 910 911 919 918
f 911 912 920 919
f 912 913 921 920
f 913 914 922 921
f 914 915 923 922
f 915 916 924 923
f 916 909 917 924

o L_Shin
g L_Shin
usemtl Poko_Brown
v -0.22 0.55 0.15
v -0.326066 0.55 0.106066
v -0.37 0.55 -0
v -0.326066 0.55 -0.106066
v -0.22 0.55 -0.15
v -0.113934 0.55 -0.106066
v -0.07 0.55 0
v -0.113934 0.55 0.106066
v -0.22 0.16 0.15
v -0.326066 0.16 0.106066
v -0.37 0.16 -0
v -0.326066 0.16 -0.106066
v -0.22 0.16 -0.15
v -0.113934 0.16 -0.106066
v -0.07 0.16 0
v -0.113934 0.16 0.106066
f 932 931 930 929 928 927 926 925
f 933 934 935 936 937 938 939 940
f 925 926 934 933
f 926 927 935 934
f 927 928 936 935
f 928 929 937 936
f 929 930 938 937
f 930 931 939 938
f 931 932 940 939
f 932 925 933 940

o R_Shin
g R_Shin
usemtl Poko_Brown
v 0.22 0.55 0.15
v 0.113934 0.55 0.106066
v 0.07 0.55 -0
v 0.113934 0.55 -0.106066
v 0.22 0.55 -0.15
v 0.326066 0.55 -0.106066
v 0.37 0.55 0
v 0.326066 0.55 0.106066
v 0.22 0.16 0.15
v 0.113934 0.16 0.106066
v 0.07 0.16 -0
v 0.113934 0.16 -0.106066
v 0.22 0.16 -0.15
v 0.326066 0.16 -0.106066
v 0.37 0.16 0
v 0.326066 0.16 0.106066
f 948 947 946 945 944 943 942 941
f 949 950 951 952 953 954 955 956
f 941 942 950 949
f 942 943 951 950
f 943 944 952 951
f 944 945 953 952
f 945 946 954 953
f 946 947 955 954
f 947 948 956 955
f 948 941 949 956

o L_Shoe
g L_Shoe
usemtl Poko_Gold
v -0.39 -0.005 -0.11
v -0.05 -0.005 -0.11
v -0.05 0.165 -0.11
v -0.39 0.165 -0.11
v -0.39 -0.005 0.37
v -0.05 -0.005 0.37
v -0.05 0.165 0.37
v -0.39 0.165 0.37
f 957 960 959 958
f 961 962 963 964
f 957 958 962 961
f 960 964 963 959
f 958 959 963 962
f 957 961 964 960

o R_Shoe
g R_Shoe
usemtl Poko_Gold
v 0.05 -0.005 -0.11
v 0.39 -0.005 -0.11
v 0.39 0.165 -0.11
v 0.05 0.165 -0.11
v 0.05 -0.005 0.37
v 0.39 -0.005 0.37
v 0.39 0.165 0.37
v 0.05 0.165 0.37
f 965 968 967 966
f 969 970 971 972
f 965 966 970 969
f 968 972 971 967
f 966 967 971 970
f 965 969 972 968

o Tail_0
g Tail_0
usemtl Poko_Brown
v -0.32 1.5 -0.34
v -0.32 1.5 -0.34
v -0.32 1.5 -0.34
v -0.32 1.5 -0.34
v -0.32 1.5 -0.34
v -0.32 1.5 -0.34
v -0.32 1.5 -0.34
v -0.32 1.5 -0.34
v -0.32 1.5 -0.34
v -0.32 1.5 -0.34
v -0.096642 1.419787 -0.34
v -0.139299 1.419787 -0.229443
v -0.250979 1.419787 -0.161115
v -0.389022 1.419787 -0.161115
v -0.500701 1.419787 -0.229443
v -0.543358 1.419787 -0.34
v -0.500701 1.419787 -0.450557
v -0.389022 1.419787 -0.518885
v -0.250978 1.419787 -0.518885
v -0.139299 1.419787 -0.450557
v 0.041401 1.209787 -0.34
v -0.02762 1.209787 -0.161115
v -0.208321 1.209787 -0.050557
v -0.431679 1.209787 -0.050557
v -0.61238 1.209787 -0.161115
v -0.681402 1.209787 -0.34
v -0.61238 1.209787 -0.518886
v -0.431679 1.209787 -0.629443
v -0.208321 1.209787 -0.629443
v -0.02762 1.209787 -0.518886
v 0.041401 0.950213 -0.34
v -0.02762 0.950213 -0.161115
v -0.208321 0.950213 -0.050557
v -0.431679 0.950213 -0.050557
v -0.61238 0.950213 -0.161115
v -0.681402 0.950213 -0.34
v -0.61238 0.950213 -0.518886
v -0.431679 0.950213 -0.629443
v -0.208321 0.950213 -0.629443
v -0.02762 0.950213 -0.518885
v -0.096642 0.740213 -0.34
v -0.139299 0.740213 -0.229443
v -0.250979 0.740213 -0.161115
v -0.389022 0.740213 -0.161115
v -0.500701 0.740213 -0.229443
v -0.543358 0.740213 -0.34
v -0.500701 0.740213 -0.450557
v -0.389022 0.740213 -0.518885
v -0.250978 0.740213 -0.518885
v -0.139299 0.740213 -0.450557
v -0.32 0.66 -0.34
v -0.32 0.66 -0.34
v -0.32 0.66 -0.34
v -0.32 0.66 -0.34
v -0.32 0.66 -0.34
v -0.32 0.66 -0.34
v -0.32 0.66 -0.34
v -0.32 0.66 -0.34
v -0.32 0.66 -0.34
v -0.32 0.66 -0.34
f 973 983 984 974
f 974 984 985 975
f 975 985 986 976
f 976 986 987 977
f 977 987 988 978
f 978 988 989 979
f 979 989 990 980
f 980 990 991 981
f 981 991 992 982
f 982 992 983 973
f 983 993 994 984
f 984 994 995 985
f 985 995 996 986
f 986 996 997 987
f 987 997 998 988
f 988 998 999 989
f 989 999 1000 990
f 990 1000 1001 991
f 991 1001 1002 992
f 992 1002 993 983
f 993 1003 1004 994
f 994 1004 1005 995
f 995 1005 1006 996
f 996 1006 1007 997
f 997 1007 1008 998
f 998 1008 1009 999
f 999 1009 1010 1000
f 1000 1010 1011 1001
f 1001 1011 1012 1002
f 1002 1012 1003 993
f 1003 1013 1014 1004
f 1004 1014 1015 1005
f 1005 1015 1016 1006
f 1006 1016 1017 1007
f 1007 1017 1018 1008
f 1008 1018 1019 1009
f 1009 1019 1020 1010
f 1010 1020 1021 1011
f 1011 1021 1022 1012
f 1012 1022 1013 1003
f 1013 1023 1024 1014
f 1014 1024 1025 1015
f 1015 1025 1026 1016
f 1016 1026 1027 1017
f 1017 1027 1028 1018
f 1018 1028 1029 1019
f 1019 1029 1030 1020
f 1020 1030 1031 1021
f 1021 1031 1032 1022
f 1022 1032 1023 1013

o Tail_1
g Tail_1
usemtl Poko_Dark
v -0.67 1.73 -0.43
v -0.67 1.73 -0.43
v -0.67 1.73 -0.43
v -0.67 1.73 -0.43
v -0.67 1.73 -0.43
v -0.67 1.73 -0.43
v -0.67 1.73 -0.43
v -0.67 1.73 -0.43
v -0.67 1.73 -0.43
v -0.67 1.73 -0.43
v -0.42313 1.638328 -0.43
v -0.470278 1.638328 -0.309078
v -0.593713 1.638328 -0.234344
v -0.746287 1.638328 -0.234344
v -0.869722 1.638328 -0.309078
v -0.91687 1.638328 -0.43
v -0.869722 1.638328 -0.550922
v -0.746287 1.638328 -0.625656
v -0.593713 1.638328 -0.625656
v -0.470278 1.638328 -0.550922
v -0.270556 1.398328 -0.43
v -0.346843 1.398328 -0.234344
v -0.546565 1.398328 -0.113422
v -0.793435 1.398328 -0.113422
v -0.993157 1.398328 -0.234344
v -1.069444 1.398328 -0.43
v -0.993157 1.398328 -0.625656
v -0.793435 1.398328 -0.746578
v -0.546565 1.398328 -0.746578
v -0.346843 1.398328 -0.625656
v -0.270556 1.101672 -0.43
v -0.346843 1.101672 -0.234344
v -0.546565 1.101672 -0.113422
v -0.793435 1.101672 -0.113422
v -0.993157 1.101672 -0.234344
v -1.069444 1.101672 -0.43
v -0.993157 1.101672 -0.625656
v -0.793435 1.101672 -0.746578
v -0.546565 1.101672 -0.746578
v -0.346843 1.101672 -0.625656
v -0.42313 0.861672 -0.43
v -0.470278 0.861672 -0.309078
v -0.593713 0.861672 -0.234344
v -0.746287 0.861672 -0.234344
v -0.869722 0.861672 -0.309078
v -0.91687 0.861672 -0.43
v -0.869722 0.861672 -0.550922
v -0.746287 0.861672 -0.625656
v -0.593713 0.861672 -0.625656
v -0.470278 0.861672 -0.550922
v -0.67 0.77 -0.43
v -0.67 0.77 -0.43
v -0.67 0.77 -0.43
v -0.67 0.77 -0.43
v -0.67 0.77 -0.43
v -0.67 0.77 -0.43
v -0.67 0.77 -0.43
v -0.67 0.77 -0.43
v -0.67 0.77 -0.43
v -0.67 0.77 -0.43
f 1033 1043 1044 1034
f 1034 1044 1045 1035
f 1035 1045 1046 1036
f 1036 1046 1047 1037
f 1037 1047 1048 1038
f 1038 1048 1049 1039
f 1039 1049 1050 1040
f 1040 1050 1051 1041
f 1041 1051 1052 1042
f 1042 1052 1043 1033
f 1043 1053 1054 1044
f 1044 1054 1055 1045
f 1045 1055 1056 1046
f 1046 1056 1057 1047
f 1047 1057 1058 1048
f 1048 1058 1059 1049
f 1049 1059 1060 1050
f 1050 1060 1061 1051
f 1051 1061 1062 1052
f 1052 1062 1053 1043
f 1053 1063 1064 1054
f 1054 1064 1065 1055
f 1055 1065 1066 1056
f 1056 1066 1067 1057
f 1057 1067 1068 1058
f 1058 1068 1069 1059
f 1059 1069 1070 1060
f 1060 1070 1071 1061
f 1061 1071 1072 1062
f 1062 1072 1063 1053
f 1063 1073 1074 1064
f 1064 1074 1075 1065
f 1065 1075 1076 1066
f 1066 1076 1077 1067
f 1067 1077 1078 1068
f 1068 1078 1079 1069
f 1069 1079 1080 1070
f 1070 1080 1081 1071
f 1071 1081 1082 1072
f 1072 1082 1073 1063
f 1073 1083 1084 1074
f 1074 1084 1085 1075
f 1075 1085 1086 1076
f 1076 1086 1087 1077
f 1077 1087 1088 1078
f 1078 1088 1089 1079
f 1079 1089 1090 1080
f 1080 1090 1091 1081
f 1081 1091 1092 1082
f 1082 1092 1083 1073

o Tail_2
g Tail_2
usemtl Poko_Cream
v -0.97 1.95 -0.44
v -0.97 1.95 -0.44
v -0.97 1.95 -0.44
v -0.97 1.95 -0.44
v -0.97 1.95 -0.44
v -0.97 1.95 -0.44
v -0.97 1.95 -0.44
v -0.97 1.95 -0.44
v -0.97 1.95 -0.44
v -0.97 1.95 -0.44
v -0.746642 1.860238 -0.44
v -0.789299 1.860238 -0.322533
v -0.900979 1.860238 -0.249934
v -1.039022 1.860238 -0.249934
v -1.150701 1.860238 -0.322533
v -1.193358 1.860238 -0.44
v -1.150701 1.860238 -0.557467
v -1.039021 1.860238 -0.630066
v -0.900978 1.860238 -0.630066
v -0.789299 1.860238 -0.557467
v -0.608599 1.625238 -0.44
v -0.67762 1.625238 -0.249934
v -0.858321 1.625238 -0.132467
v -1.081679 1.625238 -0.132467
v -1.26238 1.625238 -0.249934
v -1.331401 1.625238 -0.44
v -1.26238 1.625238 -0.630066
v -1.081679 1.625238 -0.747533
v -0.858321 1.625238 -0.747533
v -0.67762 1.625238 -0.630066
v -0.608599 1.334762 -0.44
v -0.67762 1.334762 -0.249934
v -0.858321 1.334762 -0.132467
v -1.081679 1.334762 -0.132467
v -1.26238 1.334762 -0.249934
v -1.331401 1.334762 -0.44
v -1.26238 1.334762 -0.630066
v -1.081679 1.334762 -0.747533
v -0.858321 1.334762 -0.747533
v -0.67762 1.334762 -0.630066
v -0.746642 1.099762 -0.44
v -0.789299 1.099762 -0.322533
v -0.900979 1.099762 -0.249934
v -1.039022 1.099762 -0.249934
v -1.150701 1.099762 -0.322533
v -1.193358 1.099762 -0.44
v -1.150701 1.099762 -0.557467
v -1.039021 1.099762 -0.630066
v -0.900978 1.099762 -0.630066
v -0.789299 1.099762 -0.557467
v -0.97 1.01 -0.44
v -0.97 1.01 -0.44
v -0.97 1.01 -0.44
v -0.97 1.01 -0.44
v -0.97 1.01 -0.44
v -0.97 1.01 -0.44
v -0.97 1.01 -0.44
v -0.97 1.01 -0.44
v -0.97 1.01 -0.44
v -0.97 1.01 -0.44
f 1093 1103 1104 1094
f 1094 1104 1105 1095
f 1095 1105 1106 1096
f 1096 1106 1107 1097
f 1097 1107 1108 1098
f 1098 1108 1109 1099
f 1099 1109 1110 1100
f 1100 1110 1111 1101
f 1101 1111 1112 1102
f 1102 1112 1103 1093
f 1103 1113 1114 1104
f 1104 1114 1115 1105
f 1105 1115 1116 1106
f 1106 1116 1117 1107
f 1107 1117 1118 1108
f 1108 1118 1119 1109
f 1109 1119 1120 1110
f 1110 1120 1121 1111
f 1111 1121 1122 1112
f 1112 1122 1113 1103
f 1113 1123 1124 1114
f 1114 1124 1125 1115
f 1115 1125 1126 1116
f 1116 1126 1127 1117
f 1117 1127 1128 1118
f 1118 1128 1129 1119
f 1119 1129 1130 1120
f 1120 1130 1131 1121
f 1121 1131 1132 1122
f 1122 1132 1123 1113
f 1123 1133 1134 1124
f 1124 1134 1135 1125
f 1125 1135 1136 1126
f 1126 1136 1137 1127
f 1127 1137 1138 1128
f 1128 1138 1139 1129
f 1129 1139 1140 1130
f 1130 1140 1141 1131
f 1131 1141 1142 1132
f 1132 1142 1133 1123
f 1133 1143 1144 1134
f 1134 1144 1145 1135
f 1135 1145 1146 1136
f 1136 1146 1147 1137
f 1137 1147 1148 1138
f 1138 1148 1149 1139
f 1139 1149 1150 1140
f 1140 1150 1151 1141
f 1141 1151 1152 1142
f 1142 1152 1143 1133

o Racket_Handle
g Racket_Handle
usemtl Poko_Green
v 0.88 0.48 0.065
v 0.841109 0.48 0.081109
v 0.825 0.48 0.12
v 0.841109 0.48 0.158891
v 0.88 0.48 0.175
v 0.918891 0.48 0.158891
v 0.935 0.48 0.12
v 0.918891 0.48 0.081109
v 0.88 1.2 0.065
v 0.841109 1.2 0.081109
v 0.825 1.2 0.12
v 0.841109 1.2 0.158891
v 0.88 1.2 0.175
v 0.918891 1.2 0.158891
v 0.935 1.2 0.12
v 0.918891 1.2 0.081109
f 1160 1159 1158 1157 1156 1155 1154 1153
f 1161 1162 1163 1164 1165 1166 1167 1168
f 1153 1154 1162 1161
f 1154 1155 1163 1162
f 1155 1156 1164 1163
f 1156 1157 1165 1164
f 1157 1158 1166 1165
f 1158 1159 1167 1166
f 1159 1160 1168 1167
f 1160 1153 1161 1168

o Racket_Frame
g Racket_Frame
usemtl Poko_Gold
v 1.225 1.57 0.12
v 1.19 1.57 0.155
v 1.155 1.57 0.12
v 1.19 1.57 0.085
v 1.190834 1.767417 0.12
v 1.1593 1.752231 0.155
v 1.127766 1.737045 0.12
v 1.1593 1.752231 0.085
v 1.095104 1.925733 0.12
v 1.073282 1.898369 0.155
v 1.05146 1.871005 0.12
v 1.073282 1.898369 0.085
v 0.95677 2.013592 0.12
v 0.948982 1.97947 0.155
v 0.941193 1.945347 0.12
v 0.948982 1.97947 0.085
v 0.80323 2.013592 0.12
v 0.811019 1.97947 0.155
v 0.818807 1.945347 0.12
v 0.811019 1.97947 0.085
v 0.664896 1.925733 0.12
v 0.686718 1.898369 0.155
v 0.70854 1.871005 0.12
v 0.686718 1.898369 0.085
v 0.569166 1.767417 0.12
v 0.6007 1.752231 0.155
v 0.632234 1.737045 0.12
v 0.6007 1.752231 0.085
v 0.535 1.57 0.12
v 0.57 1.57 0.155
v 0.605 1.57 0.12
v 0.57 1.57 0.085
v 0.569166 1.372583 0.12
v 0.6007 1.387769 0.155
v 0.632234 1.402955 0.12
v 0.6007 1.387769 0.085
v 0.664896 1.214267 0.12
v 0.686718 1.241631 0.155
v 0.70854 1.268995 0.12
v 0.686718 1.241631 0.085
v 0.80323 1.126408 0.12
v 0.811019 1.16053 0.155
v 0.818807 1.194653 0.12
v 0.811019 1.16053 0.085
v 0.95677 1.126408 0.12
v 0.948982 1.16053 0.155
v 0.941193 1.194653 0.12
v 0.948982 1.16053 0.085
v 1.095104 1.214267 0.12
v 1.073282 1.241631 0.155
v 1.05146 1.268995 0.12
v 1.073282 1.241631 0.085
v 1.190834 1.372583 0.12
v 1.1593 1.387769 0.155
v 1.127766 1.402955 0.12
v 1.1593 1.387769 0.085
f 1169 1173 1174 1170
f 1170 1174 1175 1171
f 1171 1175 1176 1172
f 1172 1176 1173 1169
f 1173 1177 1178 1174
f 1174 1178 1179 1175
f 1175 1179 1180 1176
f 1176 1180 1177 1173
f 1177 1181 1182 1178
f 1178 1182 1183 1179
f 1179 1183 1184 1180
f 1180 1184 1181 1177
f 1181 1185 1186 1182
f 1182 1186 1187 1183
f 1183 1187 1188 1184
f 1184 1188 1185 1181
f 1185 1189 1190 1186
f 1186 1190 1191 1187
f 1187 1191 1192 1188
f 1188 1192 1189 1185
f 1189 1193 1194 1190
f 1190 1194 1195 1191
f 1191 1195 1196 1192
f 1192 1196 1193 1189
f 1193 1197 1198 1194
f 1194 1198 1199 1195
f 1195 1199 1200 1196
f 1196 1200 1197 1193
f 1197 1201 1202 1198
f 1198 1202 1203 1199
f 1199 1203 1204 1200
f 1200 1204 1201 1197
f 1201 1205 1206 1202
f 1202 1206 1207 1203
f 1203 1207 1208 1204
f 1204 1208 1205 1201
f 1205 1209 1210 1206
f 1206 1210 1211 1207
f 1207 1211 1212 1208
f 1208 1212 1209 1205
f 1209 1213 1214 1210
f 1210 1214 1215 1211
f 1211 1215 1216 1212
f 1212 1216 1213 1209
f 1213 1217 1218 1214
f 1214 1218 1219 1215
f 1215 1219 1220 1216
f 1216 1220 1217 1213
f 1217 1221 1222 1218
f 1218 1222 1223 1219
f 1219 1223 1224 1220
f 1220 1224 1221 1217
f 1221 1169 1170 1222
f 1222 1170 1171 1223
f 1223 1171 1172 1224
f 1224 1172 1169 1221

o Racket_Strings_H
g Racket_Strings_H
usemtl Paper
v 0.615 1.5575 0.1075
v 1.145 1.5575 0.1075
v 1.145 1.5825 0.1075
v 0.615 1.5825 0.1075
v 0.615 1.5575 0.1325
v 1.145 1.5575 0.1325
v 1.145 1.5825 0.1325
v 0.615 1.5825 0.1325
f 1225 1228 1227 1226
f 1229 1230 1231 1232
f 1225 1226 1230 1229
f 1228 1232 1231 1227
f 1226 1227 1231 1230
f 1225 1229 1232 1228

o Racket_Strings_V
g Racket_Strings_V
usemtl Paper
v 0.8675 1.21 0.1075
v 0.8925 1.21 0.1075
v 0.8925 1.93 0.1075
v 0.8675 1.93 0.1075
v 0.8675 1.21 0.1325
v 0.8925 1.21 0.1325
v 0.8925 1.93 0.1325
v 0.8675 1.93 0.1325
f 1233 1236 1235 1234
f 1237 1238 1239 1240
f 1233 1234 1238 1237
f 1236 1240 1239 1235
f 1234 1235 1239 1238
f 1233 1237 1240 1236
