# Pride Court deterministic low-poly character model
mtllib Zephyr_Jet_Model_v1.mtl
s off

o Pelvis
g Pelvis
usemtl Zephyr_Gunmetal
v -0.35 1.15 -0.21
v 0.35 1.15 -0.21
v 0.35 1.49 -0.21
v -0.35 1.49 -0.21
v -0.35 1.15 0.21
v 0.35 1.15 0.21
v 0.35 1.49 0.21
v -0.35 1.49 0.21
f 1 4 3 2
f 5 6 7 8
f 1 2 6 5
f 4 8 7 3
f 2 3 7 6
f 1 5 8 4

o Torso
g Torso
usemtl Zephyr_White
v -0.39 1.44 -0.22
v 0.39 1.44 -0.22
v 0.39 2.22 -0.22
v -0.39 2.22 -0.22
v -0.39 1.44 0.22
v 0.39 1.44 0.22
v 0.39 2.22 0.22
v -0.39 2.22 0.22
f 9 12 11 10
f 13 14 15 16
f 9 10 14 13
f 12 16 15 11
f 10 11 15 14
f 9 13 16 12

o Chest_Accent
g Chest_Accent
usemtl Zephyr_Cyan
v -0.17 1.66 0.21
v 0.17 1.66 0.21
v 0.17 2.14 0.21
v -0.17 2.14 0.21
v -0.17 1.66 0.26
v 0.17 1.66 0.26
v 0.17 2.14 0.26
v -0.17 2.14 0.26
f 17 20 19 18
f 21 22 23 24
f 17 18 22 21
f 20 24 23 19
f 18 19 23 22
f 17 21 24 20

o Backpack
g Backpack
usemtl Zephyr_Gunmetal
v -0.23 1.69 -0.39
v 0.23 1.69 -0.39
v 0.23 2.23 -0.39
v -0.23 2.23 -0.39
v -0.23 1.69 -0.17
v 0.23 1.69 -0.17
v 0.23 2.23 -0.17
v -0.23 2.23 -0.17
f 25 28 27 26
f 29 30 31 32
f 25 26 30 29
f 28 32 31 27
f 26 27 31 30
f 25 29 32 28

o Jet_Core
g Jet_Core
usemtl Zephyr_Cyan
v 0 1.72 -0.54
v -0.084853 1.72 -0.504853
v -0.12 1.72 -0.42
v -0.084853 1.72 -0.335147
v 0 1.72 -0.3
v 0.084853 1.72 -0.335147
v 0.12 1.72 -0.42
v 0.084853 1.72 -0.504853
v 0 2.13 -0.54
v -0.084853 2.13 -0.504853
v -0.12 2.13 -0.42
v -0.084853 2.13 -0.335147
v 0 2.13 -0.3
v 0.084853 2.13 -0.335147
v 0.12 2.13 -0.42
v 0.084853 2.13 -0.504853
f 40 39 38 37 36 35 34 33
f 41 42 43 44 45 46 47 48
f 33 34 42 41
f 34 35 43 42
f 35 36 44 43
f 36 37 45 44
f 37 38 46 45
f 38 39 47 46
f 39 40 48 47
f 40 33 41 48

o Head
g Head
usemtl Zephyr_White
v 0 2.77 0
v 0 2.77 0
v 0 2.77 0
v 0 2.77 0
v 0 2.77 0
v 0 2.77 0
v 0 2.77 0
v 0 2.77 0
v 0 2.77 0
v 0 2.77 0
v 0.182213 2.705066 0
v 0.147414 2.705066 0.103647
v 0.056307 2.705066 0.167705
v -0.056307 2.705066 0.167705
v -0.147414 2.705066 0.103647
v -0.182213 2.705066 -0
v -0.147414 2.705066 -0.103648
v -0.056307 2.705066 -0.167705
v 0.056307 2.705066 -0.167705
v 0.147414 2.705066 -0.103648
v 0.294828 2.535066 0
v 0.238521 2.535066 0.167705
v 0.091107 2.535066 0.271353
v -0.091107 2.535066 0.271353
v -0.238521 2.535066 0.167705
v -0.294828 2.535066 -0
v -0.238521 2.535066 -0.167705
v -0.091107 2.535066 -0.271353
v 0.091107 2.535066 -0.271353
v 0.238521 2.535066 -0.167705
v 0.294828 2.324934 0
v 0.238521 2.324934 0.167705
v 0.091107 2.324934 0.271353
v -0.091107 2.324934 0.271353
v -0.238521 2.324934 0.167705
v -0.294828 2.324934 -0
v -0.238521 2.324934 -0.167705
v -0.091107 2.324934 -0.271353
v 0.091107 2.324934 -0.271353
v 0.238521 2.324934 -0.167705
v 0.182213 2.154934 0
v 0.147414 2.154934 0.103647
v 0.056307 2.154934 0.167705
v -0.056307 2.154934 0.167705
v -0.147414 2.154934 0.103647
v -0.182213 2.154934 -0
v -0.147414 2.154934 -0.103648
v -0.056307 2.154934 -0.167705
v 0.056307 2.154934 -0.167705
v 0.147414 2.154934 -0.103647
v -0 2.09 0
v -0 2.09 -0
v -0 2.09 -0
v 0 2.09 -0
v 0 2.09 -0
v 0 2.09 0
v 0 2.09 0
v 0 2.09 0
v -0 2.09 0
v -0 2.09 0
f 49 59 60 50
f 50 60 61 51
f 51 61 62 52
f 52 62 63 53
f 53 63 64 54
f 54 64 65 55
f 55 65 66 56
f 56 66 67 57
f 57 67 68 58
f 58 68 59 49
f 59 69 70 60
f 60 70 71 61
f 61 71 72 62
f 62 72 73 63
f 63 73 74 64
f 64 74 75 65
f 65 75 76 66
f 66 76 77 67
f 67 77 78 68
f 68 78 69 59
f 69 79 80 70
f 70 80 81 71
f 71 81 82 72
f 72 82 83 73
f 73 83 84 74
f 74 84 85 75
f 75 85 86 76
f 76 86 87 77
f 77 87 88 78
f 78 88 79 69
f 79 89 90 80
f 80 90 91 81
f 81 91 92 82
f 82 92 93 83
f 83 93 94 84
f 84 94 95 85
f 85 95 96 86
f 86 96 97 87
f 87 97 98 88
f 88 98 89 79
f 89 99 100 90
f 90 100 101 91
f 91 101 102 92
f 92 102 103 93
f 93 103 104 94
f 94 104 105 95
f 95 105 106 96
f 96 106 107 97
f 97 107 108 98
f 98 108 99 89

o Cockpit_Visor
g Cockpit_Visor
usemtl Zephyr_Visor
v -0.215 2.36 0.2625
v 0.215 2.36 0.2625
v 0.215 2.5 0.2625
v -0.215 2.5 0.2625
v -0.215 2.36 0.3075
v 0.215 2.36 0.3075
v 0.215 2.5 0.3075
v -0.215 2.5 0.3075
f 109 112 111 110
f 113 114 115 116
f 109 110 114 113
f 112 116 115 111
f 110 111 115 114
f 109 113 116 112

o Helmet
g Helmet
usemtl Zephyr_Cyan
v -0.075 2.494566 -0.076847
v 0.075 2.494566 -0.076847
v 0.075 2.78801 -0.13922
v -0.075 2.78801 -0.13922
v -0.075 2.53199 0.09922
v 0.075 2.53199 0.09922
v 0.075 2.825434 0.036847
v -0.075 2.825434 0.036847
f 117 120 119 118
f 121 122 123 124
f 117 118 122 121
f 120 124 123 119
f 118 119 123 122
f 117 121 124 120

o L_Upper_Arm
g L_Upper_Arm
usemtl Zephyr_White
v -0.5 2.083333 0.149963
v -0.596928 2.125414 0.105083
v -0.637077 2.140893 -0.001353
v -0.596928 2.120701 -0.106997
v -0.5 2.076667 -0.149963
v -0.403072 2.034585 -0.105083
v -0.362923 2.019107 0.001353
v -0.403072 2.039299 0.106997
v -0.7 1.633332 0.159963
v -0.796928 1.675414 0.115083
v -0.837077 1.690893 0.008647
v -0.796928 1.670702 -0.096997
v -0.7 1.626667 -0.139963
v -0.603072 1.584586 -0.095083
v -0.562923 1.569107 0.011353
v -0.603072 1.589298 0.116997
f 132 131 130 129 128 127 126 125
f 133 134 135 136 137 138 139 140
f 125 126 134 133
f 126 127 135 134
f 127 128 136 135
f 128 129 137 136
f 129 130 138 137
f 130 131 139 138
f 131 132 140 139
f 132 125 133 140

o R_Upper_Arm
g R_Upper_Arm
usemtl Zephyr_White
v 0.5 2.083333 0.149963
v 0.403072 2.039299 0.106997
v 0.362923 2.019107 0.001353
v 0.403072 2.034585 -0.105083
v 0.5 2.076667 -0.149963
v 0.596928 2.120701 -0.106997
v 0.637077 2.140893 -0.001353
v 0.596928 2.125414 0.105083
v 0.7 1.633332 0.159963
v 0.603072 1.589298 0.116997
v 0.562923 1.569107 0.011353
v 0.603072 1.584586 -0.095083
v 0.7 1.626667 -0.139963
v 0.796928 1.670702 -0.096997
v 0.837077 1.690893 0.008647
v 0.796928 1.675414 0.115083
f 148 147 146 145 144 143 142 141
f 149 150 151 152 153 154 155 156
f 141 142 150 149
f 142 143 151 150
f 143 144 152 151
f 144 145 153 152
f 145 146 154 153
f 146 147 155 154
f 147 148 156 155
f 148 141 149 156

o L_Forearm
g L_Forearm
usemtl Zephyr_Gunmetal
v -0.7 1.642967 0.149398
v -0.796913 1.659279 0.106699
v -0.837055 1.65844 0.007354
v -0.796913 1.640941 -0.09044
v -0.7 1.617033 -0.129398
v -0.603087 1.600721 -0.086699
v -0.562945 1.60156 0.012646
v -0.603087 1.619059 0.11044
v -0.79 1.212967 0.189398
v -0.886913 1.229279 0.146699
v -0.927055 1.22844 0.047354
v -0.886913 1.210941 -0.05044
v -0.79 1.187033 -0.089398
v -0.693087 1.170721 -0.046699
v -0.652945 1.17156 0.052646
v -0.693087 1.189059 0.15044
f 164 163 162 161 160 159 158 157
f 165 166 167 168 169 170 171 172
f 157 158 166 165
f 158 159 167 166
f 159 160 168 167
f 160 161 169 168
f 161 162 170 169
f 162 163 171 170
f 163 164 172 171
f 164 157 165 172

o R_Forearm
g R_Forearm
usemtl Zephyr_Gunmetal
v 0.7 1.642967 0.149398
v 0.603087 1.619059 0.11044
v 0.562945 1.60156 0.012646
v 0.603087 1.600721 -0.086699
v 0.7 1.617033 -0.129398
v 0.796913 1.640941 -0.09044
v 0.837055 1.65844 0.007354
v 0.796913 1.659279 0.106699
v 0.79 1.212967 0.189398
v 0.693087 1.189059 0.15044
v 0.652945 1.17156 0.052646
v 0.693087 1.170721 -0.046699
v 0.79 1.187033 -0.089398
v 0.886913 1.210941 -0.05044
v 0.927055 1.22844 0.047354
v 0.886913 1.229279 0.146699
f 180 179 178 177 176 175 174 173
f 181 182 183 184 185 186 187 188
f 173 174 182 181
f 174 175 183 182
f 175 176 184 183
f 176 177 185 184
f 177 178 186 185
f 178 179 187 186
f 179 180 188 187
f 180 173 181 188

o L_Forearm_Nozzle
g L_Forearm_Nozzle
usemtl Zephyr_Cyan
v -0.61 1.49 -0.08
v -0.645147 1.442932 -0.009398
v -0.73 1.423436 0.019846
v -0.814853 1.442932 -0.009398
v -0.85 1.49 -0.08
v -0.814853 1.537068 -0.150602
v -0.73 1.556564 -0.179846
v -0.645147 1.537068 -0.150602
v -0.61 1.31 -0.2
v -0.645147 1.262932 -0.129398
v -0.73 1.243436 -0.100154
v -0.814853 1.262932 -0.129398
v -0.85 1.31 -0.2
v -0.814853 1.357068 -0.270602
v -0.73 1.376564 -0.299846
v -0.645147 1.357068 -0.270602
f 196 195 194 193 192 191 190 189
f 197 198 199 200 201 202 203 204
f 189 190 198 197
f 190 191 199 198
f 191 192 200 199
f 192 193 201 200
f 193 194 202 201
f 194 195 203 202
f 195 196 204 203
f 196 189 197 204

o R_Forearm_Nozzle
g R_Forearm_Nozzle
usemtl Zephyr_Cyan
v 0.85 1.49 -0.08
v 0.814853 1.442932 -0.009398
v 0.73 1.423436 0.019846
v 0.645147 1.442932 -0.009398
v 0.61 1.49 -0.08
v 0.645147 1.537068 -0.150602
v 0.73 1.556564 -0.179846
v 0.814853 1.537068 -0.150602
v 0.85 1.31 -0.2
v 0.814853 1.262932 -0.129398
v 0.73 1.243436 -0.100154
v 0.645147 1.262932 -0.129398
v 0.61 1.31 -0.2
v 0.645147 1.357068 -0.270602
v 0.73 1.376564 -0.299846
v 0.814853 1.357068 -0.270602
f 212 211 210 209 208 207 206 205
f 213 214 215 216 217 218 219 220
f 205 206 214 213
f 206 207 215 214
f 207 208 216 215
f 208 209 217 216
f 209 210 218 217
f 210 211 219 218
f 211 212 220 219
f 212 205 213 220

o L_Glove
g L_Glove
usemtl Zephyr_White
v -0.79 1.36 0.05
v -0.79 1.36 0.05
v -0.79 1.36 0.05
v -0.79 1.36 0.05
v -0.79 1.36 0.05
v -0.79 1.36 0.05
v -0.79 1.36 0.05
v -0.79 1.36 0.05
v -0.79 1.36 0.05
v -0.79 1.36 0.05
v -0.70771 1.329443 0.05
v -0.723426 1.329443 0.094914
v -0.764571 1.329443 0.122672
v -0.815429 1.329443 0.122672
v -0.856574 1.329443 0.094914
v -0.87229 1.329443 0.05
v -0.856574 1.329443 0.005086
v -0.815429 1.329443 -0.022672
v -0.764571 1.329443 -0.022672
v -0.723426 1.329443 0.005086
v -0.656852 1.249443 0.05
v -0.682281 1.249443 0.122672
v -0.748855 1.249443 0.167586
v -0.831145 1.249443 0.167586
v -0.897719 1.249443 0.122672
v -0.923148 1.249443 0.05
v -0.897719 1.249443 -0.022672
v -0.831145 1.249443 -0.067586
v -0.748855 1.249443 -0.067586
v -0.682281 1.249443 -0.022672
v -0.656852 1.150557 0.05
v -0.682281 1.150557 0.122672
v -0.748855 1.150557 0.167586
v -0.831145 1.150557 0.167586
v -0.897719 1.150557 0.122672
v -0.923148 1.150557 0.05
v -0.897719 1.150557 -0.022672
v -0.831145 1.150557 -0.067586
v -0.748855 1.150557 -0.067586
v -0.682281 1.150557 -0.022672
v -0.70771 1.070557 0.05
v -0.723426 1.070557 0.094914
v -0.764571 1.070557 0.122672
v -0.815429 1.070557 0.122672
v -0.856574 1.070557 0.094914
v -0.87229 1.070557 0.05
v -0.856574 1.070557 0.005086
v -0.815429 1.070557 -0.022672
v -0.764571 1.070557 -0.022672
v -0.723426 1.070557 0.005086
v -0.79 1.04 0.05
v -0.79 1.04 0.05
v -0.79 1.04 0.05
v -0.79 1.04 0.05
v -0.79 1.04 0.05
v -0.79 1.04 0.05
v -0.79 1.04 0.05
v -0.79 1.04 0.05
v -0.79 1.04 0.05
v -0.79 1.04 0.05
f 221 231 232 222
f 222 232 233 223
f 223 233 234 224
f 224 234 235 225
f 225 235 236 226
f 226 236 237 227
f 227 237 238 228
f 228 238 239 229
f 229 239 240 230
f 230 240 231 221
f 231 241 242 232
f 232 242 243 233
f 233 243 244 234
f 234 244 245 235
f 235 245 246 236
f 236 246 247 237
f 237 247 248 238
f 238 248 249 239
f 239 249 250 240
f 240 250 241 231
f 241 251 252 242
f 242 252 253 243
f 243 253 254 244
f 244 254 255 245
f 245 255 256 246
f 246 256 257 247
f 247 257 258 248
f 248 258 259 249
f 249 259 260 250
f 250 260 251 241
f 251 261 262 252
f 252 262 263 253
f 253 263 264 254
f 254 264 265 255
f 255 265 266 256
f 256 266 267 257
f 257 267 268 258
f 258 268 269 259
f 259 269 270 260
f 260 270 261 251
f 261 271 272 262
f 262 272 273 263
f 263 273 274 264
f 264 274 275 265
f 265 275 276 266
f 266 276 277 267
f 267 277 278 268
f 268 278 279 269
f 269 279 280 270
f 270 280 271 261

o R_Glove
g R_Glove
usemtl Zephyr_White
v 0.79 1.36 0.05
v 0.79 1.36 0.05
v 0.79 1.36 0.05
v 0.79 1.36 0.05
v 0.79 1.36 0.05
v 0.79 1.36 0.05
v 0.79 1.36 0.05
v 0.79 1.36 0.05
v 0.79 1.36 0.05
v 0.79 1.36 0.05
v 0.87229 1.329443 0.05
v 0.856574 1.329443 0.094914
v 0.815429 1.329443 0.122672
v 0.764571 1.329443 0.122672
v 0.723426 1.329443 0.094914
v 0.70771 1.329443 0.05
v 0.723426 1.329443 0.005086
v 0.764571 1.329443 -0.022672
v 0.815429 1.329443 -0.022672
v 0.856574 1.329443 0.005086
v 0.923148 1.249443 0.05
v 0.897719 1.249443 0.122672
v 0.831145 1.249443 0.167586
v 0.748855 1.249443 0.167586
v 0.682281 1.249443 0.122672
v 0.656852 1.249443 0.05
v 0.682281 1.249443 -0.022672
v 0.748855 1.249443 -0.067586
v 0.831145 1.249443 -0.067586
v 0.897719 1.249443 -0.022672
v 0.923148 1.150557 0.05
v 0.897719 1.150557 0.122672
v 0.831145 1.150557 0.167586
v 0.748855 1.150557 0.167586
v 0.682281 1.150557 0.122672
v 0.656852 1.150557 0.05
v 0.682281 1.150557 -0.022672
v 0.748855 1.150557 -0.067586
v 0.831145 1.150557 -0.067586
v 0.897719 1.150557 -0.022672
v 0.87229 1.070557 0.05
v 0.856574 1.070557 0.094914
v 0.815429 1.070557 0.122672
v 0.764571 1.070557 0.122672
v 0.723426 1.070557 0.094914
v 0.70771 1.070557 0.05
v 0.723426 1.070557 0.005086
v 0.764571 1.070557 -0.022672
v 0.815429 1.070557 -0.022672
v 0.856574 1.070557 0.005086
v 0.79 1.04 0.05
v 0.79 1.04 0.05
v 0.79 1.04 0.05
v 0.79 1.04 0.05
v 0.79 1.04 0.05
v 0.79 1.04 0.05
v 0.79 1.04 0.05
v 0.79 1.04 0.05
v 0.79 1.04 0.05
v 0.79 1.04 0.05
f 281 291 292 282
f 282 292 293 283
f 283 293 294 284
f 284 294 295 285
f 285 295 296 286
f 286 296 297 287
f 287 297 298 288
f 288 298 299 289
f 289 299 300 290
f 290 300 291 281
f 291 301 302 292
f 292 302 303 293
f 293 303 304 294
f 294 304 305 295
f 295 305 306 296
f 296 306 307 297
f 297 307 308 298
f 298 308 309 299
f 299 309 310 300
f 300 310 301 291
f 301 311 312 302
f 302 312 313 303
f 303 313 314 304
f 304 314 315 305
f 305 315 316 306
f 306 316 317 307
f 307 317 318 308
f 308 318 319 309
f 309 319 320 310
f 310 320 311 301
f 311 321 322 312
f 312 322 323 313
f 313 323 324 314
f 314 324 325 315
f 315 325 326 316
f 316 326 327 317
f 317 327 328 318
f 318 328 329 319
f 319 329 330 320
f 320 330 321 311
f 321 331 332 322
f 322 332 333 323
f 323 333 334 324
f 324 334 335 325
f 325 335 336 326
f 326 336 337 327
f 327 337 338 328
f 328 338 339 329
f 329 339 340 330
f 330 340 331 321

o L_Thigh
g L_Thigh
usemtl Zephyr_White
v -0.24 1.3 0.19
v -0.37435 1.3 0.13435
v -0.43 1.3 -0
v -0.37435 1.3 -0.13435
v -0.24 1.3 -0.19
v -0.10565 1.3 -0.13435
v -0.05 1.3 0
v -0.10565 1.3 0.13435
v -0.24 0.77 0.19
v -0.37435 0.77 0.13435
v -0.43 0.77 -0
v -0.37435 0.77 -0.13435
v -0.24 0.77 -0.19
v -0.10565 0.77 -0.13435
v -0.05 0.77 0
v -0.10565 0.77 0.13435
f 348 347 346 345 344 343 342 341
f 349 350 351 352 353 354 355 356
f 341 342 350 349
f 342 343 351 350
f 343 344 352 351
f 344 345 353 352
f 345 346 354 353
f 346 347 355 354
f 347 348 356 355
f 348 341 349 356

o R_Thigh
g R_Thigh
usemtl Zephyr_White
v 0.24 1.3 0.19
v 0.10565 1.3 0.13435
v 0.05 1.3 -0
v 0.10565 1.3 -0.13435
v 0.24 1.3 -0.19
v 0.37435 1.3 -0.13435
v 0.43 1.3 0
v 0.37435 1.3 0.13435
v 0.24 0.77 0.19
v 0.10565 0.77 0.13435
v 0.05 0.77 -0
v 0.10565 0.77 -0.13435
v 0.24 0.77 -0.19
v 0.37435 0.77 -0.13435
v 0.43 0.77 0
v 0.37435 0.77 0.13435
f 364 363 362 361 360 359 358 357
f 365 366 367 368 369 370 371 372
f 357 358 366 365
f 358 359 367 366
f 359 360 368 367
f 360 361 369 368
f 361 362 370 369
f 362 363 371 370
f 363 364 372 371
f 364 357 365 372

o L_Shin
g L_Shin
usemtl Zephyr_Gunmetal
v -0.24 0.77 0.16
v -0.353137 0.77 0.113137
v -0.4 0.77 -0
v -0.353137 0.77 -0.113137
v -0.24 0.77 -0.16
v -0.126863 0.77 -0.113137
v -0.08 0.77 0
v -0.126863 0.77 0.113137
v -0.24 0.22 0.16
v -0.353137 0.22 0.113137
v -0.4 0.22 -0
v -0.353137 0.22 -0.113137
v -0.24 0.22 -0.16
v -0.126863 0.22 -0.113137
v -0.08 0.22 0
v -0.126863 0.22 0.113137
f 380 379 378 377 376 375 374 373
f 381 382 383 384 385 386 387 388
f 373 374 382 381
f 374 375 383 382
f 375 376 384 383
f 376 377 385 384
f 377 378 386 385
f 378 379 387 386
f 379 380 388 387
f 380 373 381 388

o R_Shin
g R_Shin
usemtl Zephyr_Gunmetal
v 0.24 0.77 0.16
v 0.126863 0.77 0.113137
v 0.08 0.77 -0
v 0.126863 0.77 -0.113137
v 0.24 0.77 -0.16
v 0.353137 0.77 -0.113137
v 0.4 0.77 0
v 0.353137 0.77 0.113137
v 0.24 0.22 0.16
v 0.126863 0.22 0.113137
v 0.08 0.22 -0
v 0.126863 0.22 -0.113137
v 0.24 0.22 -0.16
v 0.353137 0.22 -0.113137
v 0.4 0.22 0
v 0.353137 0.22 0.113137
f 396 395 394 393 392 391 390 389
f 397 398 399 400 401 402 403 404
f 389 390 398 397
f 390 391 399 398
f 391 392 400 399
f 392 393 401 400
f 393 394 402 401
f 394 395 403 402
f 395 396 404 403
f 396 389 397 404

o L_Calf_Nozzle
g L_Calf_Nozzle
usemtl Zephyr_Cyan
v -0.1 0.58 -0.13
v -0.141005 0.530119 -0.04449
v -0.24 0.509458 -0.009071
v -0.338995 0.530119 -0.04449
v -0.38 0.58 -0.13
v -0.338995 0.629881 -0.21551
v -0.24 0.650542 -0.250929
v -0.141005 0.629881 -0.21551
v -0.1 0.34 -0.27
v -0.141005 0.290119 -0.18449
v -0.24 0.269458 -0.149071
v -0.338995 0.290119 -0.18449
v -0.38 0.34 -0.27
v -0.338995 0.389881 -0.35551
v -0.24 0.410542 -0.390929
v -0.141005 0.389881 -0.35551
f 412 411 410 409 408 407 406 405
f 413 414 415 416 417 418 419 420
f 405 406 414 413
f 406 407 415 414
f 407 408 416 415
f 408 409 417 416
f 409 410 418 417
f 410 411 419 418
f 411 412 420 419
f 412 405 413 420

o R_Calf_Nozzle
g R_Calf_Nozzle
usemtl Zephyr_Cyan
v 0.38 0.58 -0.13
v 0.338995 0.530119 -0.04449
v 0.24 0.509458 -0.009071
v 0.141005 0.530119 -0.04449
v 0.1 0.58 -0.13
v 0.141005 0.629881 -0.21551
v 0.24 0.650542 -0.250929
v 0.338995 0.629881 -0.21551
v 0.38 0.34 -0.27
v 0.338995 0.290119 -0.18449
v 0.24 0.269458 -0.149071
v 0.141005 0.290119 -0.18449
v 0.1 0.34 -0.27
v 0.141005 0.389881 -0.35551
v 0.24 0.410542 -0.390929
v 0.338995 0.389881 -0.35551
f 428 427 426 425 424 423 422 421
f 429 430 431 432 433 434 435 436
f 421 422 430 429
f 422 423 431 430
f 423 424 432 431
f 424 425 433 432
f 425 426 434 433
f 426 427 435 434
f 427 428 436 435
f 428 421 429 436

o L_Shoe
g L_Shoe
usemtl Zephyr_White
v -0.42 -0.01 -0.14
v -0.06 -0.01 -0.14
v -0.06 0.19 -0.14
v -0.42 0.19 -0.14
v -0.42 -0.01 0.48
v -0.06 -0.01 0.48
v -0.06 0.19 0.48
v -0.42 0.19 0.48
f 437 440 439 438
f 441 442 443 444
f 437 438 442 441
f 440 444 443 439
f 438 439 443 442
f 437 441 444 440

o R_Shoe
g R_Shoe
usemtl Zephyr_White
v 0.06 -0.01 -0.14
v 0.42 -0.01 -0.14
v 0.42 0.19 -0.14
v 0.06 0.19 -0.14
v 0.06 -0.01 0.48
v 0.42 -0.01 0.48
v 0.42 0.19 0.48
v 0.06 0.19 0.48
f 445 448 447 446
f 449 450 451 452
f 445 446 450 449
f 448 452 451 447
f 446 447 451 450
f 445 449 452 448

o Left_Wing
g Left_Wing
usemtl Zephyr_White
v -0.981933 1.80205 -0.500506
v -0.147565 2.146688 -0.323155
v -0.191535 2.25795 -0.332501
v -1.025904 1.913312 -0.509852
v -1.048465 1.80205 -0.187499
v -0.214096 2.146688 -0.010148
v -0.258067 2.25795 -0.019494
v -1.092436 1.913312 -0.196845
f 453 456 455 454
f 457 458 459 460
f 453 454 458 457
f 456 460 459 455
f 454 455 459 458
f 453 457 460 456

o Right_Wing
g Right_Wing
usemtl Zephyr_White
v 0.147565 2.146688 -0.323155
v 0.981933 1.80205 -0.500506
v 1.025904 1.913312 -0.509852
v 0.191535 2.25795 -0.332501
v 0.214096 2.146688 -0.010148
v 1.048465 1.80205 -0.187499
v 1.092436 1.913312 -0.196845
v 0.258067 2.25795 -0.019494
f 461 464 463 462
f 465 466 467 468
f 461 462 466 465
f 464 468 467 463
f 462 463 467 466
f 461 465 468 464

o Left_Wing_Tip
g Left_Wing_Tip
usemtl Zephyr_Magenta
v -1.157615 2.047264 -0.371485
v -0.794881 2.244442 -0.294384
v -0.840802 2.332736 -0.304144
v -1.203537 2.135558 -0.381246
v -1.199198 2.047264 -0.175856
v -0.836463 2.244442 -0.098754
v -0.882385 2.332736 -0.108515
v -1.245119 2.135558 -0.185616
f 469 472 471 470
f 473 474 475 476
f 469 470 474 473
f 472 476 475 471
f 470 471 475 474
f 469 473 476 472

o Right_Wing_Tip
g Right_Wing_Tip
usemtl Zephyr_Magenta
v 0.794881 2.244442 -0.294384
v 1.157615 2.047264 -0.371485
v 1.203537 2.135558 -0.381246
v 0.840802 2.332736 -0.304144
v 0.836463 2.244442 -0.098754
v 1.199198 2.047264 -0.175856
v 1.245119 2.135558 -0.185616
v 0.882385 2.332736 -0.108515
f 477 480 479 478
f 481 482 483 484
f 477 478 482 481
f 480 484 483 479
f 478 479 483 482
f 477 481 484 480

o Racket_Handle
g Racket_Handle
usemtl Zephyr_Gunmetal
v 1.08 0.56 0.065
v 1.041109 0.56 0.081109
v 1.025 0.56 0.12
v 1.041109 0.56 0.158891
v 1.08 0.56 0.175
v 1.118891 0.56 0.158891
v 1.135 0.56 0.12
v 1.118891 0.56 0.081109
v 1.08 1.2 0.065
v 1.041109 1.2 0.081109
v 1.025 1.2 0.12
v 1.041109 1.2 0.158891
v 1.08 1.2 0.175
v 1.118891 1.2 0.158891
v 1.135 1.2 0.12
v 1.118891 1.2 0.081109
f 492 491 490 489 488 487 486 485
f 493 494 495 496 497 498 499 500
f 485 486 494 493
f 486 487 495 494
f 487 488 496 495
f 488 489 497 496
f 489 490 498 497
f 490 491 499 498
f 491 492 500 499
f 492 485 493 500

o Racket_Frame
g Racket_Frame
usemtl Zephyr_Cyan
v 1.425 1.57 0.12
v 1.39 1.57 0.155
v 1.355 1.57 0.12
v 1.39 1.57 0.085
v 1.390834 1.767417 0.12
v 1.3593 1.752231 0.155
v 1.327766 1.737045 0.12
v 1.3593 1.752231 0.085
v 1.295104 1.925733 0.12
v 1.273282 1.898369 0.155
v 1.25146 1.871005 0.12
v 1.273282 1.898369 0.085
v 1.15677 2.013592 0.12
v 1.148982 1.97947 0.155
v 1.141193 1.945347 0.12
v 1.148982 1.97947 0.085
v 1.00323 2.013592 0.12
v 1.011019 1.97947 0.155
v 1.018807 1.945347 0.12
v 1.011019 1.97947 0.085
v 0.864896 1.925733 0.12
v 0.886718 1.898369 0.155
v 0.90854 1.871005 0.12
v 0.886718 1.898369 0.085
v 0.769166 1.767417 0.12
v 0.8007 1.752231 0.155
v 0.832234 1.737045 0.12
v 0.8007 1.752231 0.085
v 0.735 1.57 0.12
v 0.77 1.57 0.155
v 0.805 1.57 0.12
v 0.77 1.57 0.085
v 0.769166 1.372583 0.12
v 0.8007 1.387769 0.155
v 0.832234 1.402955 0.12
v 0.8007 1.387769 0.085
v 0.864896 1.214267 0.12
v 0.886718 1.241631 0.155
v 0.90854 1.268995 0.12
v 0.886718 1.241631 0.085
v 1.00323 1.126408 0.12
v 1.011019 1.16053 0.155
v 1.018807 1.194653 0.12
v 1.011019 1.16053 0.085
v 1.15677 1.126408 0.12
v 1.148982 1.16053 0.155
v 1.141194 1.194653 0.12
v 1.148982 1.16053 0.085
v 1.295104 1.214267 0.12
v 1.273282 1.241631 0.155
v 1.25146 1.268995 0.12
v 1.273282 1.241631 0.085
v 1.390834 1.372583 0.12
v 1.3593 1.387769 0.155
v 1.327766 1.402955 0.12
v 1.3593 1.387769 0.085
f 501 505 506 502
f 502 506 507 503
f 503 507 508 504
f 504 508 505 501
f 505 509 510 506
f 506 510 511 507
f 507 511 512 508
f 508 512 509 505
f 509 513 514 510
f 510 514 515 511
f 511 515 516 512
f 512 516 513 509
f 513 517 518 514
f 514 518 519 515
f 515 519 520 516
f 516 520 517 513
f 517 521 522 518
f 518 522 523 519
f 519 523 524 520
f 520 524 521 517
f 521 525 526 522
f 522 526 527 523
f 523 527 528 524
f 524 528 525 521
f 525 529 530 526
f 526 530 531 527
f 527 531 532 528
f 528 532 529 525
f 529 533 534 530
f 530 534 535 531
f 531 535 536 532
f 532 536 533 529
f 533 537 538 534
f 534 538 539 535
f 535 539 540 536
f 536 540 537 533
f 537 541 542 538
f 538 542 543 539
f 539 543 544 540
f 540 544 541 537
f 541 545 546 542
f 542 546 547 543
f 543 547 548 544
f 544 548 545 541
f 545 549 550 546
f 546 550 551 547
f 547 551 552 548
f 548 552 549 545
f 549 553 554 550
f 550 554 555 551
f 551 555 556 552
f 552 556 553 549
f 553 501 502 554
f 554 502 503 555
f 555 503 504 556
f 556 504 501 553

o Racket_Strings_H
g Racket_Strings_H
usemtl Paper
v 0.815 1.5575 0.1075
v 1.345 1.5575 0.1075
v 1.345 1.5825 0.1075
v 0.815 1.5825 0.1075
v 0.815 1.5575 0.1325
v 1.345 1.5575 0.1325
v 1.345 1.5825 0.1325
v 0.815 1.5825 0.1325
f 557 560 559 558
f 561 562 563 564
f 557 558 562 561
f 560 564 563 559
f 558 559 563 562
f 557 561 564 560

o Racket_Strings_V
g Racket_Strings_V
usemtl Paper
v 1.0675 1.21 0.1075
v 1.0925 1.21 0.1075
v 1.0925 1.93 0.1075
v 1.0675 1.93 0.1075
v 1.0675 1.21 0.1325
v 1.0925 1.21 0.1325
v 1.0925 1.93 0.1325
v 1.0675 1.93 0.1325
f 565 568 567 566
f 569 570 571 572
f 565 566 570 569
f 568 572 571 567
f 566 567 571 570
f 565 569 572 568
